<ttFont>
          <CharString index="0">
            rmoveto
            -19 callsubr
            hvcurveto
            -7 35 rlineto
            -14 -50 -55 -9 -41 hhcurveto
            -91 -53 59 119 hvcurveto
            29 300 vlineto
            2 19 1 22 14 vvcurveto
            130 -60 60 -132 -77 callgsubr
            vhcurveto
            -120 308 rmoveto
            103 5 28 45 82 hhcurveto
            60 22 -41 -74 hvcurveto
            -22 vlineto
            return
          </CharString>
          <CharString index="1">
            28 callsubr
            -111 -42 -80 -116 -124 -20 98 118 vhcurveto
            290 vlineto
            89 -10 callgsubr
            -277 -42 callgsubr
            -290 vlineto
            -146 33 -128 201 return
          </CharString>
          <CharString index="2">
            -153 -73 callsubr
            -54 -16 -33 hhcurveto
            -62 -13 24 44 hvcurveto
            375 -49 callgsubr
            85 -31 callsubr
            28 -58 90 67 66 32 26 51 vhcurveto
            -34 5 38 -56 callsubr
            return
          </CharString>
          <CharString index="3">
            -170 -67 69 callsubr
            68 -115 169 170 67 115 138 143 -65 115 -172 hvcurveto
            129 -255 rmoveto
            -44 callgsubr
            -105 -27 87 115 115 26 86 100 105 27 -86 -115 vhcurveto
            return
          </CharString>
          <CharString index="4">
            -107 callsubr
            endchar
          </CharString>
          <CharString index="5">
            -37 vlineto
            -106 callsubr
            return
          </CharString>
          <CharString index="6">
            -104 callgsubr
            endchar
          </CharString>
          <CharString index="7">
            rmoveto
            36 -31 24 callgsubr
            35 -14 callsubr
            vhcurveto
            return
          </CharString>
          <CharString index="8">
            -19 -66 rlineto
            -133 230 186 hlineto
            21 -79 rlineto
            45 136 -443 -37 hlineto
            92 -77 callsubr
            -92 -21 rlineto
            return
          </CharString>
          <CharString index="9">
            -97 callgsubr
            -38 hlineto
            -88 callgsubr
            -87 21 rlineto
            391 vlineto
            80 6 75 38 64 vvcurveto
            return
          </CharString>
          <CharString index="10">
            -97 callgsubr
            -21 hlineto
            28 -44 -55 16 -71 hhcurveto
            -211 -82 -144 -174 -174 85 -144 208 209 82 144 174 92 -22 83 -52 59 hvcurveto
            67 12 57 36 56 vvcurveto
            -338 -601 rmoveto
            -157 -32 152 111 109 28 154 152 158 32 -154 -109 -62 callsubr
            hvcurveto
            return
          </CharString>
          <CharString index="11">
            rmoveto
            35 -29 -65 callsubr
            33 29 26 34 vhcurveto
            206 hmoveto
            35 -30 -64 callgsubr
            32 0 callsubr
            return
          </CharString>
          <CharString index="12">
            -97 callgsubr
            -130 -37 hlineto
            -85 callsubr
            319 vlineto
            59 32 rlineto
            43 18 30 30 41 vvcurveto
            return
          </CharString>
          <CharString index="13">
            -99 callsubr
            -37 return
          </CharString>
          <CharString index="14">
            -52 vlineto
            -95 -2 -43 -56 -88 hhcurveto
            -25 -27 4 9 -25 hvcurveto
            -23 79 rlineto
            -41 hlineto
            -19 -118 rlineto
            -21 55 45 -10 64 hhcurveto
            159 65 115 142 hvcurveto
            411 -33 vlineto
            -152 -85 callgsubr
            -286 vlineto
            -16 -36 -56 -15 -34 hhcurveto
            -61 -11 23 45 hvcurveto
            328 -8 callsubr
            85 -10 rlineto
            -268 vlineto
            -59 28 -59 90 66 69 30 27 49 vhcurveto
            endchar
          </CharString>
          <CharString index="15">
            29 callsubr
            -88 29 callgsubr
            vlineto
            88 21 rlineto
            -78 callsubr
            return
          </CharString>
          <CharString index="16">
            rmoveto
            -35 14 -30 callgsubr
            -23 vhcurveto
            -37 -77 39 -39 -66 callgsubr
            35 23 vhcurveto
            -54 callgsubr
            return
          </CharString>
          <CharString index="17">
            158 37 hlineto
            -74 21 -92 186 7 29 -67 20 rlinecurve
            106 27 39 69 70 vvcurveto
            83 -62 70 -155 vhcurveto
            -256 -37 hlineto
            91 -77 callsubr
            -90 34 callsubr
            -87 21 rlineto
            218 34 vlineto
            57 -5 -6 -270 120 hvcurveto
            -151 320 rmoveto
            -55 235 hlineto
            5 18 21 4 19 hhcurveto
            79 41 -43 -71 -77 -42 -53 -81 hvcurveto
            return
          </CharString>
          <CharString index="18">
            170 81 102 127 hvcurveto
            492 52 callsubr
            -268 -24 callsubr
            -361 vlineto
            -40 -20 -41 -46 -90 hhcurveto
            -118 -20 102 122 hvcurveto
            223 vlineto
            89 -10 callgsubr
            -276 -42 callgsubr
            -223 vlineto
            -155 33 -123 192 72 53 23 34 37 vhcurveto
            -49 vlineto
            -123 -59 -48 -102 -34 -51 10 18 -34 vhcurveto
            return
          </CharString>
          <CharString index="19">
            vlineto
            -154 -85 callgsubr
            return
          </CharString>
          <CharString index="20">
            rmoveto
            -91 47 -47 57 -22 vhcurveto
            -61 callgsubr
            150 75 69 109 82 -34 48 -74 29 hvcurveto
            -102 42 rlineto
            -58 23 -33 28 55 vvcurveto
            66 50 30 72 24 41 -4 -6 19 vhcurveto
            22 -95 rlineto
            42 hlineto
            10 134 rlineto
            18 -53 -57 9 -56 hhcurveto
            -130 -73 -65 -109 hvcurveto
            return
          </CharString>
          <CharString index="21">
            rmoveto
            24 28 -7 -8 17 hvcurveto
            21 -73 rlineto
            38 hlineto
            15 113 rlineto
            20 -45 -50 11 -46 49 callgsubr
            58 -20 17 -18 -32 vvcurveto
            -56 -38 -25 -65 -36 -26 6 6 -20 vhcurveto
            -21 83 rlineto
            -39 hlineto
            -14 1 callsubr
            -17 46 63 -9 45 hhcurveto
            126 66 60 93 69 -25 37 -83 28 hvcurveto
            -85 29 rlineto
            -47 17 -17 17 39 vvcurveto
            42 35 24 60 vhcurveto
            return
          </CharString>
          <CharString index="22">
            -106 callsubr
            -49 callsubr
            vhcurveto
            return
          </CharString>
          <CharString index="23">
            443 -31 -88 callsubr
            -364 vlineto
            return
          </CharString>
          <CharString index="24">
            rmoveto
            -71 callsubr
            26 -22 110 89 rlineto
            return
          </CharString>
          <CharString index="25">
            rmoveto
            -37 vlineto
            71 -21 -89 -398 -120 412 -84 -16 -102 -388 -94 391 61 -6 callgsubr
            -238 -37 vlineto
            72 -21 153 -563 61 11 118 410 134 -421 62 11 134 552 47 callgsubr
          </CharString>
          <CharString index="26">
            rmoveto
            -19 callgsubr
            -497 vlineto
            -81 -21 rlineto
            -37 228 37 vlineto
            -85 21 rlineto
            420 vlineto
            339 -7 callgsubr
            83 -6 callgsubr
            vlineto
            return
          </CharString>
          <CharString index="27">
            -33 7 36 -18 31 hhcurveto
            30 37 4 12 41 hvcurveto
            33 vlineto
            -86 21 rlineto
            662 -32 -5 callsubr
            -172 vlineto
            2 -1 -54 22 -59 hhcurveto
            -141 -82 -98 -160 -133 57 -120 117 return
          </CharString>
          <CharString index="28">
            rmoveto
            93 53 47 165 hvcurveto
            491 vlineto
            87 -4 callgsubr
            -521 vlineto
            -71 -11 -52 -63 vhcurveto
            -72 hlineto
            -4 -31 rlineto
            -15 23 31 -13 49 hhcurveto
            endchar
          </CharString>
          <CharString index="29">
            37 -276 -37 vlineto
            -73 callgsubr
            return
          </CharString>
          <CharString index="30">
            -21 rlineto
            -496 vlineto
            return
          </CharString>
          <CharString index="31">
            rmoveto
            -100 callgsubr
            62 18 -28 -52 hvcurveto
            -80 vlineto
            -147 -27 rlineto
            -107 -20 -20 -71 -50 vvcurveto
            -65 39 -58 72 62 52 24 37 51 vhcurveto
            -37 8 33 -17 35 hhcurveto
            30 35 4 12 42 hvcurveto
            33 vlineto
            -185 46 rmoveto
            -15 -28 -44 -19 -34 hhcurveto
            -39 -28 19 51 41 19 36 63 12 hvcurveto
            91 16 rlineto
            endchar
          </CharString>
          <CharString index="32">
            -82 callgsubr
            86 return
          </CharString>
          <CharString index="33">
            720 rmoveto
            -26 -20 103 -140 rlineto
            68 hlineto
            101 140 -25 20 -110 -86 rlineto
            return
          </CharString>
          <CharString index="34">
            -85 callgsubr
            -332 vlineto
            -16 -35 return
          </CharString>
          <CharString index="35">
            790 rmoveto
            -96 -23 -58 -63 hvcurveto
            40 -2 rlineto
            31 14 31 65 62 14 -31 -31 vhcurveto
            42 2 rlineto
            63 -23 58 -95 vhcurveto
            return
          </CharString>
          <CharString index="36">
            25 -18 callgsubr
            -67 hlineto
            -102 -139 return
          </CharString>
          <CharString index="37">
            152 -44 hlineto
            -47 callgsubr
            return
          </CharString>
          <CharString index="38">
            71 -20 -120 -244 -119 243 61 -10 callgsubr
            -243 -37 vlineto
            69 -21 162 23 callsubr
            299 37 vlineto
            -101 -23 callgsubr
            72 22 rlineto
            36 return
          </CharString>
          <CharString index="39">
            546 rmoveto
            23 15 -91 159 rlineto
            -80 -18 hlineto
            309 -156 rmoveto
            23 15 -91 159 rlineto
            -80 -18 hlineto
            return
          </CharString>
          <CharString index="40">
            72 callgsubr
            -155 -132 rlineto
            return
          </CharString>
          <CharString index="41">
            -26 -92 rlineto
            -179 494 hlineto
            89 -10 callgsubr
            -276 -37 vlineto
            88 -77 callsubr
            -88 -21 rlineto
            return
          </CharString>
          <CharString index="42">
            28 -33 -59 callgsubr
            return
          </CharString>
          <CharString index="43">
            36 vlineto
            -86 22 rlineto
            335 vlineto
            80 -61 28 -69 -63 -76 -24 -16 -38 vhcurveto
            267 -31 vlineto
            -155 -85 callgsubr
            -591 vlineto
            -86 -20 rlineto
            -38 262 36 vlineto
            -76 22 -7 callsubr
            30 43 6 45 hhcurveto
            72 18 -12 -51 hvcurveto
            -313 vlineto
            -76 -22 rlineto
            -36 vlineto
            return
          </CharString>
          <CharString index="44">
            661 -91 callgsubr
            return
          </CharString>
          <CharString index="45">
            -109 -26 -154 -155 return
          </CharString>
          <CharString index="46">
            vlineto
            84 15 52 70 12 19 -3 -7 15 vhcurveto
            14 -69 rlineto
            45 hlineto
            15 124 rlineto
            11 -18 -48 9 -33 hhcurveto
            -123 -83 -86 -147 hvcurveto
            -80 -26 rlineto
            -34 80 -377 vlineto
            -85 -23 rlineto
            return
          </CharString>
          <CharString index="47">
            272 53 callgsubr
            670 -33 vlineto
            -153 -33 callsubr
            return
          </CharString>
          <CharString index="48">
            hvcurveto
            35 -14 rlineto
            0 21 return
          </CharString>
          <CharString index="49">
            rmoveto
            -216 -32 hlineto
            56 -35 callgsubr
            -7 -36 rlineto
            -18 34 31 -7 26 hhcurveto
            86 84 callgsubr
            46 -57 callgsubr
            return
          </CharString>
          <CharString index="50">
            vlineto
            -33 callgsubr
            return
          </CharString>
          <CharString index="51">
            -18 32 hhcurveto
            29 35 4 12 43 hvcurveto
            return
          </CharString>
          <CharString index="52">
            rmoveto
            67 hlineto
            32 94 rlineto
            -5 24 26 -3 29 hhcurveto
            209 82 144 174 132 -47 115 -115 48 hvcurveto
            36 104 rlineto
            -68 hlineto
            -30 -87 rlineto
            4 -20 -23 2 -24 hhcurveto
            -211 -82 -144 -174 -129 46 -111 108 -50 hvcurveto
            24 70 rmoveto
            -57 53 -14 93 74 vvcurveto
            110 28 155 152 20 18 -2 -5 17 vhcurveto
            -46 -523 rmoveto
            -23 -21 3 7 -19 hvcurveto
            165 480 rlineto
            63 -51 16 -98 -76 vvcurveto
            -110 -26 -155 -155 vhcurveto
            endchar
          </CharString>
          <CharString index="53">
            rmoveto
            71 -20 -121 -244 -119 243 61 -10 callgsubr
            -242 -37 vlineto
            68 -21 163 23 callsubr
            298 37 vlineto
            42 callsubr
            71 22 rlineto
            36 -210 vlineto
            endchar
          </CharString>
          <CharString index="54">
            rmoveto
            70 34 41 54 52 -34 43 -70 -69 -36 -43 -52 -54 36 -41 69 hvcurveto
            39 vmoveto
            -42 -6 24 32 30 6 27 42 42 5 -27 -30 -32 -5 -24 -42 hvcurveto
            return
          </CharString>
          <CharString index="55">
            132 -19 20 -117 -80 -119 80 return
          </CharString>
          <CharString index="56">
            rmoveto
            61 hlineto
            28 88 rlineto
            -3 17 18 -2 20 hhcurveto
            170 67 115 138 110 -38 92 -94 37 hvcurveto
            33 104 rlineto
            -63 hlineto
            -29 -88 rlineto
            2 -14 -16 1 -16 hhcurveto
            -170 -67 -115 -143 -103 38 -90 88 -39 hvcurveto
            23 72 rmoveto
            -31 35 -10 59 69 vvcurveto
            115 26 86 100 12 11 -1 -2 10 vhcurveto
            -27 -400 rmoveto
            -15 -13 2 4 -12 hvcurveto
            119 364 rlineto
            36 -34 11 -61 -73 vvcurveto
            -44 callgsubr
            vhcurveto
            endchar
          </CharString>
          <CharString index="57">
            11 callsubr
            -269 -42 callgsubr
            -361 vlineto
            -40 -20 -42 -46 -89 hhcurveto
            -119 -19 102 122 hvcurveto
            223 vlineto
            89 -10 callgsubr
            -276 -42 callgsubr
            -223 vlineto
            -155 32 -123 193 72 53 23 34 37 vhcurveto
            -49 vlineto
            -123 -59 -48 -103 -34 -51 10 18 -33 vhcurveto
            endchar
          </CharString>
          <CharString index="58">
            201 29 161 85 return
          </CharString>
          <CharString index="59">
            -30 -28 -35 -34 30 -26 return
          </CharString>
          <CharString index="60">
            -7 36 rlineto
            -15 -47 -55 -8 -47 hhcurveto
            -95 -28 68 128 117 22 82 95 27 27 -5 -8 24 hvcurveto
            23 -91 47 callsubr
            128 rlineto
            21 -55 -46 11 -64 61 callgsubr
            return
          </CharString>
          <CharString index="61">
            141 598 73 rmoveto
            -82 -3 rlineto
            85 43 59 125 90 vvcurveto
            155 -77 144 -211 -203 -93 -142 -164 -140 82 -84 62 -29 vhcurveto
            -82 5 rlineto
            -44 hlineto
            -20 76 rlineto
            -42 -149 264 51 hlineto
            -60 56 -54 84 118 vvcurveto
            124 32 139 151 156 34 -153 -106 -131 -57 -82 -56 -49 vhcurveto
            -51 263 149 -40 vlineto
            -21 -76 rlineto
            endchar
          </CharString>
          <CharString index="62">
            646 rmoveto
            135 140 rlineto
            18 -80 vlineto
            -80 -141 rlineto
            186 -17 rmoveto
            135 140 rlineto
            18 -80 vlineto
            -80 -141 rlineto
            return
          </CharString>
          <CharString index="63">
            -32 515 11 rmoveto
            29 vlineto
            -76 19 rlineto
            383 -29 vlineto
            -133 -32 rlineto
            -27 vlineto
            71 -9 rlineto
            -294 vlineto
            -16 -31 -36 -12 -40 hhcurveto
            -53 -10 21 40 hvcurveto
            329 -28 vlineto
            -138 -32 rlineto
            -27 vlineto
            75 -8 rlineto
            -589 88 vlineto
            -21 226 rlineto
            -15 12 23 -6 23 hhcurveto
            45 53 24 27 41 hvcurveto
            -29 7 31 -17 30 hhcurveto
            26 32 4 11 38 hvcurveto
            endchar
          </CharString>
          <CharString index="64">
            -69 139 315 rmoveto
            172 9 102 86 106 hhcurveto
            20 17 -2 -3 26 hvcurveto
            7 50 rlineto
            6 -27 -24 4 -34 hhcurveto
            -125 -179 -91 -293 -133 36 -124 167 198 34 135 79 95 -48 83 -127 -70 -52 -27 -37 -36 hvcurveto
            -2 -81 rmoveto
            44 27 53 40 57 hhcurveto
            79 20 -63 -75 -78 -39 -57 -88 -82 -27 84 105 hvcurveto
            endchar
          </CharString>
          <CharString index="65">
            rmoveto
            36 -30 31 -36 -35 -31 -31 -36 -36 31 -28 35 36 30 28 36 vhcurveto
            return
          </CharString>
          <CharString index="66">
            29 callsubr
            -87 21 rlineto
            218 34 vlineto
            57 -5 -6 -270 120 hvcurveto
            158 37 hlineto
            -74 21 -92 186 7 29 -67 20 rlinecurve
            106 27 39 69 70 vvcurveto
            83 -62 70 -155 vhcurveto
            -256 -37 hlineto
            91 -77 callsubr
            -90 -21 rlineto
            189 283 rmoveto
            235 vlineto
            5 18 21 4 19 hhcurveto
            79 41 -43 -71 -77 -42 -53 -81 hvcurveto
            return
          </CharString>
          <CharString index="67">
            -21 82 rlineto
            -39 hlineto
            -17 1 callsubr
            -30 61 60 -14 77 hhcurveto
            return
          </CharString>
          <CharString index="68">
            -103 42 rlineto
            -57 23 -33 28 55 vvcurveto
            66 50 30 72 23 42 -4 -6 19 vhcurveto
            22 -95 rlineto
            42 hlineto
            10 134 rlineto
            18 -53 -57 9 -56 hhcurveto
            -130 -73 -65 -109 return
          </CharString>
          <CharString index="69">
            37 hlineto
            40 callgsubr
            -504 hlineto
            39 callsubr
            return
          </CharString>
          <CharString index="70">
            rmoveto
            -78 -35 78 113 123 43 78 84 39 35 -11 -18 28 hvcurveto
            -325 vlineto
            -15 -22 -46 -23 -48 hhcurveto
            return
          </CharString>
          <CharString index="71">
            722 rmoveto
            37 -31 30 -35 -36 -32 -30 -37 -37 32 -27 36 35 -14 callsubr
            vhcurveto
            return
          </CharString>
          <CharString index="72">
            -39 callsubr
            -91 47 -47 56 -22 hvcurveto
            106 -74 callgsubr
            return
          </CharString>
          <CharString index="73">
            -104 callgsubr
            183 -310 -100 callsubr
            endchar
          </CharString>
          <CharString index="74">
            -82 callgsubr
            87 -10 rlineto
            -591 83 callgsubr
            return
          </CharString>
          <CharString index="75">
            646 rmoveto
            116 140 rlineto
            18 -80 vlineto
            -60 -141 rlineto
            return
          </CharString>
          <CharString index="76">
            -10 rlineto
            -314 vlineto
            -60 return
          </CharString>
          <CharString index="77">
            12 callsubr
            3 -581 -26 callsubr
          </CharString>
          <CharString index="78">
            24 callsubr
            -45 -11 -10 2 4 -12 hvcurveto
            -8 -29 rlineto
            -7 17 18 -2 18 hhcurveto
            return
          </CharString>
          <CharString index="79">
            76 callgsubr
            -66 hlineto
            -227 -644 rlineto
            return
          </CharString>
          <CharString index="80">
            -12 callgsubr
            -86 return
          </CharString>
          <CharString index="81">
            rmoveto
            -157 -32 152 111 109 28 154 152 158 32 -154 -109 -62 callsubr
            hvcurveto
            endchar
          </CharString>
          <CharString index="82">
            -72 20 -182 225 128 154 95 20 rlineto
            35 -257 -35 vlineto
            80 -19 -145 -179 163 -203 -44 -17 rlineto
            return
          </CharString>
          <CharString index="83">
            -37 -3 callsubr
            return
          </CharString>
          <CharString index="84">
            -320 rlineto
            -176 vlineto
            -100 -21 rlineto
            return
          </CharString>
          <CharString index="85">
            rmoveto
            -47 callgsubr
            -37 39 callgsubr
            vlineto
            endchar
          </CharString>
          <CharString index="86">
            rmoveto
            298 37 hlineto
            42 callsubr
            72 22 rlineto
            36 -210 -37 vlineto
            71 -20 -121 -244 -120 243 62 -10 callgsubr
            -243 -37 vlineto
            68 -21 163 -23 callsubr
            endchar
          </CharString>
          <CharString index="87">
            640 -100 callsubr
            return
          </CharString>
          <CharString index="88">
            73 50 16 32 52 return
          </CharString>
          <CharString index="89">
            33 0 callgsubr
            return
          </CharString>
          <CharString index="90">
            rmoveto
            -235 hlineto
            -18 -190 18 -17 rlineto
            112 59 -21 -73 -55 -42 -34 -57 -23 -30 4 19 55 callsubr
            55 81 57 -23 77 -189 5 hvcurveto
            10 114 rlineto
            179 hlineto
            return
          </CharString>
          <CharString index="91">
            648 rmoveto
            68 hlineto
            103 132 -20 20 -116 -80 -119 80 -20 -20 rlineto
            return
          </CharString>
          <CharString index="92">
            -140 217 653 rmoveto
            -130 -51 -85 -107 -103 51 -88 130 130 49 88 103 107 -48 85 -131 hvcurveto
            89 -190 rmoveto
            -85 -14 -63 -73 -75 -16 63 85 84 15 63 72 74 17 -63 -84 vhcurveto
            endchar
          </CharString>
          <CharString index="93">
            31 27 37 return
          </CharString>
          <CharString index="94">
            61 callgsubr
            -138 62 -115 158 hvcurveto
            endchar
          </CharString>
          <CharString index="95">
            31 callsubr
            vhcurveto
            return
          </CharString>
          <CharString index="96">
            -81 22 -198 281 193 215 70 21 rlineto
            36 -204 -37 vlineto
            62 -18 -204 -226 rlineto
            223 vlineto
            83 -10 callgsubr
            -270 -37 vlineto
            88 -77 callsubr
            -88 -21 rlineto
            return
          </CharString>
          <CharString index="97">
            -52 9 612 rmoveto
            35 callsubr
            298 37 vlineto
            40 callgsubr
            return
          </CharString>
          <CharString index="98">
            558 rmoveto
            219 105 rlineto
            19 vlineto
            -83 32 -155 -132 rlineto
            return
          </CharString>
          <CharString index="99">
            -31 11 callgsubr
            return
          </CharString>
          <CharString index="100">
            rlineto
            361 vlineto
            9 return
          </CharString>
          <CharString index="101">
            721 -1 callsubr
          </CharString>
          <CharString index="102">
            vlineto
            -153 -85 callgsubr
            return
          </CharString>
          <CharString index="103">
            -18 callsubr
            435 return
          </CharString>
          <CharString index="104">
            vlineto
            88 -21 rlineto
            return
          </CharString>
          <CharString index="105">
            62 callsubr
            -78 39 -38 hhcurveto
            -33 -25 -43 -54 -20 54 callsubr
            32 23 43 53 22 hvcurveto
            return
          </CharString>
          <CharString index="106">
            -96 callsubr
            endchar
          </CharString>
          <CharString index="107">
            30 26 34 vhcurveto
            return
          </CharString>
          <CharString index="108">
            -123 rlineto
            return
          </CharString>
          <CharString index="109">
            640 -42 callsubr
            return
          </CharString>
          <CharString index="110">
            rmoveto
            37 -26 26 -37 -35 -27 -26 -37 -35 27 -28 35 37 26 28 35 vhcurveto
            endchar
          </CharString>
          <CharString index="111">
            -45 callgsubr
            -78 return
          </CharString>
          <CharString index="112">
            -28 callgsubr
            endchar
          </CharString>
          <CharString index="113">
            -200 568 -64 -13 -187 -555 -72 -21 rlineto
            -36 208 37 vlineto
            return
          </CharString>
          <CharString index="114">
            29 -32 45 -26 vhcurveto
            -62 -32 -22 -40 return
          </CharString>
          <CharString index="115">
            752 18 callsubr
            return
          </CharString>
          <CharString index="116">
            -20 27 hmoveto
            508 38 hlineto
            -224 573 rlineto
            -57 hlineto
            -144 -561 rmoveto
            158 439 153 -419 rlineto
            -20 vlineto
            endchar
          </CharString>
          <CharString index="117">
            rmoveto
            45 hlineto
            16 53 rlineto
            170 hlineto
            -173 -378 86 -8 163 return
          </CharString>
          <CharString index="118">
            rmoveto
            -40 callsubr
            170 81 102 127 hvcurveto
            492 52 callsubr
            return
          </CharString>
          <CharString index="119">
            rmoveto
            -211 -82 -144 -174 -174 85 -144 208 209 82 144 174 -52 callgsubr
            hvcurveto
            return
          </CharString>
          <CharString index="120">
            33 callsubr
            -154 -130 rlineto
            return
          </CharString>
          <CharString index="121">
            16 -15 callgsubr
            return
          </CharString>
          <CharString index="122">
            22 callsubr
            56 81 57 -23 77 -189 4 hvcurveto
            10 113 rlineto
            179 hlineto
            endchar
          </CharString>
          <CharString index="123">
            -57 callgsubr
            endchar
          </CharString>
          <CharString index="124">
            38 26 36 hhcurveto
            49 12 -40 -50 -52 -26 -38 -58 -52 -17 55 return
          </CharString>
          <CharString index="125">
            rmoveto
            -61 225 61 vlineto
            return
          </CharString>
          <CharString index="126">
            558 rmoveto
            17 24 -154 132 -83 -32 -1 -19 rlineto
            return
          </CharString>
          <CharString index="127">
            rmoveto
            169 -73 56 -91 -91 -75 -58 -167 -167 75 -59 91 91 73 57 169 vhcurveto
            -163 return
          </CharString>
          <CharString index="128">
            rmoveto
            -105 -27 87 115 115 26 86 100 105 27 -86 -115 -44 callgsubr
            hvcurveto
            endchar
          </CharString>
          <CharString index="129">
            rlineto
            -15 38 49 -11 47 hhcurveto
            108 57 return
          </CharString>
          <CharString index="130">
            -23 callsubr
            -37 return
          </CharString>
          <CharString index="131">
            19 -21 -24 -32 -28 -29 return
          </CharString>
          <CharString index="132">
            518 rmoveto
            29 hlineto
            32 198 -60 19 rlineto
            -33 hlineto
            return
          </CharString>
          <CharString index="133">
            431 hlineto
            -196 -29 rlineto
            return
          </CharString>
          <CharString index="134">
            rmoveto
            148 82 callsubr
            -80 vlineto
            return
          </CharString>
          <CharString index="135">
            85 -20 rlineto
            -316 vlineto
            return
          </CharString>
          <CharString index="136">
            276 37 hlineto
            return
          </CharString>
          <CharString index="137">
            554 rmoveto
            25 22 -102 56 callgsubr
            return
          </CharString>
          <CharString index="138">
            33 29 26 34 return
          </CharString>
          <CharString index="139">
            rmoveto
            -50 81 callgsubr
            24 -53 26 vhcurveto
            77 34 14 return
          </CharString>
          <CharString index="140">
            645 rmoveto
            218 105 rlineto
            19 vlineto
            -83 30 return
          </CharString>
          <CharString index="141">
            -21 rlineto
            -37 276 37 vlineto
            return
          </CharString>
          <CharString index="142">
            39 callsubr
            -37 return
          </CharString>
          <CharString index="143">
            668 rmoveto
            -60 225 60 vlineto
            return
          </CharString>
          <CharString index="144">
            -8 18 rlineto
            -89 hlineto
            -96 return
          </CharString>
          <CharString index="145">
            vlineto
            -26 -92 rlineto
            return
          </CharString>
          <CharString index="146">
            8 -146 rlineto
            42 hlineto
            19 89 rlineto
            134 -497 hlineto
            -100 -21 rlineto
            return
          </CharString>
          <CharString index="147">
            -71 callgsubr
            -19 -20 rlineto
            return
          </CharString>
          <CharString index="148">
            rmoveto
            -235 -9 -18 -190 18 -18 rlineto
            112 59 -21 -72 -55 -42 return
          </CharString>
          <CharString index="149">
            -100 -23 callgsubr
            return
          </CharString>
          <CharString index="150">
            29 26 34 vhcurveto
            206 hmoveto
            35 -30 28 return
          </CharString>
          <CharString index="151">
            15 14 21 hvcurveto
            -2 return
          </CharString>
          <CharString index="152">
            72 callgsubr
            -154 -132 rlineto
            return
          </CharString>
          <CharString index="153">
            -4 25 hvcurveto
            5 40 rlineto
            6 -24 -24 3 -22 hhcurveto
            -85 -136 -61 return
          </CharString>
          <CharString index="154">
            rlineto
            40 hlineto
            19 return
          </CharString>
          <CharString index="155">
            582 rmoveto
            -153 132 -83 -32 -2 -19 221 -105 rlineto
            return
          </CharString>
          <CharString index="156">
            12 -10 -36 hvcurveto
            -227 vlineto
            -51 -19 rlineto
            -30 198 30 vlineto
            return
          </CharString>
          <CharString index="157">
            -12 rlineto
            51 24 callsubr
            return
          </CharString>
          <CharString index="158">
            rlineto
            37 -274 -37 vlineto
            88 return
          </CharString>
          <CharString index="159">
            vlineto
            88 -10 callgsubr
            return
          </CharString>
          <CharString index="160">
            76 callgsubr
            -65 hlineto
            -227 -644 rlineto
            return
          </CharString>
          <CharString index="161">
            -59 callsubr
            35 34 callgsubr
            return
          </CharString>
          <CharString index="162">
            -50 hvcurveto
            -10 -44 22 callsubr
            return
          </CharString>
          <CharString index="163">
            -119 rmoveto
            84 212 -17 21 -82 -20 -15 -206 rlineto
            return
          </CharString>
          <CharString index="164">
            rmoveto
            -86 -216 18 -20 84 19 15 211 rlineto
            endchar
          </CharString>
          <CharString index="165">
            56 169 vhcurveto
            -7 -402 rmoveto
            223 612 rlineto
            return
          </CharString>
          <CharString index="166">
            -18 -78 -210 vvcurveto
            -212 18 -76 143 -41 vhcurveto
            return
          </CharString>
          <CharString index="167">
            12 -36 rlineto
            203 hlineto
            -136 return
          </CharString>
          <CharString index="168">
            -42 hlineto
            -19 -66 rlineto
            return
          </CharString>
          <CharString index="169">
            763 -45 callgsubr
            return
          </CharString>
          <CharString index="170">
            hlineto
            -22 -9 18 14 13 8 44 callsubr
            return
          </CharString>
          <CharString index="171">
            rmoveto
            -130 0 -127 -100 -44 vhcurveto
            10 -28 rlineto
            return
          </CharString>
          <CharString index="172">
            17 rlineto
            -13 -15 -18 -9 -20 hhcurveto
            -32 -19 19 36 return
          </CharString>
          <CharString index="173">
            hhcurveto
            -49 hlineto
            -6 -36 rlineto
            -18 33 32 -7 25 hhcurveto
            return
          </CharString>
          <CharString index="174">
            35 -30 -65 callsubr
            return
          </CharString>
          <CharString index="175">
            393 60 -393 hlineto
            endchar
          </CharString>
          <CharString index="176">
            -115 -143 -138 return
          </CharString>
          <CharString index="177">
            44 53 22 hvcurveto
            return
          </CharString>
          <CharString index="178">
            -4 26 hhcurveto
            144 76 100 143 151 return
          </CharString>
          <CharString index="179">
            -83 21 rlineto
            236 vlineto
            206 -294 rlineto
            return
          </CharString>
          <CharString index="180">
            631 rmoveto
            70 35 41 54 52 -35 43 -70 return
          </CharString>
          <CharString index="181">
            vlineto
            -163 -27 rlineto
            -38 403 vlineto
            endchar
          </CharString>
          <CharString index="182">
            130 -83 -30 -1 -19 rlineto
            return
          </CharString>
          <CharString index="183">
            -50 hvcurveto
            -10 -43 rlineto
            return
          </CharString>
          <CharString index="184">
            vlineto
            -88 -21 rlineto
            return
          </CharString>
          <CharString index="185">
            39 -39 hhcurveto
            -33 return
          </CharString>
          <CharString index="186">
            -297 -111 298 53 23 rlineto
            32 return
          </CharString>
          <CharString index="187">
            -39 -27 80 -152 -80 -151 39 -26 return
          </CharString>
          <CharString index="188">
            77 10 rlineto
            555 vlineto
            82 -6 callgsubr
            return
          </CharString>
          <CharString index="189">
            156 rlineto
            18 return
          </CharString>
          <CharString index="190">
            577 rmoveto
            95 return
          </CharString>
        <CharString name=".notdef">
          -369 endchar
        </CharString>
        <CharString name="A">
          21 134 57 -101 callsubr
        </CharString>
        <CharString name="AE">
          152 -26 hmoveto
          -46 callgsubr
        </CharString>
        <CharString name="AEacute">
          152 319 645 -80 callgsubr
          -325 -669 rmoveto
          -46 callgsubr
        </CharString>
        <CharString name="Aacute">
          21 213 645 -80 callgsubr
          -59 -612 -101 callsubr
        </CharString>
        <CharString name="Abreve">
          21 292 661 rmoveto
          96 21 60 callgsubr
          -32 -66 -62 -13 32 30 vhcurveto
          -41 -2 rlineto
          -62 23 -58 96 vhcurveto
          -158 -68 callgsubr
          endchar
        </CharString>
        <CharString name="Acircumflex">
          21 404 3 callgsubr
          -150 -671 -101 callsubr
        </CharString>
        <CharString name="Adieresis">
          21 248 721 rmoveto
          67 callgsubr
          33 29 26 34 vhcurveto
          206 hmoveto
          63 callgsubr
          32 0 callsubr
          -320 -664 -101 callsubr
        </CharString>
        <CharString name="Agrave">
          21 365 644 -27 callgsubr
          -10 -692 -101 callsubr
        </CharString>
        <CharString name="Amacron">
          21 177 8 callsubr
          -268 -695 -101 callsubr
        </CharString>
        <CharString name="Aogonek">
          21 -3 hmoveto
          211 37 hlineto
          -70 21 31 94 rlineto
          214 hlineto
          27 -76 rlineto
          2 -7 2 -8 -7 -45 -122 -53 -106 vvcurveto
          -41 26 -44 69 68 31 54 0 vhcurveto
          -18 17 rlineto
          -15 -17 -18 -7 -19 hhcurveto
          -30 -21 21 43 53 45 69 66 hvcurveto
          123 37 hlineto
          -72 20 -203 568 -66 -13 -187 -554 -72 -22 rlineto
          276 432 rmoveto
          94 -267 rlineto
          -183 hlineto
          endchar
        </CharString>
        <CharString name="Aring">
          21 287 73 callsubr
          -68 -36 -43 -52 -54 36 -41 68 31 callgsubr
          -290 -670 rmoveto
          208 37 hlineto
          6 callgsubr
          -72 20 -200 568 -64 -13 -187 -555 -72 -21 rlineto
          184 165 rmoveto
          91 270 95 -270 rlineto
          endchar
        </CharString>
        <CharString name="Aringacute">
          21 256 826 -80 callgsubr
          61 -219 -53 callsubr
          -163 -613 -101 callsubr
        </CharString>
        <CharString name="Atilde">
          21 446 -2 callsubr
          -312 -706 -101 callsubr
        </CharString>
        <CharString name="B">
          -4 360 323 rmoveto
          85 16 51 48 78 vvcurveto
          84 -57 63 -152 vhcurveto
          -250 -37 hlineto
          -73 callgsubr
          -37 251 vlineto
          146 81 69 100 78 -47 56 -108 20 hvcurveto
          -94 18 rmoveto
          -41 214 hlineto
          3 14 21 5 23 hhcurveto
          62 50 -32 -73 -85 -55 -32 -74 hvcurveto
          -41 -286 rmoveto
          241 36 vlineto
          93 57 -39 -83 -92 -59 -34 -71 -18 -21 2 5 -17 hvcurveto
          endchar
        </CharString>
        <CharString name="C">
          -22 507 22 rmoveto
          -90 callgsubr
          -175 82 -145 206 52 callgsubr
          endchar
        </CharString>
        <CharString name="Cacute">
          -40 230 13 callsubr
          296 -647 rmoveto
          -90 callgsubr
          -175 82 -145 206 52 callgsubr
          endchar
        </CharString>
        <CharString name="Cacute.loclPLK">
          -22 316 -32 callsubr
          215 -641 rmoveto
          -90 callgsubr
          -175 82 -145 206 52 callgsubr
          endchar
        </CharString>
        <CharString name="Ccaron">
          -40 281 648 -71 callgsubr
          -20 -20 rlineto
          150 -790 rmoveto
          52 callgsubr
          -90 callgsubr
          -175 82 -145 206 hvcurveto
          endchar
        </CharString>
        <CharString name="Ccedilla">
          -40 324 -10 rmoveto
          78 50 12 20 55 hvcurveto
          -90 callgsubr
          -165 72 -137 179 -16 hvcurveto
          -21 -61 22 callgsubr
          -44 -12 54 callgsubr
          72 64 46 56 38 -33 33 -72 hvcurveto
          11 36 rlineto
          endchar
        </CharString>
        <CharString name="Ccircumflex">
          -22 440 648 -92 callgsubr
          187 -706 rmoveto
          -90 callgsubr
          -175 82 -145 206 52 callgsubr
          endchar
        </CharString>
        <CharString name="Cdotaccent">
          -22 389 -36 callsubr
          118 -700 rmoveto
          -90 callgsubr
          -175 82 -145 206 52 callgsubr
          endchar
        </CharString>
        <CharString name="D">
          71 303 612 -76 callgsubr
          endchar
        </CharString>
        <CharString name="Dcaron">
          65 278 -16 callsubr
          -137 -780 rmoveto
          62 callgsubr
          -84 119 -219 hvcurveto
          -25 callgsubr
          293 9 rmoveto
          -36 -45 7 8 -24 hvcurveto
          493 vlineto
          3 15 25 3 31 hhcurveto
          130 74 -97 -144 -120 -26 -153 -144 hvcurveto
          endchar
        </CharString>
        <CharString name="Dcroat">
          -40 callgsubr
        </CharString>
        <CharString name="E">
          -29 381 391 -101 callgsubr
          endchar
        </CharString>
        <CharString name="Eacute">
          -29 207 645 -80 callgsubr
          -149 -669 rmoveto
          466 -70 callsubr
          endchar
        </CharString>
        <CharString name="Ebreve">
          -29 272 -63 callsubr
          109 -270 -101 callgsubr
          endchar
        </CharString>
        <CharString name="Ecaron">
          -29 257 -16 callsubr
          -115 -780 rmoveto
          466 -70 callsubr
          endchar
        </CharString>
        <CharString name="Ecircumflex">
          -29 399 3 callgsubr
          102 -337 -101 callgsubr
          endchar
        </CharString>
        <CharString name="Edieresis">
          -29 242 721 rmoveto
          67 callsubr
          33 0 callsubr
          206 hmoveto
          35 -31 -64 callgsubr
          32 31 26 34 vhcurveto
          -67 -330 -101 callgsubr
          endchar
        </CharString>
        <CharString name="Edotaccent">
          -29 362 722 rmoveto
          37 -31 30 -36 -36 -32 -30 -37 -37 32 -27 36 36 -14 callsubr
          vhcurveto
          19 -331 -101 callgsubr
          endchar
        </CharString>
        <CharString name="Egrave">
          -29 383 645 rmoveto
          16 24 -153 75 callsubr
          -124 -750 rmoveto
          466 -70 callsubr
          endchar
        </CharString>
        <CharString name="Emacron">
          -29 172 8 callsubr
          -16 -361 -101 callgsubr
          endchar
        </CharString>
        <CharString name="Eng">
          127 464 -167 rmoveto
          -3 callgsubr
          498 vlineto
          83 -6 callgsubr
          -229 -19 callgsubr
          -497 vlineto
          -81 -21 rlineto
          -37 228 37 vlineto
          -85 21 rlineto
          420 vlineto
          317 -456 rlineto
          -42 vlineto
          -37 -17 -50 -53 vhcurveto
          -46 hlineto
          -5 -35 rlineto
          -18 35 36 -7 18 hhcurveto
          endchar
        </CharString>
        <CharString name="Eogonek">
          -29 425 -235 rmoveto
          68 31 54 0 hvcurveto
          -18 17 rlineto
          -15 -17 -19 -7 -18 hhcurveto
          -33 -18 21 34 55 35 53 23 23 hvcurveto
          45 -70 callsubr
          -37 383 vlineto
          -65 -52 -27 -57 -41 vvcurveto
          -42 25 -43 71 vhcurveto
          endchar
        </CharString>
        <CharString name="Eth">
          -40 callgsubr
        </CharString>
        <CharString name="Euro">
          -60 205 308 rmoveto
          22 190 vlineto
          9 47 rlineto
          -196 hlineto
          156 13 58 30 73 hhcurveto
          27 17 -3 -6 19 hvcurveto
          22 -82 rlineto
          36 hlineto
          15 120 rlineto
          16 -45 -52 12 -56 hhcurveto
          -100 -105 -42 -201 -20 hvcurveto
          -74 hlineto
          -8 -47 rlineto
          79 -21 hlineto
          -16 0 -17 1 -13 vhcurveto
          -72 hlineto
          -8 -48 rlineto
          83 hlineto
          -191 25 106 -30 110 hhcurveto
          53 40 8 17 39 hvcurveto
          -9 45 rlineto
          -8 -35 -32 -5 -28 hhcurveto
          -116 -40 73 91 -13 hvcurveto
          184 hlineto
          9 48 rlineto
          -198 hlineto
          -1 13 0 17 15 vvcurveto
          endchar
        </CharString>
        <CharString name="F">
          -70 481 612 rmoveto
          -444 -37 hlineto
          92 -77 callsubr
          -92 -21 rlineto
          -37 303 39 vlineto
          -111 21 rlineto
          206 130 vlineto
          22 -69 rlineto
          42 184 61 callsubr
          -133 240 186 hlineto
          21 -79 rlineto
          45 hlineto
          endchar
        </CharString>
        <CharString name="G">
          33 449 560 -96 callgsubr
        </CharString>
        <CharString name="G_tilde.loclGUA">
          20 483 -2 callgsubr
          -34 -224 -96 callgsubr
        </CharString>
        <CharString name="Gbreve">
          20 322 661 rmoveto
          95 24 60 callgsubr
          -32 -65 -63 -13 32 30 vhcurveto
          -42 -2 rlineto
          -62 22 -58 96 vhcurveto
          127 -101 -96 callgsubr
        </CharString>
        <CharString name="Gcaron">
          33 270 648 40 callsubr
          283 -220 -96 callgsubr
        </CharString>
        <CharString name="Gcircumflex">
          33 421 648 -92 callgsubr
          148 -168 -96 callgsubr
        </CharString>
        <CharString name="Gcommaaccent">
          20 341 -10 rmoveto
          74 66 15 27 46 hvcurveto
          199 vlineto
          67 19 rlineto
          38 -254 -24 callsubr
          -169 vlineto
          -13 -28 -28 -3 -30 hhcurveto
          -160 -38 146 119 111 35 151 171 39 36 -5 -7 24 hvcurveto
          24 -97 rlineto
          43 hlineto
          14 135 rlineto
          19 -45 -78 11 -57 hhcurveto
          -229 -83 -144 -174 -173 77 -147 226 hvcurveto
          -67 -213 rmoveto
          37 -3 69 -14 callgsubr
        </CharString>
        <CharString name="Gdotaccent">
          33 370 -36 callsubr
          79 -162 -96 callgsubr
        </CharString>
        <CharString name="H">
          154 38 hmoveto
          -60 callgsubr
          endchar
        </CharString>
        <CharString name="Hbar">
          154 602 58 rmoveto
          334 85 49 -85 114 vlineto
          88 -6 callgsubr
          -275 -37 vlineto
          88 -20 rlineto
          -114 -278 114 vlineto
          87 20 51 callsubr
          -20 rlineto
          -114 -85 -49 85 -334 77 callsubr
          -37 274 37 0 callgsubr
          191 278 -191 vlineto
          -88 34 callsubr
          -466 264 rmoveto
          91 278 -91 vlineto
          endchar
        </CharString>
        <CharString name="Hcircumflex">
          154 482 648 -92 callgsubr
          -324 -728 rmoveto
          -60 callgsubr
          endchar
        </CharString>
        <CharString name="I">
          -223 37 hmoveto
          -92 callsubr
          endchar
        </CharString>
        <CharString name="IJ">
          81 37 hmoveto
          -92 callsubr
          370 -186 -79 callsubr
        </CharString>
        <CharString name="Iacute">
          -223 77 -8 callgsubr
          -21 -669 rmoveto
          -92 callsubr
          endchar
        </CharString>
        <CharString name="Iacute_J.loclNLD">
          81 133 645 -80 callgsubr
          343 -24 -80 callgsubr
          -399 -669 rmoveto
          -92 callsubr
          370 -186 -79 callsubr
        </CharString>
        <CharString name="Ibreve">
          -223 176 -63 callsubr
          -139 -661 rmoveto
          -92 callsubr
          endchar
        </CharString>
        <CharString name="Icircumflex">
          -223 57 648 rmoveto
          115 80 120 -80 4 callgsubr
          rlineto
          -668 vmoveto
          -92 callsubr
          endchar
        </CharString>
        <CharString name="Idieresis">
          -223 73 661 rmoveto
          33 30 26 34 67 callsubr
          hvcurveto
          206 hmoveto
          32 31 26 34 35 -31 -64 callgsubr
          hvcurveto
          -242 -661 rmoveto
          -92 callsubr
          endchar
        </CharString>
        <CharString name="Idotaccent">
          -223 175 658 rmoveto
          35 32 27 37 37 -32 30 -35 -36 -32 -30 -37 -37 32 -27 36 hvcurveto
          -138 -658 rmoveto
          -92 callsubr
          endchar
        </CharString>
        <CharString name="Igrave">
          -223 276 57 callgsubr
          -18 -750 rmoveto
          -92 callsubr
          endchar
        </CharString>
        <CharString name="Imacron">
          -223 62 691 rmoveto
          225 61 -225 hlineto
          -25 -752 rmoveto
          -92 callsubr
          endchar
        </CharString>
        <CharString name="Iogonek">
          -223 218 -235 rmoveto
          63 31 46 8 5 hvcurveto
          -19 65 callsubr
          49 29 59 90 23 hvcurveto
          37 vlineto
          -88 29 callgsubr
          vlineto
          88 21 rlineto
          -78 callsubr
          -37 192 vlineto
          -65 -36 -43 -57 -57 vvcurveto
          -43 27 -42 70 vhcurveto
          endchar
        </CharString>
        <CharString name="Itilde">
          -223 248 687 rmoveto
          33 23 44 53 21 hvcurveto
          79 callgsubr
          78 callsubr
          -24 -43 -54 -21 hvcurveto
          36 -14 rlineto
          0 20 34 23 vhcurveto
          35 79 -39 38 hhcurveto
          -211 -687 rmoveto
          -92 callsubr
          endchar
        </CharString>
        <CharString name="J">
          -263 63 -149 -79 callsubr
        </CharString>
        <CharString name="Jcircumflex">
          -263 273 648 -92 callgsubr
          -90 -877 -79 callsubr
        </CharString>
        <CharString name="K">
          14 586 hmoveto
          37 vlineto
          -11 callsubr
          -37 270 37 vlineto
          72 callsubr
          endchar
        </CharString>
        <CharString name="Kcommaaccent">
          14 37 hmoveto
          270 37 hlineto
          72 callsubr
          156 37 hlineto
          -11 callsubr
          235 -260 rmoveto
          36 -3 70 -14 callgsubr
        </CharString>
        <CharString name="L">
          -91 472 hmoveto
          152 -43 vlineto
          -66 callsubr
          -37 vlineto
          endchar
        </CharString>
        <CharString name="Lacute">
          -91 108 -8 callgsubr
          383 -669 rmoveto
          152 -43 vlineto
          -66 callsubr
          -37 vlineto
          endchar
        </CharString>
        <CharString name="Lcaron">
          -91 139 648 -71 callgsubr
          -20 -20 rlineto
          3 -780 rmoveto
          435 152 -43 hlineto
          -66 callsubr
          endchar
        </CharString>
        <CharString name="Lcommaaccent">
          -91 37 hmoveto
          435 152 -43 hlineto
          -66 callsubr
          186 -260 rmoveto
          37 -3 69 -14 callgsubr
        </CharString>
        <CharString name="Ldot">
          -91 472 hmoveto
          152 -43 vlineto
          -66 callsubr
          -37 vlineto
          434 428 3 callsubr
        </CharString>
        <CharString name="Lslash">
          -91 37 hmoveto
          435 152 -43 hlineto
          -26 -92 rlineto
          -179 246 hlineto
          121 69 -26 44 -95 -54 rlineto
          189 vlineto
          89 -10 callgsubr
          -276 -24 callsubr
          -247 vlineto
          -91 -53 25 -43 66 38 rlineto
          -191 77 callsubr
          endchar
        </CharString>
        <CharString name="M">
          227 250 hmoveto
          37 vlineto
          -88 21 15 429 178 -497 57 10 168 486 16 -428 -88 -21 rlineto
          -37 273 37 vlineto
          -90 21 -20 496 89 -10 callgsubr
          -199 vlineto
          -161 -483 -169 483 rlineto
          -192 -37 hlineto
          81 -20 -17 -497 -82 -21 rlineto
          -37 vlineto
          endchar
        </CharString>
        <CharString name="N">
          127 449 612 -81 callsubr
          endchar
        </CharString>
        <CharString name="Nacute">
          129 276 645 -80 callgsubr
          192 -57 rmoveto
          -53 callgsubr
          340 -488 81 callsubr
          vlineto
          endchar
        </CharString>
        <CharString name="Nacute.loclPLK">
          127 344 -32 callsubr
          129 -51 -81 callsubr
          endchar
        </CharString>
        <CharString name="Ncaron">
          129 325 648 -71 callgsubr
          -20 -20 rlineto
          297 -790 rmoveto
          81 callsubr
          -228 -53 callgsubr
          endchar
        </CharString>
        <CharString name="Ncommaaccent">
          129 517 -10 rmoveto
          81 callsubr
          -228 -53 callgsubr
          133 -701 rmoveto
          37 -3 69 -14 callgsubr
        </CharString>
        <CharString name="Ntilde">
          129 515 763 -13 callgsubr
          35 23 vhcurveto
          -54 callgsubr
          -67 -151 rmoveto
          -53 callgsubr
          340 -488 81 callsubr
          vlineto
          endchar
        </CharString>
        <CharString name="O">
          87 331 627 rmoveto
          -105 callgsubr
          endchar
        </CharString>
        <CharString name="OE">
          244 761 612 rmoveto
          -433 hlineto
          -208 -82 -129 -174 -174 84 -135 206 hvcurveto
          457 152 -44 hlineto
          -27 -92 rlineto
          -201 216 127 hlineto
          22 -69 rlineto
          41 184 -41 hlineto
          -20 -66 rlineto
          -129 230 182 hlineto
          22 -79 rlineto
          44 hlineto
          -346 78 rmoveto
          -496 vlineto
          -7 -25 -29 -3 -30 hhcurveto
          -155 -33 149 112 110 29 145 150 39 19 -3 -7 35 hvcurveto
          endchar
        </CharString>
        <CharString name="Oacute">
          87 287 645 -80 callgsubr
          64 -42 rmoveto
          -105 callgsubr
          endchar
        </CharString>
        <CharString name="Oacute.loclPLK">
          87 324 -32 callsubr
          31 -36 rmoveto
          -105 callgsubr
          endchar
        </CharString>
        <CharString name="Obreve">
          87 330 -63 callsubr
          1 -34 rmoveto
          -105 callgsubr
          endchar
        </CharString>
        <CharString name="Ocircumflex">
          87 448 3 callgsubr
          3 -101 rmoveto
          -105 callgsubr
          endchar
        </CharString>
        <CharString name="Odieresis">
          87 290 722 rmoveto
          35 -29 27 -33 -34 -30 -27 -35 -34 30 -26 34 -12 callsubr
          206 hmoveto
          35 -30 27 -33 -33 -30 -27 -35 -34 30 -26 33 33 0 callsubr
          -165 -95 rmoveto
          -105 callgsubr
          endchar
        </CharString>
        <CharString name="Ograve">
          87 420 57 callgsubr
          132 -123 rmoveto
          -105 callgsubr
          endchar
        </CharString>
        <CharString name="Ohorn">
          87 672 647 -97 callsubr
          endchar
        </CharString>
        <CharString name="Ohungarumlaut">
          87 220 -45 callsubr
          -25 -672 rmoveto
          209 82 144 174 -52 callgsubr
          -211 -82 -144 -174 -174 85 -144 208 hvcurveto
          3 55 -26 callsubr
        </CharString>
        <CharString name="Omacron">
          87 217 8 callsubr
          -111 -125 rmoveto
          -105 callgsubr
          endchar
        </CharString>
        <CharString name="Oslash">
          87 153 -95 -55 callsubr
        </CharString>
        <CharString name="Oslashacute">
          87 231 645 -80 callgsubr
          -58 -764 -55 callsubr
        </CharString>
        <CharString name="Otilde">
          87 484 -2 callsubr
          -153 -136 rmoveto
          -105 callgsubr
          endchar
        </CharString>
        <CharString name="P">
          -43 284 612 rmoveto
          -246 -38 hlineto
          89 -22 rlineto
          -494 vlineto
          -89 -21 rlineto
          -37 293 38 vlineto
          -105 20 rlineto
          197 vlineto
          -5 22 32 -3 19 hhcurveto
          109 101 61 132 115 -97 57 -128 hvcurveto
          -58 -315 rmoveto
          258 vlineto
          5 18 24 3 19 hhcurveto
          68 48 -42 -89 -98 -54 -44 -73 -18 -17 1 6 -15 hvcurveto
          endchar
        </CharString>
        <CharString name="Q">
          86 681 -125 rmoveto
          -3 31 rlineto
          -77 hlineto
          -26 -95 44 48 -101 hvcurveto
          165 22 78 127 162 vvcurveto
          -52 callgsubr
          -211 -82 -144 -174 -151 77 -127 150 -31 vhcurveto
          173 -105 rlineto
          -43 71 28 -5 36 hhcurveto
          36 48 16 12 24 hvcurveto
          -537 434 rmoveto
          109 28 154 153 158 33 -154 -109 -109 -32 -152 -150 -154 -36 152 109 vhcurveto
          endchar
        </CharString>
        <CharString name="R">
          -3 434 hmoveto
          -90 callsubr
          endchar
        </CharString>
        <CharString name="Racute">
          -3 199 -8 callgsubr
          254 -669 rmoveto
          -90 callsubr
          endchar
        </CharString>
        <CharString name="Rcaron">
          -3 253 648 rmoveto
          67 hlineto
          103 -52 callsubr
          -20 -20 rlineto
          -109 -780 rmoveto
          -41 callsubr
          endchar
        </CharString>
        <CharString name="Rcommaaccent">
          -3 39 hmoveto
          -41 callsubr
          -7 -543 rmoveto
          36 -3 69 -14 callgsubr
        </CharString>
        <CharString name="S">
          -107 44 453 -87 callsubr
          endchar
        </CharString>
        <CharString name="Sacute">
          -107 156 -8 callgsubr
          -90 -216 rmoveto
          -91 47 -47 56 -22 vhcurveto
          106 -63 callgsubr
          52 70 -10 54 hhcurveto
          149 76 69 109 82 -34 48 -74 29 hvcurveto
          -39 callsubr
          hvcurveto
          endchar
        </CharString>
        <CharString name="Sacute.loclPLK">
          -107 227 -32 callsubr
          -159 -210 -87 callsubr
          endchar
        </CharString>
        <CharString name="Scaron">
          -107 206 -16 callsubr
          107 -790 rmoveto
          150 75 69 109 82 -34 48 -74 29 hvcurveto
          -102 42 rlineto
          -58 23 -33 28 55 vvcurveto
          66 50 30 72 24 41 -4 -6 19 vhcurveto
          22 -95 rlineto
          42 hlineto
          10 134 rlineto
          18 -53 -57 9 -56 hhcurveto
          -130 -73 -65 -109 -91 47 -47 57 -22 hvcurveto
          -61 callgsubr
          endchar
        </CharString>
        <CharString name="Scedilla">
          -107 191 -219 rmoveto
          28 callgsubr
          11 36 rlineto
          135 7 69 67 104 vvcurveto
          82 -34 48 -74 29 vhcurveto
          -35 callsubr
          48 -20 63 -10 50 -1 rlinecurve
          -20 -59 4 -12 rlineto
          52 -29 callsubr
          endchar
        </CharString>
        <CharString name="Scircumflex">
          -107 351 648 -92 callgsubr
          -187 -275 -87 callsubr
          endchar
        </CharString>
        <CharString name="Scommaaccent">
          -107 212 -10 rmoveto
          149 76 69 109 82 -34 48 -74 29 hvcurveto
          -35 callsubr
          rlineto
          -21 52 70 -10 54 hhcurveto
          -31 -213 rmoveto
          36 -3 70 -14 callgsubr
        </CharString>
        <CharString name="T">
          -10 callsubr
          endchar
        </CharString>
        <CharString name="Tbar">
          -52 443 555 rmoveto
          19 -89 rlineto
          45 hlineto
          6 146 rlineto
          -504 hlineto
          8 -146 rlineto
          42 hlineto
          19 89 rlineto
          134 -220 -171 -48 171 -229 hlineto
          -100 -21 rlineto
          -37 298 37 vlineto
          -99 21 rlineto
          229 174 48 -174 220 vlineto
          endchar
        </CharString>
        <CharString name="Tcaron">
          -52 226 -16 callsubr
          -10 -780 rmoveto
          298 -38 callsubr
          endchar
        </CharString>
        <CharString name="Thorn">
          -60 37 hmoveto
          29 callsubr
          -88 21 rlineto
          77 vlineto
          -4 18 28 -2 16 hhcurveto
          107 97 60 128 112 -90 56 -132 hvcurveto
          -44 69 hlineto
          88 21 rlineto
          -78 callsubr
          227 135 rmoveto
          -14 -13 1 3 -12 hvcurveto
          256 vlineto
          2 14 15 3 14 hhcurveto
          72 50 -41 -87 -96 -54 -41 -72 hvcurveto
          endchar
        </CharString>
        <CharString name="U">
          81 561 236 -103 callgsubr
          endchar
        </CharString>
        <CharString name="Uacute">
          81 251 645 -80 callgsubr
          330 -433 -103 callgsubr
          endchar
        </CharString>
        <CharString name="Ubreve">
          81 328 -63 callsubr
          233 -425 -103 callgsubr
          endchar
        </CharString>
        <CharString name="Ucircumflex">
          81 463 648 rmoveto
          20 20 -105 -81 callgsubr
          116 80 rlineto
          218 -492 -103 callgsubr
          endchar
        </CharString>
        <CharString name="Udieresis">
          81 306 721 2 callgsubr
          49 -485 -103 callgsubr
          endchar
        </CharString>
        <CharString name="Ugrave">
          81 402 645 rmoveto
          17 24 -153 75 callsubr
          379 -514 -103 callgsubr
          endchar
        </CharString>
        <CharString name="Uhorn">
          81 693 676 -95 callsubr
          endchar
        </CharString>
        <CharString name="Uhungarumlaut">
          81 236 -45 callsubr
          189 -427 -103 callgsubr
          endchar
        </CharString>
        <CharString name="Umacron">
          81 234 752 rmoveto
          -61 224 61 vlineto
          103 -516 -103 callgsubr
          endchar
        </CharString>
        <CharString name="Uogonek">
          81 366 -235 rmoveto
          68 31 54 0 hvcurveto
          -19 17 rlineto
          -15 -17 -18 -7 -18 hhcurveto
          -33 -18 21 34 53 23 59 63 26 hvcurveto
          113 42 20 118 69 vvcurveto
          319 vlineto
          81 -6 callgsubr
          -229 -102 callsubr
          4 9 1 1 6 vhcurveto
          -54 -40 -27 -52 -50 vvcurveto
          -42 26 -43 71 vhcurveto
          endchar
        </CharString>
        <CharString name="Uring">
          81 350 73 callsubr
          -69 -35 -43 -52 -54 35 -41 69 31 callgsubr
          -19 -680 rmoveto
          -49 callsubr
          hvcurveto
          319 vlineto
          81 -6 callgsubr
          -229 -102 callsubr
          vhcurveto
          endchar
        </CharString>
        <CharString name="Utilde">
          81 502 784 -36 callgsubr
          23 vhcurveto
          34 79 -39 39 hhcurveto
          37 callgsubr
          59 -548 rmoveto
          319 vlineto
          81 -6 callgsubr
          -229 -37 vlineto
          28 callsubr
          -113 -42 -81 -116 -124 -20 99 120 vhcurveto
          290 vlineto
          89 -10 callgsubr
          -277 -42 callgsubr
          -290 vlineto
          -146 33 -128 201 -49 callsubr
          vhcurveto
          endchar
        </CharString>
        <CharString name="V">
          22 271 -10 rmoveto
          67 12 187 552 72 22 rlineto
          36 -209 -37 vlineto
          70 -21 -131 -407 -5 -22 -5 22 -140 408 61 -6 callgsubr
          -236 -37 vlineto
          72 -21 rlineto
          endchar
        </CharString>
        <CharString name="W">
          191 577 612 -82 callsubr
        </CharString>
        <CharString name="Wacute">
          191 552 20 callgsubr
          243 -33 -82 callsubr
        </CharString>
        <CharString name="Wcircumflex">
          191 375 728 rmoveto
          120 -80 19 20 -104 -81 callgsubr
          rlineto
          318 -36 -82 callsubr
        </CharString>
        <CharString name="Wdieresis">
          191 274 661 rmoveto
          31 callsubr
          35 -29 -65 callsubr
          42 callgsubr
          -64 callgsubr
          hvcurveto
          97 -49 -82 callsubr
        </CharString>
        <CharString name="Wgrave">
          191 440 17 callgsubr
          154 -33 -82 callsubr
        </CharString>
        <CharString name="X">
          7 216 37 rmoveto
          -69 20 124 191 124 -192 -60 -18 rlineto
          -38 244 37 vlineto
          -71 19 -165 259 159 240 68 -6 callgsubr
          -213 -38 vlineto
          69 -19 -119 -184 -118 184 62 19 rlineto
          38 -242 -37 vlineto
          67 -20 159 -249 -164 -249 -68 -20 rlineto
          -37 213 vlineto
          endchar
        </CharString>
        <CharString name="Y">
          -4 361 575 rmoveto
          -69 callsubr
          -211 vlineto
          endchar
        </CharString>
        <CharString name="Y.loclGUA">
          96 195 -82 -50 callsubr
        </CharString>
        <CharString name="Yacute">
          -4 214 13 callsubr
          161 -94 -54 callsubr
        </CharString>
        <CharString name="Yacute.loclGUA">
          96 264 645 rmoveto
          219 105 rlineto
          19 vlineto
          -84 30 -154 -130 rlineto
          -44 -751 rmoveto
          -21 82 rlineto
          -39 hlineto
          -17 -123 rlineto
          -30 61 60 -14 77 hhcurveto
          -89 callsubr
          endchar
        </CharString>
        <CharString name="Ycircumflex">
          -4 415 3 callgsubr
          61 -153 -54 callsubr
        </CharString>
        <CharString name="Ycircumflex.loclGUA">
          96 225 648 rmoveto
          116 80 120 -80 20 20 -105 132 rlineto
          -67 hlineto
          -103 -132 rlineto
          116 -835 rmoveto
          -89 callsubr
          -40 callsubr
          endchar
        </CharString>
        <CharString name="Ydieresis">
          -4 196 662 rmoveto
          32 30 26 34 35 -30 27 -32 -34 -30 -27 -35 -34 30 -26 34 42 callgsubr
          27 -32 -34 -30 -27 -35 -34 30 -26 34 hvcurveto
          -265 -662 -21 callsubr
        </CharString>
        <CharString name="Ydieresis.loclGUA">
          96 304 727 rmoveto
          34 -29 28 -33 -34 -30 -28 -34 -35 30 -26 34 33 29 26 35 vhcurveto
          206 hmoveto
          34 -30 28 -32 -34 -30 -28 -34 -35 30 -26 34 32 30 26 35 vhcurveto
          -309 -809 rmoveto
          -21 82 rlineto
          -39 hlineto
          -17 -123 rlineto
          -30 61 60 -14 77 hhcurveto
          -89 callsubr
          endchar
        </CharString>
        <CharString name="Ygrave">
          -4 394 645 rmoveto
          17 24 -152 130 -83 -30 -2 -19 rlineto
          -37 -750 -21 callsubr
        </CharString>
        <CharString name="Ygrave.loclGUA">
          96 426 645 rmoveto
          19 24 -154 75 callsubr
          -6 -832 rmoveto
          -21 82 rlineto
          -39 hlineto
          -17 -123 rlineto
          -30 61 60 -14 77 hhcurveto
          -89 callsubr
          endchar
        </CharString>
        <CharString name="Z">
          -61 473 152 -78 callgsubr
          endchar
        </CharString>
        <CharString name="Zacute">
          -61 180 13 callsubr
          312 -517 -78 callgsubr
          endchar
        </CharString>
        <CharString name="Zacute.loclPLK">
          -61 250 -32 callsubr
          247 -511 -78 callgsubr
          endchar
        </CharString>
        <CharString name="Zcaron">
          -61 242 648 40 callsubr
          -81 -780 rmoveto
          409 hlineto
          10 152 rlineto
          -44 hlineto
          -37 -93 rlineto
          -235 hlineto
          317 521 -5 32 rlineto
          -413 hlineto
          9 -136 rlineto
          45 hlineto
          22 78 rlineto
          225 hlineto
          -321 -521 rlineto
          endchar
        </CharString>
        <CharString name="Zdotaccent">
          -61 336 722 rmoveto
          37 -32 30 -35 -36 -32 -30 -37 -37 32 -27 36 35 32 27 37 vhcurveto
          137 -570 -78 callgsubr
          endchar
        </CharString>
        <CharString name="a">
          -62 232 440 -107 callgsubr
          endchar
        </CharString>
        <CharString name="aacute">
          -62 176 -67 callsubr
          76 -142 -107 callgsubr
          endchar
        </CharString>
        <CharString name="abreve">
          -62 235 83 callsubr
          24 60 callgsubr
          -31 -66 -39 callgsubr
          -3 -137 -107 callgsubr
          endchar
        </CharString>
        <CharString name="acircumflex">
          -62 342 554 rmoveto
          26 22 -103 56 callgsubr
          1 -203 -107 callgsubr
          endchar
        </CharString>
        <CharString name="acute">
          -318 28 -67 callsubr
          endchar
        </CharString>
        <CharString name="acute.case">
          -318 28 645 -80 callgsubr
          endchar
        </CharString>
        <CharString name="acute.loclPLK">
          -318 91 -32 callgsubr
          endchar
        </CharString>
        <CharString name="acute.loclPLK.case">
          -318 95 -32 callsubr
          endchar
        </CharString>
        <CharString name="acutecomb">
          -573 -227 645 -80 callgsubr
          endchar
        </CharString>
        <CharString name="adieresis">
          -62 197 -1 callgsubr
          -172 -199 -107 callgsubr
          endchar
        </CharString>
        <CharString name="ae">
          122 142 -10 -70 callgsubr
        </CharString>
        <CharString name="aeacute">
          122 272 -67 callsubr
          -110 -592 -70 callgsubr
        </CharString>
        <CharString name="agrave">
          -62 322 19 callsubr
          131 -223 -107 callgsubr
          endchar
        </CharString>
        <CharString name="amacron">
          -62 118 36 callsubr
          -111 -228 -107 callgsubr
          endchar
        </CharString>
        <CharString name="ampersand">
          27 402 61 rmoveto
          59 -61 rlineto
          145 35 hlineto
          -73 17 -77 81 22 47 15 53 6 53 65 callgsubr
          -44 -8 -36 -14 -36 rlinecurve
          -49 57 -45 53 -46 58 rrcurveto
          69 42 63 43 86 vvcurveto
          77 -61 39 -82 -62 -97 -24 -111 -43 27 -59 36 -51 vhcurveto
          -66 -36 -64 -53 -102 vvcurveto
          -82 54 -75 126 80 52 25 47 47 vhcurveto
          -205 440 rmoveto
          46 24 27 45 63 8 -46 -33 -54 -40 -34 -48 -28 vhcurveto
          -29 41 -23 41 40 vvcurveto
          54 -453 rmoveto
          -73 -40 37 87 57 17 29 49 35 hvcurveto
          55 -74 67 -70 46 -53 rrcurveto
          -30 -29 -38 -18 -54 hhcurveto
          endchar
        </CharString>
        <CharString name="ampersand.001">
          27 402 63 rmoveto
          59 -63 rlineto
          145 35 hlineto
          -73 17 -77 82 22 48 15 54 6 55 65 callgsubr
          -46 -8 -37 -14 -37 rlinecurve
          -49 58 -45 54 -46 60 rrcurveto
          69 42 63 45 87 vvcurveto
          78 -61 40 -82 -62 -97 -24 -113 -44 27 -60 36 -52 vhcurveto
          -66 -36 -64 -54 -104 vvcurveto
          -84 54 -75 126 80 52 25 49 47 vhcurveto
          -205 446 rmoveto
          47 24 28 45 63 8 -47 -34 -55 -40 -36 -48 -28 vhcurveto
          -29 42 -23 42 41 vvcurveto
          54 -461 rmoveto
          -73 -40 37 89 59 17 29 49 37 hvcurveto
          55 -76 67 -71 46 -54 rrcurveto
          -31 -29 -38 -19 -54 hhcurveto
          endchar
        </CharString>
        <CharString name="aogonek">
          -58 482 -164 rmoveto
          -13 -15 -19 -9 -19 hhcurveto
          -32 -19 19 36 60 35 59 84 24 hvcurveto
          33 vlineto
          -86 21 rlineto
          -100 callgsubr
          62 18 -28 -52 hvcurveto
          -80 vlineto
          -147 -27 rlineto
          -107 -20 -20 -71 -50 vvcurveto
          -65 39 -58 72 62 52 24 37 51 vhcurveto
          -37 8 33 -17 36 hhcurveto
          7 hlineto
          -57 -41 -37 -55 -50 vvcurveto
          -43 28 -42 70 63 31 46 8 5 vhcurveto
          -189 272 rmoveto
          -15 -28 -44 -19 -34 hhcurveto
          -39 -28 19 51 41 19 36 63 12 hvcurveto
          91 16 rlineto
          endchar
        </CharString>
        <CharString name="approxequal">
          -64 82 320 rmoveto
          39 25 23 16 29 58 64 -56 57 hhcurveto
          46 41 34 67 37 hvcurveto
          -38 22 rlineto
          -41 -26 -19 -14 -37 -58 -59 53 -62 hhcurveto
          -44 -39 -28 -70 -34 hvcurveto
          36 -173 rmoveto
          40 25 23 15 29 58 64 -54 57 hhcurveto
          46 41 33 67 37 hvcurveto
          -38 21 rlineto
          -40 -26 -19 -15 -37 -58 -59 55 -62 hhcurveto
          -44 -39 -29 -69 -34 hvcurveto
          endchar
        </CharString>
        <CharString name="aring">
          -62 341 636 -37 callgsubr
          -3 -259 -107 callgsubr
          endchar
        </CharString>
        <CharString name="aringacute">
          -62 211 705 -80 callgsubr
          61 -219 -53 callsubr
          -20 -109 -107 callgsubr
          endchar
        </CharString>
        <CharString name="arrowdown">
          -16 65 321 rmoveto
          213 -292 rlineto
          14 hlineto
          199 292 -31 32 -141 -168 14 310 rlineto
          -97 hlineto
          13 -311 -153 169 rlineto
          endchar
        </CharString>
        <CharString name="arrowleft">
          -16 201 302 rmoveto
          167 141 -31 30 -292 -199 rlineto
          -14 vlineto
          292 -213 31 32 -168 152 311 -12 rlineto
          97 vlineto
          endchar
        </CharString>
        <CharString name="arrowright">
          -16 219 47 rmoveto
          293 213 rlineto
          14 vlineto
          -293 199 -31 -30 167 -141 -310 14 rlineto
          -97 vlineto
          310 12 -167 -152 rlineto
          endchar
        </CharString>
        <CharString name="arrowup">
          -16 491 200 rmoveto
          -212 292 rlineto
          -16 hlineto
          -198 -292 30 -32 142 168 -14 -310 rlineto
          97 hlineto
          -13 311 152 -168 rlineto
          endchar
        </CharString>
        <CharString name="asciicircum">
          -82 40 251 rmoveto
          76 hlineto
          131 268 129 -268 rlineto
          75 hlineto
          -177 360 rlineto
          -55 hlineto
          endchar
        </CharString>
        <CharString name="asciitilde">
          -62 162 273 rmoveto
          58 61 -54 57 hhcurveto
          45 40 32 65 36 hvcurveto
          -38 22 rlineto
          -40 -25 -18 -13 -36 -58 -57 52 -61 hhcurveto
          -42 -39 -29 -66 -33 hvcurveto
          35 -22 rlineto
          38 26 21 15 28 hhcurveto
          endchar
        </CharString>
        <CharString name="asterisk">
          -231 112 426 rmoveto
          56 107 rlineto
          6 hlineto
          57 -107 68 51 -85 87 3 7 119 18 -25 84 -109 -56 -7 4 18 122 rlineto
          -85 hlineto
          19 -122 -6 -3 -111 55 -24 -84 118 -18 2 -7 -85 -87 rlineto
          endchar
        </CharString>
        <CharString name="at">
          160 124 239 rmoveto
          148 67 120 187 163 71 -103 -119 -109 -24 -72 -65 -14 -10 14 12 vhcurveto
          207 vlineto
          62 -44 21 -72 -50 -51 -16 -22 -42 vhcurveto
          13 -34 rlineto
          10 29 43 13 41 hhcurveto
          40 15 -17 -36 hvcurveto
          -51 vlineto
          -107 -25 rlineto
          -75 -19 -12 -44 -33 vvcurveto
          -47 29 -46 62 34 38 17 27 34 vhcurveto
          -27 9 34 -15 32 hhcurveto
          116 81 87 129 136 -64 150 -265 -239 -91 -158 -155 -171 88 -154 218 90 80 20 39 82 hvcurveto
          -12 38 rlineto
          -29 -84 -67 -16 -72 hhcurveto
          -140 -96 74 194 hvcurveto
          232 -29 rmoveto
          65 15 rlineto
          -96 vlineto
          -10 -18 -27 -11 -22 hhcurveto
          -33 -15 12 35 28 10 17 40 10 hvcurveto
          endchar
        </CharString>
        <CharString name="atilde">
          -62 393 679 -36 callgsubr
          34 callgsubr
          32 23 70 callsubr
          -161 -239 -107 callgsubr
          endchar
        </CharString>
        <CharString name="b">
          -19 179 474 rmoveto
          254 -8 callsubr
          85 -10 rlineto
          -631 vlineto
          -16 47 93 -12 54 hhcurveto
          197 48 133 126 174 -87 78 -144 -35 -44 -13 -14 -29 hvcurveto
          -416 vmoveto
          367 vlineto
          13 27 27 9 39 hhcurveto
          110 27 -72 -128 -135 -30 -71 -110 -40 -33 8 9 -17 hvcurveto
          endchar
        </CharString>
        <CharString name="backslash">
          -221 76 697 rmoveto
          -70 hlineto
          272 -835 rlineto
          69 hlineto
          endchar
        </CharString>
        <CharString name="bar">
          -210 225 697 rmoveto
          -86 -835 86 hlineto
          endchar
        </CharString>
        <CharString name="braceleft">
          -277 103 675 rmoveto
          22 -372 -72 -36 rlineto
          -15 vlineto
          72 -35 -22 -374 166 -35 11 30 -91 37 23 353 -94 31 94 32 -23 352 91 37 -11 32 rlineto
          endchar
        </CharString>
        <CharString name="braceright">
          -277 27 -192 rmoveto
          164 35 -21 374 72 35 rlineto
          15 vlineto
          -72 36 21 372 -164 37 -11 -32 91 -37 -23 -352 94 -32 -94 -31 23 -353 -91 -37 rlineto
          endchar
        </CharString>
        <CharString name="bracketleft">
          -277 273 -166 rmoveto
          38 vlineto
          -118 8 rlineto
          772 vlineto
          118 7 rlineto
          38 -203 -863 vlineto
          endchar
        </CharString>
        <CharString name="bracketright">
          -277 23 697 rmoveto
          -38 vlineto
          117 -7 rlineto
          -772 vlineto
          -117 -8 rlineto
          -38 202 863 vlineto
          endchar
        </CharString>
        <CharString name="breve">
          -318 126 -62 callgsubr
          endchar
        </CharString>
        <CharString name="breve.case">
          -318 127 -63 callsubr
          endchar
        </CharString>
        <CharString name="brokenbar">
          -200 225 697 rmoveto
          -86 -323 86 hlineto
          -190 vmoveto
          -86 -322 86 hlineto
          endchar
        </CharString>
        <CharString name="bullet">
          -107 379 348 rmoveto
          81 -66 64 -80 -80 -65 -64 -81 -80 65 -65 80 80 66 65 80 vhcurveto
          endchar
        </CharString>
        <CharString name="c">
          -131 256 -10 -75 callgsubr
        </CharString>
        <CharString name="cacute">
          -131 165 -9 callsubr
          109 -592 rmoveto
          64 52 18 29 51 hvcurveto
          -47 callsubr
          -138 62 -115 158 hvcurveto
          endchar
        </CharString>
        <CharString name="cacute.loclPLK">
          -131 248 -32 callgsubr
          30 -571 -75 callgsubr
        </CharString>
        <CharString name="caron">
          -318 17 -74 callsubr
          endchar
        </CharString>
        <CharString name="caron.case">
          -318 94 648 40 callsubr
          endchar
        </CharString>
        <CharString name="ccaron">
          -131 142 720 rmoveto
          -26 -20 102 -140 rlineto
          68 hlineto
          102 140 -25 20 -111 -86 rlineto
          3 -644 rmoveto
          64 52 18 29 51 hvcurveto
          -47 callsubr
          -138 62 -115 158 hvcurveto
          endchar
        </CharString>
        <CharString name="ccedilla">
          -131 216 -219 rmoveto
          72 64 46 56 38 -34 33 -71 hvcurveto
          12 36 62 1 51 18 50 28 rlinecurve
          -47 callsubr
          -129 54 -108 135 -14 hvcurveto
          -21 -61 22 callgsubr
          -45 -11 54 callgsubr
          endchar
        </CharString>
        <CharString name="ccircumflex">
          -131 372 554 -83 callsubr
          -5 -653 -75 callgsubr
        </CharString>
        <CharString name="cdotaccent">
          -131 328 -20 callsubr
          -72 -650 -75 callgsubr
        </CharString>
        <CharString name="cedilla">
          -318 117 -46 rmoveto
          16 53 rlineto
          -34 hlineto
          -27 -76 5 -12 rlineto
          51 -29 callsubr
          28 callgsubr
          endchar
        </CharString>
        <CharString name="cent">
          -60 252 34 rmoveto
          -123 54 120 vlineto
          56 2 57 20 45 27 -8 35 rcurveline
          -16 -40 -57 -11 -56 hhcurveto
          -111 -30 87 134 128 37 85 97 27 34 -7 -7 22 hvcurveto
          23 -95 rlineto
          49 hlineto
          10 129 -36 18 -56 12 -48 3 rlinecurve
          120 -53 -120 vlineto
          -123 -11 -87 -86 -173 vvcurveto
          -152 61 -101 133 -18 vhcurveto
          endchar
        </CharString>
        <CharString name="circumflex">
          -318 238 554 -83 callsubr
          endchar
        </CharString>
        <CharString name="circumflex.case">
          -318 245 648 -92 callgsubr
          endchar
        </CharString>
        <CharString name="colon">
          -374 166 398 rmoveto
          36 -31 30 -36 -36 -32 -30 -36 -37 32 -28 36 36 31 28 37 vhcurveto
          -342 vmoveto
          33 callgsubr
        </CharString>
        <CharString name="comma">
          -396 68 -118 rmoveto
          87 216 -20 20 -83 -19 -15 -211 rlineto
          endchar
        </CharString>
        <CharString name="commaaccentInverted">
          -380 109 750 rmoveto
          -69 -182 16 -17 78 17 12 180 rlineto
          endchar
        </CharString>
        <CharString name="copyright">
          -79 4 453 rmoveto
          -133 110 -111 133 21 callgsubr
          vhcurveto
          35 hmoveto
          117 92 94 117 117 92 -94 -117 -118 -92 -93 -117 -117 -92 93 118 vhcurveto
          305 -139 rmoveto
          -4 59 rlineto
          -27 hlineto
          -13 -42 rlineto
          -4 -18 -11 -2 -14 hhcurveto
          -71 -14 65 64 73 16 56 71 12 13 -2 -4 16 hvcurveto
          11 -47 rlineto
          27 hlineto
          6 69 rlineto
          9 -31 -30 6 -32 hhcurveto
          -104 -41 -69 -91 -97 38 -62 107 38 26 6 13 29 hvcurveto
          endchar
        </CharString>
        <CharString name="currency">
          -29 55 79 rmoveto
          47 -50 55 54 rlineto
          -23 33 40 -13 44 hhcurveto
          43 41 12 24 33 hvcurveto
          54 -53 47 50 -53 51 rlineto
          25 33 13 42 43 vvcurveto
          43 -15 40 -23 34 vhcurveto
          53 53 -48 48 -53 -53 rlineto
          24 -33 -41 14 -43 hhcurveto
          -44 -40 -14 -24 -33 hvcurveto
          -52 54 -50 -49 53 -53 rlineto
          -23 -34 -14 -40 -43 vvcurveto
          -43 14 -42 23 -33 vhcurveto
          33 117 rmoveto
          75 59 60 74 73 61 -60 -75 -73 -61 -59 -73 -74 -59 59 73 vhcurveto
          endchar
        </CharString>
        <CharString name="d">
          -5 376 47 rmoveto
          -80 callsubr
          38 callgsubr
          -119 8 15 callgsubr
        </CharString>
        <CharString name="dagger">
          -132 272 hmoveto
          -22 435 14 callgsubr
          -435 rlineto
          endchar
        </CharString>
        <CharString name="daggerdbl">
          -132 171 hmoveto
          97 hlineto
          -19 132 130 -19 rlineto
          94 vlineto
          -130 -19 25 124 -24 123 14 callgsubr
          -123 24 -124 -130 19 rlineto
          -94 vlineto
          129 19 rlineto
          endchar
        </CharString>
        <CharString name="dcaron">
          30 559 518 rmoveto
          28 hlineto
          31 198 -59 19 rlineto
          -33 hlineto
          -315 -745 rmoveto
          38 callgsubr
          -80 callsubr
          hvcurveto
          48 65 rmoveto
          -78 -35 78 113 123 42 78 84 39 36 -11 -18 27 hvcurveto
          -325 vlineto
          -15 -22 -46 -23 -47 hhcurveto
          endchar
        </CharString>
        <CharString name="dcroat">
          1 473 66 rmoveto
          512 64 50 -64 100 78 callgsubr
          -16 rlineto
          -30 vlineto
          86 -18 rlineto
          -36 -148 -50 148 -104 vlineto
          3 -1 -58 24 -55 hhcurveto
          -141 -82 -98 -160 -133 57 -120 117 38 callgsubr
          -33 7 36 -18 31 hhcurveto
          30 37 4 12 41 hvcurveto
          33 vlineto
          -185 45 rmoveto
          -15 -22 -46 -20 -47 hhcurveto
          -81 -34 78 113 123 42 78 87 33 42 -11 -15 26 hvcurveto
          endchar
        </CharString>
        <CharString name="degree">
          -131 379 558 rmoveto
          86 -71 72 -88 -86 -71 -72 -86 -88 71 -69 86 88 71 69 88 vhcurveto
          -159 118 rmoveto
          66 37 -54 -64 -66 -37 -52 -66 -65 -37 52 66 64 37 54 65 hvcurveto
          endchar
        </CharString>
        <CharString name="dieresis">
          -318 87 639 -1 callsubr
        </CharString>
        <CharString name="dieresis.case">
          -318 87 -6 callsubr
        </CharString>
        <CharString name="divide">
          -64 255 384 rmoveto
          33 28 27 73 callgsubr
          -27 33 hvcurveto
          -197 -108 rmoveto
          394 62 -394 hlineto
          197 -230 rmoveto
          33 28 26 73 callgsubr
          -26 33 hvcurveto
          endchar
        </CharString>
        <CharString name="dollar">
          -60 233 -117 rmoveto
          50 121 hlineto
          117 13 59 62 90 vvcurveto
          84 -35 46 -69 26 vhcurveto
          -106 42 rlineto
          -58 23 -33 25 55 vvcurveto
          63 52 29 72 23 43 -4 -5 18 vhcurveto
          22 -93 rlineto
          40 hlineto
          10 127 -44 14 -48 10 -48 3 rlinecurve
          101 -50 -102 vlineto
          -114 -7 -63 -61 -99 vvcurveto
          -91 42 -39 59 -22 vhcurveto
          109 -42 rlineto
          61 -23 27 -33 -49 vvcurveto
          -56 -49 -38 -81 -43 -39 8 6 -23 vhcurveto
          -18 83 rlineto
          -42 hlineto
          -14 -118 50 -19 64 -10 59 -1 rlinecurve
          endchar
        </CharString>
        <CharString name="dotaccent">
          -318 194 -20 callsubr
          endchar
        </CharString>
        <CharString name="dotaccent.case">
          -318 194 -36 callsubr
          endchar
        </CharString>
        <CharString name="dotbelowcomb">
          -573 -61 -109 -100 callsubr
          endchar
        </CharString>
        <CharString name="dotlessi">
          -254 299 38 rmoveto
          -89 callgsubr
          -38 271 vlineto
          endchar
        </CharString>
        <CharString name="e">
          -99 264 -11 -103 callsubr
        </CharString>
        <CharString name="eacute">
          -99 171 45 callsubr
          112 -593 -103 callsubr
        </CharString>
        <CharString name="ebreve">
          -99 237 -62 callgsubr
          27 -588 -103 callsubr
        </CharString>
        <CharString name="ecaron">
          -99 217 560 rmoveto
          68 hlineto
          102 140 -25 20 -111 -86 -110 86 -26 -20 rlineto
          149 -711 -103 callsubr
        </CharString>
        <CharString name="ecircumflex">
          -99 141 554 rmoveto
          110 89 111 -89 -71 callsubr
          rlineto
          149 -587 -103 callsubr
        </CharString>
        <CharString name="edieresis">
          -99 147 579 rmoveto
          31 callsubr
          67 callgsubr
          hvcurveto
          206 hmoveto
          32 30 26 34 63 callgsubr
          hvcurveto
          -89 -590 -103 callsubr
        </CharString>
        <CharString name="edotaccent">
          -99 252 576 rmoveto
          35 -14 callsubr
          36 -31 24 callgsubr
          hvcurveto
          12 -587 -103 callsubr
        </CharString>
        <CharString name="egrave">
          -99 331 19 callsubr
          154 -674 -103 callsubr
        </CharString>
        <CharString name="eight">
          -51 callgsubr
        </CharString>
        <CharString name="eight.dnom">
          45 97 -93 callgsubr
        </CharString>
        <CharString name="eight.numr">
          45 269 32 callsubr
          45 34 vvcurveto
          51 -45 43 -92 -101 -43 -50 -59 -54 7 callsubr
          -50 vvcurveto
          88 241 rmoveto
          41 30 18 36 38 20 -27 -35 -33 -19 -26 -37 -21 vhcurveto
          -42 22 -26 29 32 vvcurveto
          36 -143 rmoveto
          21 -9 rlineto
          35 -16 35 -28 -40 vvcurveto
          -44 -33 -22 -41 -37 -29 16 55 39 23 30 26 19 vhcurveto
          endchar
        </CharString>
        <CharString name="eight.osf">
          -51 callgsubr
        </CharString>
        <CharString name="ellipsis">
          -15 37 52 rmoveto
          41 callgsubr
          186 hmoveto
          41 callgsubr
          187 hmoveto
          -34 25 -27 34 33 29 27 34 34 -29 27 -33 -34 -25 -27 -34 vhcurveto
          endchar
        </CharString>
        <CharString name="emacron">
          -99 135 608 rmoveto
          225 60 -225 hlineto
          129 -679 -103 callsubr
        </CharString>
        <CharString name="emdash">
          258 830 209 rmoveto
          57 -830 -57 vlineto
          endchar
        </CharString>
        <CharString name="endash">
          144 717 209 rmoveto
          57 -717 -57 vlineto
          endchar
        </CharString>
        <CharString name="eng">
          27 392 501 rmoveto
          -65 -78 -25 -15 -35 32 callgsubr
          -33 260 33 vlineto
          -75 25 -7 callsubr
          32 44 6 43 hhcurveto
          71 19 -11 -52 hvcurveto
          -391 vlineto
          -37 -17 -50 -53 vhcurveto
          -46 hlineto
          -5 -35 rlineto
          -18 36 36 -7 18 hhcurveto
          73 57 54 170 hvcurveto
          336 vlineto
          81 -61 27 -69 vhcurveto
          endchar
        </CharString>
        <CharString name="eogonek">
          -99 339 -235 rmoveto
          63 30 46 8 5 hvcurveto
          -18 65 callsubr
          76 57 55 67 37 hvcurveto
          -7 35 rlineto
          -14 -50 -55 -9 -41 hhcurveto
          -91 -53 59 119 hvcurveto
          29 300 vlineto
          2 19 1 22 14 vvcurveto
          130 -60 60 -132 -77 callgsubr
          24 21 2 4 21 vhcurveto
          -60 -50 -28 -53 -42 vvcurveto
          -43 27 -42 70 vhcurveto
          -195 532 rmoveto
          103 5 28 45 82 hhcurveto
          60 22 -41 -74 hvcurveto
          -22 vlineto
          endchar
        </CharString>
        <CharString name="equal">
          -64 56 359 rmoveto
          393 62 -393 hlineto
          -229 vmoveto
          68 callsubr
        </CharString>
        <CharString name="estimated">
          117 155 289 rmoveto
          504 14 hlineto
          176 -140 140 -176 -174 -141 -140 -176 -174 141 -141 174 103 108 53 78 49 vhcurveto
          -56 hlineto
          -61 -50 -71 -33 -82 hhcurveto
          -75 -62 29 54 -50 hvcurveto
          -3 4 -4 7 8 vvcurveto
          159 vlineto
          2 3 1 2 vhcurveto
          381 193 rmoveto
          -154 vlineto
          -2 -1 -2 -2 vhcurveto
          -378 hlineto
          -2 -3 2 2 hvcurveto
          151 vlineto
          8 4 7 4 6 vhcurveto
          51 44 60 32 82 hhcurveto
          89 51 -29 -52 45 hvcurveto
          4 -5 3 -7 -8 vvcurveto
          endchar
        </CharString>
        <CharString name="eth">
          -29 272 -10 rmoveto
          178 60 123 147 112 -35 145 -95 114 hvcurveto
          119 69 -25 42 -128 -74 -41 39 -46 31 -45 23 rlinecurve
          -26 -34 31 -27 33 -31 32 -36 rlinecurve
          -124 -72 24 -42 130 75 27 -38 23 -42 16 -48 rlinecurve
          22 -28 -39 13 -41 hhcurveto
          -171 -65 -116 -142 -139 67 -114 169 hvcurveto
          3 54 rmoveto
          -106 -24 97 106 105 22 95 102 110 23 -93 -107 -108 -20 -95 -107 hvcurveto
          endchar
        </CharString>
        <CharString name="exclam">
          -359 136 187 rmoveto
          31 425 rlineto
          -117 hlineto
          31 -425 rlineto
          -33 -137 rmoveto
          -33 25 -26 34 33 27 26 33 34 -27 26 -33 -34 -25 -26 -34 vhcurveto
          endchar
        </CharString>
        <CharString name="exclamdown">
          -359 49 443 rmoveto
          -35 24 -26 34 33 27 26 35 32 -27 26 -33 -34 -24 -26 -32 vhcurveto
          118 -563 rmoveto
          -31 425 rlineto
          -55 hlineto
          -31 -425 rlineto
          endchar
        </CharString>
        <CharString name="f">
          -207 31 hmoveto
          301 36 hlineto
          -116 23 rlineto
          376 vlineto
          150 -9 rlineto
          65 -150 36 -61 callsubr
          endchar
        </CharString>
        <CharString name="f_f">
          159 31 hmoveto
          301 36 hlineto
          -116 23 rlineto
          376 vlineto
          150 -9 rlineto
          65 -150 36 -61 callsubr
          366 -35 rmoveto
          301 36 hlineto
          -116 23 rlineto
          376 vlineto
          150 -9 rlineto
          65 -150 36 -61 callsubr
          endchar
        </CharString>
        <CharString name="fi">
          79 29 hmoveto
          283 33 hlineto
          -98 25 rlineto
          377 229 -377 vlineto
          -80 -22 rlineto
          -36 265 38 vlineto
          -86 20 rlineto
          436 vlineto
          -328 -3 rlineto
          36 vlineto
          84 24 52 90 21 31 -3 -7 24 vhcurveto
          15 -69 rlineto
          48 hlineto
          15 124 rlineto
          11 -23 -66 9 -43 hhcurveto
          -140 -96 -86 -147 hvcurveto
          -80 -26 rlineto
          -34 80 -377 vlineto
          -85 -25 rlineto
          endchar
        </CharString>
        <CharString name="five">
          -69 419 612 rmoveto
          -316 hlineto
          -25 -266 22 -23 rlineto
          163 85 -33 -110 -81 -63 -48 -88 -37 -39 6 21 -61 hvcurveto
          -17 -54 rlineto
          -19 49 61 -15 73 hhcurveto
          148 78 76 115 93 -33 110 -271 2 hvcurveto
          13 155 rlineto
          258 hlineto
          endchar
        </CharString>
        <CharString name="five.dnom">
          321 438 41 callsubr
          -34 -57 -23 -30 4 18 -50 hvcurveto
          -10 -44 15 callsubr
        </CharString>
        <CharString name="five.numr">
          321 602 -17 callsubr
          endchar
        </CharString>
        <CharString name="five.osf">
          -69 181 -100 rmoveto
          180 82 88 116 100 -63 95 -232 hvcurveto
          13 155 rlineto
          258 71 -316 hlineto
          -25 -267 22 -22 rlineto
          126 113 -18 -116 -95 -73 -51 -118 -20 -20 2 7 -49 hvcurveto
          -2 -51 rlineto
          -10 40 43 -4 41 hhcurveto
          endchar
        </CharString>
        <CharString name="fiveeighths">
          424 423 -28 callsubr
          -35 624 -17 callsubr
          325 -457 -93 callgsubr
        </CharString>
        <CharString name="fl">
          68 29 hmoveto
          283 36 hlineto
          -98 23 rlineto
          376 vlineto
          142 -9 rlineto
          65 -142 36 vlineto
          88 32 54 81 66 31 -23 -12 16 vhcurveto
          -575 vlineto
          -83 -22 rlineto
          -37 268 37 vlineto
          -85 21 rlineto
          670 -32 vlineto
          -18 -20 rlineto
          6 -17 -47 20 -73 hhcurveto
          -136 -103 -97 -142 hvcurveto
          -80 -26 rlineto
          -34 80 -377 vlineto
          -85 -25 rlineto
          endchar
        </CharString>
        <CharString name="florin">
          -147 390 563 rmoveto
          15 -65 rlineto
          36 hlineto
          10 97 rlineto
          13 -36 -40 9 -40 hhcurveto
          -101 -61 -77 -162 -17 hvcurveto
          -88 hlineto
          -6 -43 rlineto
          89 hlineto
          -42 -343 rlineto
          -76 -9 -26 -34 -41 hhcurveto
          -25 -37 1 0 hvcurveto
          -5 -28 rlineto
          -15 29 36 -10 23 hhcurveto
          63 62 40 93 11 hvcurveto
          47 372 rlineto
          135 hlineto
          5 43 rlineto
          -134 hlineto
          126 11 32 65 61 hhcurveto
          15 17 -3 -3 11 hvcurveto
          endchar
        </CharString>
        <CharString name="four">
          -69 293 hmoveto
          92 138 9 callgsubr
        </CharString>
        <CharString name="four.dnom">
          230 hmoveto
          78 91 59 50 -59 289 hlineto
          -63 6 -230 -310 12 -35 rlineto
          203 hlineto
          -136 50 36 callgsubr
        </CharString>
        <CharString name="four.numr">
          230 171 rmoveto
          78 91 59 51 -59 288 hlineto
          -63 7 -230 -310 60 callsubr
          51 74 callgsubr
        </CharString>
        <CharString name="four.osf">
          -69 293 -90 rmoveto
          92 146 9 callgsubr
        </CharString>
        <CharString name="fraction">
          -283 82 53 callsubr
          endchar
        </CharString>
        <CharString name="g">
          -61 215 -177 -99 callgsubr
        </CharString>
        <CharString name="g_tilde.loclGUA">
          -49 329 582 rmoveto
          -48 callgsubr
          34 80 -39 38 hhcurveto
          -109 -759 rmoveto
          189 83 86 77 85 -64 19 -91 hvcurveto
          -156 hlineto
          -22 -8 18 14 13 7 44 callsubr
          4 32 44 callgsubr
          50 81 88 37 -14 43 -27 26 hvcurveto
          107 75 hlineto
          -140 -38 rlineto
          16 -30 -34 11 -49 hhcurveto
          -125 -62 -81 -89 -58 16 -55 49 -33 hvcurveto
          -33 -34 -31 -36 -34 vvcurveto
          -24 10 -23 24 -10 vhcurveto
          -48 -37 -16 -38 -30 vvcurveto
          -48 25 -49 161 vhcurveto
          32 392 rmoveto
          -67 -22 46 71 69 19 49 67 66 24 66 callgsubr
          -22 21 43 26 11 24 21 26 hvcurveto
          180 hlineto
          44 23 -7 -39 -55 -52 -39 -125 hvcurveto
          endchar
        </CharString>
        <CharString name="gbreve">
          -44 253 83 callsubr
          25 58 62 hvcurveto
          -41 2 rlineto
          -30 -13 -31 -67 -39 callgsubr
          -33 -754 -65 callgsubr
        </CharString>
        <CharString name="gcaron">
          -61 146 -74 callsubr
          -42 -811 -99 callgsubr
        </CharString>
        <CharString name="gcircumflex">
          -61 367 554 -83 callsubr
          -41 -820 -99 callgsubr
        </CharString>
        <CharString name="gcommaaccent">
          -44 217 551 rmoveto
          77 17 12 180 -36 2 -69 -182 rlineto
          19 -745 -65 callgsubr
        </CharString>
        <CharString name="gdotaccent">
          -61 323 -20 callsubr
          -108 -817 -99 callgsubr
        </CharString>
        <CharString name="germandbls">
          38 426 -10 rmoveto
          106 62 50 83 hvcurveto
          139 -201 59 64 73 107 14 89 vvcurveto
          71 -75 71 -111 -111 -89 -56 -152 vhcurveto
          -80 -26 rlineto
          -34 80 -377 vlineto
          -85 -23 rlineto
          -35 238 40 vlineto
          -54 18 rlineto
          462 vlineto
          74 15 52 81 74 18 -54 -39 vhcurveto
          -103 -101 -9 -78 -111 202 -42 -106 vvcurveto
          -36 -20 -28 -50 -26 -24 6 6 -14 vhcurveto
          -21 83 rlineto
          -38 hlineto
          -11 -119 rlineto
          -15 38 37 -11 53 hhcurveto
          endchar
        </CharString>
        <CharString name="grave">
          -318 229 18 callgsubr
          -2 -19 rlineto
          endchar
        </CharString>
        <CharString name="grave.case">
          -318 229 645 -27 callgsubr
          endchar
        </CharString>
        <CharString name="gravecomb">
          -573 -26 645 -27 callgsubr
          endchar
        </CharString>
        <CharString name="greater">
          -64 93 112 rmoveto
          362 194 -362 193 -33 -56 271 -137 -271 -138 rlineto
          endchar
        </CharString>
        <CharString name="greaterequal">
          -64 93 115 rmoveto
          363 191 -363 190 -32 -55 271 -135 -271 -135 rlineto
          -3 -150 rmoveto
          68 callsubr
        </CharString>
        <CharString name="guillemotleft">
          -182 25 245 rmoveto
          137 -177 43 callgsubr
          rlineto
          162 -356 rmoveto
          43 callgsubr
          -137 -179 rlineto
          endchar
        </CharString>
        <CharString name="guillemotright">
          -182 204 245 rmoveto
          -138 179 80 callsubr
          rlineto
          163 356 rmoveto
          -39 -27 79 -152 -79 -151 39 -26 137 177 rlineto
          endchar
        </CharString>
        <CharString name="guilsinglleft">
          -330 24 245 rmoveto
          137 -177 43 callgsubr
          rlineto
          endchar
        </CharString>
        <CharString name="guilsinglright">
          -330 82 424 rmoveto
          80 callsubr
          136 177 rlineto
          endchar
        </CharString>
        <CharString name="h">
          46 600 hmoveto
          -64 callsubr
          endchar
        </CharString>
        <CharString name="hbar">
          46 514 58 rmoveto
          335 vlineto
          80 -61 28 -69 -63 -76 -24 -16 -38 vhcurveto
          117 126 50 -126 100 -31 vlineto
          -155 -16 rlineto
          -30 vlineto
          86 -18 rlineto
          -36 -86 -50 86 -520 vlineto
          -86 -20 rlineto
          -38 262 36 vlineto
          -76 22 -7 callsubr
          30 43 6 45 hhcurveto
          72 18 -12 -51 hvcurveto
          -313 vlineto
          -76 -22 rlineto
          -36 261 36 vlineto
          endchar
        </CharString>
        <CharString name="hcircumflex">
          46 275 740 -92 callgsubr
          445 -820 rmoveto
          -64 callsubr
          endchar
        </CharString>
        <CharString name="hookabovecomb">
          -573 -41 629 rmoveto
          33 -34 17 -56 -21 -27 -2 -5 -27 vhcurveto
          6 -53 rlineto
          33 hlineto
          8 30 rlineto
          1 8 8 1 6 hhcurveto
          23 13 -10 -16 -17 -15 -14 -44 hvcurveto
          4 -41 rlineto
          43 hlineto
          6 24 rlineto
          49 8 17 21 23 vvcurveto
          endchar
        </CharString>
        <CharString name="hungarumlaut">
          -318 -16 546 27 callsubr
          -91 -159 rlineto
          184 -15 27 callsubr
          -91 -159 rlineto
          endchar
        </CharString>
        <CharString name="hungarumlaut.case">
          -318 -8 -45 callsubr
          endchar
        </CharString>
        <CharString name="hyphen">
          -292 273 209 rmoveto
          57 -264 -57 vlineto
          endchar
        </CharString>
        <CharString name="i">
          -256 -29 callgsubr
          -135 -576 rmoveto
          271 38 hlineto
          -89 callgsubr
          endchar
        </CharString>
        <CharString name="i.loclTRK">
          -254 226 -20 callsubr
          73 -602 rmoveto
          -89 callgsubr
          -38 271 vlineto
          endchar
        </CharString>
        <CharString name="iacute">
          -254 56 -9 callsubr
          262 -544 rmoveto
          -89 callgsubr
          -38 271 vlineto
          endchar
        </CharString>
        <CharString name="iacute_j.loclNLD">
          54 83 -67 callsubr
          334 -24 rmoveto
          218 105 rlineto
          19 vlineto
          -83 32 -155 -132 rlineto
          -78 -544 rmoveto
          -89 callgsubr
          -38 271 vlineto
          49 463 -86 callgsubr
        </CharString>
        <CharString name="ibreve">
          -254 158 -62 callgsubr
          141 -539 rmoveto
          -89 callgsubr
          -38 271 vlineto
          endchar
        </CharString>
        <CharString name="icircumflex">
          -254 251 30 callsubr
          159 -605 rmoveto
          -89 callgsubr
          -38 271 vlineto
          endchar
        </CharString>
        <CharString name="idieresis">
          -254 107 639 2 callgsubr
          -14 -601 rmoveto
          -89 callgsubr
          -38 271 vlineto
          endchar
        </CharString>
        <CharString name="igrave">
          -254 217 18 callgsubr
          -1 -19 rlineto
          302 -625 rmoveto
          -89 callgsubr
          -38 271 vlineto
          endchar
        </CharString>
        <CharString name="ij">
          52 -29 callgsubr
          384 64 -42 callsubr
          -519 -640 rmoveto
          271 38 hlineto
          -89 callgsubr
          318 425 -86 callgsubr
        </CharString>
        <CharString name="imacron">
          -254 20 36 callsubr
          54 -630 rmoveto
          -89 callgsubr
          -38 271 vlineto
          endchar
        </CharString>
        <CharString name="infinity">
          136 354 350 rmoveto
          40 -29 -54 56 -79 hhcurveto
          -121 -26 -85 -56 -57 26 -85 121 79 54 57 40 29 hvcurveto
          -40 30 53 -57 80 hhcurveto
          120 27 83 59 58 -27 83 -120 -80 -53 -56 -40 -30 hvcurveto
          -244 -45 rmoveto
          32 11 50 70 61 47 -54 -28 22 vhcurveto
          -27 -23 -45 -55 -62 hhcurveto
          -70 -11 49 33 hvcurveto
          490 hmoveto
          -33 -11 -49 -71 -64 -45 55 27 -22 vhcurveto
          28 23 44 54 64 hhcurveto
          71 11 -50 -32 hvcurveto
          endchar
        </CharString>
        <CharString name="integral">
          -169 121 -134 rmoveto
          79 53 44 89 hvcurveto
          601 vlineto
          44 22 15 22 12 11 -4 -7 8 vhcurveto
          12 -63 rlineto
          37 hlineto
          14 90 rlineto
          17 -19 -48 9 -25 hhcurveto
          -79 -53 -44 -89 hvcurveto
          -601 vlineto
          -45 -23 -15 -21 -12 -12 4 7 -7 vhcurveto
          -12 63 rlineto
          -37 hlineto
          -14 -90 rlineto
          -16 20 47 -9 25 hhcurveto
          endchar
        </CharString>
        <CharString name="iogonek">
          -254 -29 callgsubr
          41 -811 rmoveto
          63 31 46 8 4 hvcurveto
          -18 17 rlineto
          -13 -15 -19 -9 -20 hhcurveto
          -31 -19 19 36 49 29 59 90 23 hvcurveto
          38 vlineto
          -89 callgsubr
          -38 187 vlineto
          -65 -36 -44 -57 -57 vvcurveto
          -43 27 -42 71 vhcurveto
          endchar
        </CharString>
        <CharString name="itilde">
          -254 296 670 rmoveto
          79 callgsubr
          40 -39 hhcurveto
          -33 -23 -44 -54 -22 hvcurveto
          36 -14 rlineto
          0 20 35 23 vhcurveto
          35 79 -39 38 hhcurveto
          33 23 43 53 21 hvcurveto
          3 -632 rmoveto
          -89 callgsubr
          -38 271 vlineto
          endchar
        </CharString>
        <CharString name="j">
          -265 230 2 callsubr
          -201 -177 -86 callgsubr
        </CharString>
        <CharString name="jcircumflex">
          -265 265 554 -83 callsubr
          -125 -180 -86 callgsubr
        </CharString>
        <CharString name="k">
          -12 268 hmoveto
          38 vlineto
          -61 20 rlineto
          670 -31 vlineto
          -155 -33 callsubr
          -38 vlineto
          552 hmoveto
          37 vlineto
          -25 callsubr
          -38 vlineto
          endchar
        </CharString>
        <CharString name="kcommaaccent">
          2 21 hmoveto
          247 38 hlineto
          -61 20 rlineto
          670 -31 vlineto
          -155 -33 callsubr
          318 -38 rmoveto
          234 37 hlineto
          -25 callsubr
          -92 -261 rmoveto
          36 -3 69 -14 callgsubr
        </CharString>
        <CharString name="kgreenlandic">
          -5 275 hmoveto
          38 vlineto
          -61 20 rlineto
          -84 callsubr
          -87 -20 rlineto
          -38 vlineto
          552 hmoveto
          37 vlineto
          -25 callsubr
          -38 vlineto
          endchar
        </CharString>
        <CharString name="l">
          -268 14 callsubr
          endchar
        </CharString>
        <CharString name="lacute">
          -268 30 723 rmoveto
          218 105 rlineto
          19 vlineto
          -83 30 -154 -130 rlineto
          6 -747 rmoveto
          -60 callsubr
          endchar
        </CharString>
        <CharString name="lcaron">
          -244 286 25 callsubr
          -237 -735 rmoveto
          -60 callsubr
          endchar
        </CharString>
        <CharString name="lcommaaccent">
          -268 17 -15 callgsubr
          86 -261 rmoveto
          36 -3 69 182 -16 17 -78 -16 rlineto
          endchar
        </CharString>
        <CharString name="ldot">
          -268 14 callsubr
          350 390 3 callsubr
        </CharString>
        <CharString name="less">
          -64 410 112 rmoveto
          34 56 -271 138 271 137 -34 56 -362 -193 rlineto
          endchar
        </CharString>
        <CharString name="lessequal">
          -64 416 115 rmoveto
          33 56 -272 135 272 135 -33 55 -363 -190 rlineto
          6 -285 rmoveto
          68 callsubr
        </CharString>
        <CharString name="logicalnot">
          -51 400 131 rmoveto
          58 207 -394 -62 336 hlineto
          endchar
        </CharString>
        <CharString name="longs">
          -207 31 hmoveto
          301 36 hlineto
          -116 23 rlineto
          468 -61 callsubr
          endchar
        </CharString>
        <CharString name="lozenge">
          -83 218 -1 rmoveto
          55 hlineto
          176 306 -176 306 rlineto
          -55 hlineto
          -176 -306 rlineto
          203 -223 rmoveto
          -127 223 127 223 126 -223 rlineto
          endchar
        </CharString>
        <CharString name="lslash">
          -264 19 hmoveto
          272 53 callgsubr
          295 vlineto
          108 62 -27 44 -81 -47 rlineto
          316 -33 -57 callsubr
          87 -10 rlineto
          -295 vlineto
          -105 -60 25 -43 80 45 rlineto
          -238 83 callgsubr
          endchar
        </CharString>
        <CharString name="m">
          333 27 hmoveto
          254 33 hlineto
          -69 25 -7 callsubr
          27 40 6 35 hhcurveto
          75 18 -12 -51 hvcurveto
          -313 vlineto
          -70 -25 rlineto
          -33 239 33 vlineto
          -70 25 rlineto
          333 vlineto
          11 -1 10 -2 7 vhcurveto
          9 28 41 6 39 hhcurveto
          73 17 -14 -49 hvcurveto
          -313 vlineto
          -70 -25 rlineto
          -33 257 33 vlineto
          -88 25 rlineto
          335 vlineto
          75 -49 33 -77 -67 -78 -26 -16 -42 vhcurveto
          30 -23 -42 12 -41 hhcurveto
          -60 -73 -24 -16 -36 32 callgsubr
          endchar
        </CharString>
        <CharString name="macron">
          -318 15 36 callsubr
          endchar
        </CharString>
        <CharString name="macron.case">
          -318 15 8 callsubr
          endchar
        </CharString>
        <CharString name="minus">
          -64 58 276 rmoveto
          394 62 -394 hlineto
          endchar
        </CharString>
        <CharString name="multiply">
          -64 123 132 rmoveto
          132 133 132 -131 42 44 -132 130 132 131 -44 43 -130 -130 -131 131 -44 -43 131 -132 -131 -131 rlineto
          endchar
        </CharString>
        <CharString name="n">
          53 214 461 rmoveto
          40 78 callgsubr
          -94 callgsubr
          endchar
        </CharString>
        <CharString name="nacute">
          53 225 -67 callsubr
          7 -121 rmoveto
          40 -33 vlineto
          -152 -94 callgsubr
          endchar
        </CharString>
        <CharString name="nacute.loclPLK">
          53 300 -32 callgsubr
          -64 -100 rmoveto
          40 78 callgsubr
          -94 callgsubr
          endchar
        </CharString>
        <CharString name="napostrophe">
          27 113 25 callsubr
          133 -274 rmoveto
          40 78 callgsubr
          -94 callgsubr
          endchar
        </CharString>
        <CharString name="ncaron">
          53 202 -74 callsubr
          -101 -173 rmoveto
          40 -33 vlineto
          -152 -94 callgsubr
          endchar
        </CharString>
        <CharString name="ncommaaccent">
          53 27 hmoveto
          260 33 hlineto
          -75 25 -7 callsubr
          32 44 6 43 hhcurveto
          71 19 -11 -52 hvcurveto
          -313 vlineto
          -75 -25 rlineto
          -33 261 33 vlineto
          -87 25 rlineto
          335 vlineto
          81 -61 27 -69 -65 -78 -25 -15 -35 vhcurveto
          40 -33 vlineto
          -152 -55 callgsubr
          234 -256 rmoveto
          38 -3 68 -14 callgsubr
        </CharString>
        <CharString name="nine">
          -69 65 69 rmoveto
          -14 -54 rlineto
          -19 49 46 -8 60 hhcurveto
          131 129 68 280 142 -40 150 -172 -188 -30 -131 -75 -107 65 -80 112 44 50 12 30 58 hvcurveto
          -156 -2 -64 -73 -114 hhcurveto
          -34 -40 7 14 -46 hvcurveto
          302 277 rmoveto
          -29 -39 -46 -20 -42 hhcurveto
          -57 -47 39 100 79 43 54 69 97 22 -84 -139 hvcurveto
          endchar
        </CharString>
        <CharString name="nine.dnom">
          60 57 rmoveto
          -11 -43 rlineto
          -13 36 37 -9 51 callgsubr
          97 -31 105 -127 -137 -23 -90 -53 -73 48 -59 84 30 33 7 15 36 hvcurveto
          -102 -6 -48 -43 -65 hhcurveto
          -22 -31 5 11 -38 hvcurveto
          211 188 rmoveto
          -18 -22 -32 -14 -27 hhcurveto
          -36 -30 26 66 51 29 39 45 57 16 -53 -97 hvcurveto
          endchar
        </CharString>
        <CharString name="nine.numr">
          60 229 rmoveto
          -11 -44 rlineto
          -13 36 37 -8 51 callgsubr
          97 -31 105 -127 -137 -23 -91 -53 -72 48 -58 84 30 33 5 16 36 hvcurveto
          -103 -6 -48 -42 -65 hhcurveto
          -22 -31 4 12 -38 hvcurveto
          211 187 rmoveto
          -18 -22 -32 -14 -27 hhcurveto
          -36 -30 27 66 51 29 38 69 callgsubr
        </CharString>
        <CharString name="nine.osf">
          -69 165 -100 rmoveto
          128 173 56 303 127 -34 150 -187 -175 -34 -131 -76 -106 65 -80 113 44 51 13 31 59 hvcurveto
          -162 -2 -105 -71 -113 hhcurveto
          -17 -17 2 4 -26 hvcurveto
          -7 -49 rlineto
          -7 27 27 -4 30 hhcurveto
          76 304 rmoveto
          -58 -47 42 92 87 42 52 73 94 22 -87 -136 hvcurveto
          -29 -39 -46 -21 -41 hhcurveto
          endchar
        </CharString>
        <CharString name="notequal">
          -64 159 80 rmoveto
          64 112 rlineto
          229 60 -194 hlineto
          63 107 rlineto
          131 62 -96 hlineto
          47 81 -52 31 -65 -112 rlineto
          -228 -62 193 hlineto
          -63 -107 rlineto
          -130 -60 95 hlineto
          -46 -81 rlineto
          endchar
        </CharString>
        <CharString name="ntilde">
          53 466 679 -45 callgsubr
          -41 callgsubr
          34 79 -39 39 hhcurveto
          37 callgsubr
          -254 -218 rmoveto
          40 -33 vlineto
          -152 -94 callgsubr
          endchar
        </CharString>
        <CharString name="numbersign">
          -16 398 226 rmoveto
          29 104 rlineto
          113 hlineto
          17 60 rlineto
          -113 hlineto
          48 174 rlineto
          -64 hlineto
          -48 -174 rlineto
          -131 hlineto
          49 174 rlineto
          -64 hlineto
          -49 -174 rlineto
          -124 hlineto
          -17 -60 rlineto
          125 hlineto
          -29 -104 rlineto
          -124 hlineto
          -16 -60 rlineto
          124 hlineto
          -48 -175 rlineto
          63 hlineto
          48 175 rlineto
          132 hlineto
          -49 -175 rlineto
          64 hlineto
          48 175 rlineto
          113 hlineto
          17 60 rlineto
          -309 hmoveto
          29 104 rlineto
          132 hlineto
          -29 -104 rlineto
          endchar
        </CharString>
        <CharString name="o">
          -27 273 501 rmoveto
          -102 callgsubr
        </CharString>
        <CharString name="oacute">
          -27 197 -67 callsubr
          96 -81 rmoveto
          -102 callgsubr
        </CharString>
        <CharString name="oacute.loclPLK">
          -27 260 -32 callgsubr
          35 -60 rmoveto
          -102 callgsubr
        </CharString>
        <CharString name="obreve">
          -27 272 -62 callgsubr
          1 -76 rmoveto
          -102 callgsubr
        </CharString>
        <CharString name="ocircumflex">
          -27 384 30 callsubr
          -142 vmoveto
          -102 callgsubr
        </CharString>
        <CharString name="odieresis">
          -27 232 639 -96 callsubr
          -165 -138 rmoveto
          -102 callgsubr
        </CharString>
        <CharString name="oe">
          273 273 -10 rmoveto
          87 63 37 51 33 hvcurveto
          -54 30 66 -34 85 hhcurveto
          74 52 19 28 46 hvcurveto
          -6 35 rlineto
          -14 -43 -60 -8 -40 hhcurveto
          -124 -24 105 84 hvcurveto
          17 301 vlineto
          2 22 1 22 9 vvcurveto
          132 -73 60 -117 -62 -64 -21 -65 -43 vhcurveto
          52 -36 -59 34 -89 hhcurveto
          -171 -66 -115 -143 -139 68 -114 169 hvcurveto
          2 54 rmoveto
          -107 -24 89 114 116 24 84 101 107 24 -83 -114 1 hvcurveto
          -123 -21 -83 -105 vhcurveto
          239 253 rmoveto
          88 3 27 60 87 hhcurveto
          57 23 -48 -67 hvcurveto
          -22 vlineto
          endchar
        </CharString>
        <CharString name="ogonek">
          -318 160 1 callgsubr
        </CharString>
        <CharString name="ograve">
          -27 361 18 callgsubr
          -2 -19 rlineto
          133 -162 rmoveto
          -102 callgsubr
        </CharString>
        <CharString name="ohorn">
          -27 559 536 -95 callgsubr
          endchar
        </CharString>
        <CharString name="ohungarumlaut">
          -27 150 546 27 callsubr
          -90 -159 rlineto
          183 -15 27 callsubr
          -90 -159 rlineto
          -16 -60 rmoveto
          -102 callgsubr
        </CharString>
        <CharString name="omacron">
          -27 160 668 rmoveto
          -60 224 60 vlineto
          -111 -167 rmoveto
          -102 callgsubr
        </CharString>
        <CharString name="one">
          -69 469 38 rmoveto
          -143 27 rlineto
          551 vlineto
          -255 -39 rlineto
          -40 158 -472 74 callsubr
        </CharString>
        <CharString name="one.dnom">
          -202 61 369 rmoveto
          114 -369 82 callgsubr
        </CharString>
        <CharString name="one.numr">
          -202 48 542 rmoveto
          114 -370 82 callgsubr
        </CharString>
        <CharString name="one.osf">
          -69 469 38 rmoveto
          -143 27 rlineto
          476 vlineto
          -255 -38 rlineto
          -41 158 -397 74 callsubr
        </CharString>
        <CharString name="oneeighth">
          334 345 -28 callsubr
          -230 564 rmoveto
          114 -370 82 26 callsubr
          508 -477 -93 callgsubr
        </CharString>
        <CharString name="onehalf">
          316 306 -28 callsubr
          -210 562 rmoveto
          113 -369 82 432 hlineto
          -195 -30 rlineto
          609 -183 rmoveto
          46 23 -28 -41 -50 -28 -42 -43 -43 hvcurveto
          -146 -146 11 -40 rlineto
          301 hlineto
          9 104 -42 4 -27 -55 rlineto
          -160 hlineto
          106 101 rlineto
          53 51 53 60 58 vvcurveto
          86 -64 31 -82 -53 -55 -17 -21 -34 vhcurveto
          18 -41 rlineto
          19 42 36 10 36 hhcurveto
          endchar
        </CharString>
        <CharString name="onequarter">
          316 323 -28 callsubr
          -223 562 rmoveto
          113 -368 83 26 callsubr
          656 -574 rmoveto
          80 91 58 50 -58 289 hlineto
          -65 6 -230 -310 13 -35 rlineto
          202 hlineto
          -136 50 36 callgsubr
        </CharString>
        <CharString name="ordfeminine">
          -169 182 604 rmoveto
          43 14 -21 -39 hvcurveto
          -56 vlineto
          -106 -19 rlineto
          -83 -15 -14 -53 -38 vvcurveto
          -46 31 -48 49 52 35 20 28 38 vhcurveto
          -28 5 29 -15 29 hhcurveto
          24 25 4 9 33 hvcurveto
          27 vlineto
          -62 18 rlineto
          234 vlineto
          69 -48 18 -71 -54 -53 -11 -17 -43 vhcurveto
          12 -96 rlineto
          33 hlineto
          18 66 rlineto
          6 19 24 3 21 46 callgsubr
          -25 -22 12 38 28 13 27 45 8 hvcurveto
          endchar
        </CharString>
        <CharString name="ordmasculine">
          -15 callsubr
        </CharString>
        <CharString name="oslash">
          -27 129 -93 -51 callsubr
        </CharString>
        <CharString name="oslashacute">
          -27 197 -67 callsubr
          -48 -675 -51 callsubr
        </CharString>
        <CharString name="otilde">
          -27 428 679 -36 callgsubr
          34 callgsubr
          32 23 70 callsubr
          -155 -178 rmoveto
          -102 callgsubr
        </CharString>
        <CharString name="p">
          3 17 -167 rmoveto
          288 36 hlineto
          -103 25 rlineto
          538 vlineto
          9 29 32 5 26 hhcurveto
          129 13 -107 -92 -103 -18 -93 -127 -10 -17 2 1 -9 hvcurveto
          -12 -41 rlineto
          -9 28 28 71 callsubr
          -58 107 -199 -83 -111 -18 -19 -76 hvcurveto
          -32 vlineto
          90 -9 rlineto
          -531 vlineto
          -86 -25 rlineto
          endchar
        </CharString>
        <CharString name="paragraph">
          -48 256 233 rmoveto
          402 vlineto
          2 -9 -9 0 -11 hhcurveto
          -130 -72 -91 -112 -112 72 -92 130 11 10 0 3 8 hvcurveto
          228 -197 rmoveto
          -91 22 rlineto
          519 vlineto
          91 23 rlineto
          37 -187 -578 vlineto
          -109 -22 rlineto
          -37 296 vlineto
          endchar
        </CharString>
        <CharString name="parenleft">
          -277 151 264 rmoveto
          180 0 177 135 59 vhcurveto
          -11 32 rlineto
          -189 -54 -23 -105 -289 vvcurveto
          -286 23 -106 189 -53 vhcurveto
          11 31 rlineto
          -135 59 0 177 178 vvcurveto
          endchar
        </CharString>
        <CharString name="parenright">
          -277 145 264 rmoveto
          -178 0 -177 -137 -59 vhcurveto
          11 -31 rlineto
          189 53 24 106 286 vvcurveto
          289 -24 105 -189 54 vhcurveto
          -11 -32 rlineto
          137 -59 0 -177 -180 vvcurveto
          endchar
        </CharString>
        <CharString name="partialdiff">
          -41 57 667 rmoveto
          18 -29 rlineto
          22 48 27 9 45 hhcurveto
          144 28 -102 -139 11 hvcurveto
          2 -53 24 -65 -137 -85 -90 -137 -133 58 -104 147 109 138 62 283 273 -107 121 -154 -66 -60 -17 -45 -46 vhcurveto
          202 -621 rmoveto
          -90 -27 61 116 115 43 64 88 48 35 -16 -15 28 hvcurveto
          2 -38 1 -20 -35 vvcurveto
          -150 -40 -82 -88 vhcurveto
          endchar
        </CharString>
        <CharString name="percent">
          316 372 402 rmoveto
          170 -72 56 -91 -92 -74 -58 -168 -166 74 -59 92 91 72 58 callsubr
          -63 hlineto
          -224 -612 rlineto
          -92 252 rmoveto
          -50 -62 26 123 128 62 25 50 49 63 -25 -123 -125 -63 -29 -49 hvcurveto
          636 -34 rmoveto
          27 callgsubr
          -162 -152 rmoveto
          25 callgsubr
        </CharString>
        <CharString name="period">
          -377 165 56 rmoveto
          33 callgsubr
        </CharString>
        <CharString name="periodcentered">
          -343 183 252 3 callsubr
        </CharString>
        <CharString name="perthousand">
          714 374 402 rmoveto
          170 -73 56 -91 -91 -74 -58 -168 -166 74 -59 91 91 73 58 callsubr
          -64 hlineto
          -223 -612 rlineto
          -92 252 rmoveto
          -50 -63 26 123 128 63 25 50 49 62 -25 -123 -125 -62 -29 -49 hvcurveto
          635 -34 rmoveto
          169 -72 56 -91 -92 -73 -58 -167 -167 73 -59 92 91 72 57 169 vhcurveto
          380 hmoveto
          27 callgsubr
          -541 -152 rmoveto
          -52 -61 28 122 128 61 25 52 49 61 -25 -123 -125 -61 -30 -49 hvcurveto
          379 hmoveto
          25 callgsubr
        </CharString>
        <CharString name="pi">
          41 168 -4 rmoveto
          46 15 27 54 hvcurveto
          338 155 -250 vlineto
          -147 36 -23 84 19 36 7 18 36 vhcurveto
          -6 36 rlineto
          -45 hlineto
          -53 -19 35 51 hvcurveto
          273 32 vlineto
          62 18 43 81 hvcurveto
          16 -45 vlineto
          -40 -18 -15 -32 vhcurveto
          -366 hlineto
          -70 -41 -55 -69 hvcurveto
          36 -9 rlineto
          38 23 14 10 54 hhcurveto
          9 -349 hlineto
          -79 -21 rlineto
          -33 vlineto
          -13 41 27 -3 31 hhcurveto
          endchar
        </CharString>
        <CharString name="plus">
          19 callgsubr
          endchar
        </CharString>
        <CharString name="plusminus">
          19 callgsubr
          -166 -254 rmoveto
          394 60 -394 hlineto
          endchar
        </CharString>
        <CharString name="product">
          99 38 hmoveto
          29 callsubr
          -89 29 callgsubr
          221 -496 vlineto
          -87 -21 rlineto
          -37 275 37 vlineto
          -89 29 callgsubr
          vlineto
          89 -10 callgsubr
          -596 -37 vlineto
          88 -77 callsubr
          -88 -21 rlineto
          endchar
        </CharString>
        <CharString name="q">
          -18 473 -108 rmoveto
          602 -32 vlineto
          -36 -31 rlineto
          26 -49 -52 12 -47 hhcurveto
          -151 -69 -115 -143 -142 60 -111 114 81 36 22 35 49 hvcurveto
          -154 vlineto
          -92 -26 rlineto
          -34 272 34 vlineto
          -183 547 rmoveto
          -320 vlineto
          -24 -27 -43 -14 -45 hhcurveto
          -69 -44 49 153 109 40 80 82 34 37 -10 -23 35 hvcurveto
          endchar
        </CharString>
        <CharString name="question">
          -187 198 628 rmoveto
          -54 -63 -19 -18 -35 hvcurveto
          13 -114 rlineto
          39 hlineto
          20 87 rlineto
          5 21 19 3 16 hhcurveto
          59 35 -26 -62 -93 -59 -52 -105 -55 hvcurveto
          14 -115 rlineto
          47 hlineto
          11 88 rlineto
          157 79 34 74 79 vvcurveto
          82 -62 57 -107 vhcurveto
          -57 -518 rmoveto
          -33 -26 -26 -34 -33 26 -26 33 33 26 26 33 34 -26 26 -33 hvcurveto
          endchar
        </CharString>
        <CharString name="questiondown">
          -187 241 382 rmoveto
          34 26 26 35 32 -26 26 -34 -32 -27 -26 -32 -35 27 -26 32 hvcurveto
          -55 -518 rmoveto
          51 65 19 18 34 hvcurveto
          -13 114 rlineto
          -38 hlineto
          -20 -87 rlineto
          -4 -22 -18 -4 -16 hhcurveto
          -59 -36 26 62 92 60 53 105 55 hvcurveto
          -14 115 rlineto
          -46 hlineto
          -12 -87 rlineto
          -157 -80 -35 -73 -81 vvcurveto
          -80 63 -58 108 vhcurveto
          endchar
        </CharString>
        <CharString name="quotedbl">
          -261 37 698 rmoveto
          34 -231 rlineto
          29 hlineto
          35 231 rlineto
          43 hmoveto
          35 -231 rlineto
          27 hlineto
          35 231 rlineto
          endchar
        </CharString>
        <CharString name="quotedblbase">
          -225 68 56 callsubr
          191 -7 rmoveto
          84 212 -18 21 -82 -20 -14 -206 rlineto
          endchar
        </CharString>
        <CharString name="quotedblleft">
          -248 104 663 rmoveto
          -87 -216 19 -20 84 19 15 211 rlineto
          126 6 57 callsubr
        </CharString>
        <CharString name="quotedblright">
          -248 64 427 64 callgsubr
          188 -7 64 callgsubr
          endchar
        </CharString>
        <CharString name="quoteleft">
          -402 106 663 57 callsubr
        </CharString>
        <CharString name="quoteright">
          -402 65 427 rmoveto
          86 216 -18 20 -85 -20 -14 -209 rlineto
          endchar
        </CharString>
        <CharString name="quotesinglbase">
          -379 72 56 callsubr
          endchar
        </CharString>
        <CharString name="quotesingle">
          -397 39 698 rmoveto
          35 -231 rlineto
          29 hlineto
          34 231 rlineto
          endchar
        </CharString>
        <CharString name="r">
          -166 307 430 -87 callgsubr
          endchar
        </CharString>
        <CharString name="racute">
          -166 149 -9 callsubr
          177 -152 -87 callgsubr
          endchar
        </CharString>
        <CharString name="radical">
          -66 512 685 rmoveto
          89 19 rlineto
          37 -138 vlineto
          -192 -621 -107 371 rlineto
          -149 hlineto
          1 -36 60 -20 150 -449 60 10 rlineto
          endchar
        </CharString>
        <CharString name="rcaron">
          -166 107 -74 callsubr
          89 -204 -87 callgsubr
          endchar
        </CharString>
        <CharString name="rcommaaccent">
          -166 27 hmoveto
          299 36 hlineto
          -114 22 rlineto
          354 vlineto
          11 27 34 7 34 hhcurveto
          21 -83 rlineto
          45 hlineto
          17 155 rlineto
          1 -8 -10 0 -9 hhcurveto
          -49 -59 -19 -29 -45 hvcurveto
          46 -38 vlineto
          -145 -75 callsubr
          -11 rlineto
          -362 vlineto
          -86 -24 rlineto
          96 -258 rmoveto
          37 -3 69 182 -16 17 -77 -16 rlineto
          endchar
        </CharString>
        <CharString name="registered">
          -79 247 209 rmoveto
          21 callgsubr
          -133 110 -111 133 hvcurveto
          1 33 rmoveto
          -117 -93 93 118 117 93 94 117 117 93 -94 -117 -118 -93 -93 -117 hvcurveto
          -125 63 rmoveto
          124 19 hlineto
          -34 8 rlineto
          111 6 vlineto
          27 2 -3 -135 60 hvcurveto
          83 19 hlineto
          -30 8 -33 62 -19 36 -7 15 -17 6 rlinecurve
          55 14 13 41 31 vvcurveto
          34 -27 40 -76 vhcurveto
          -127 -21 hlineto
          33 -7 rlineto
          -251 vlineto
          -33 -8 rlineto
          90 141 rmoveto
          120 18 vlineto
          43 18 -22 -33 -37 -18 -28 -38 hvcurveto
          endchar
        </CharString>
        <CharString name="ring">
          -318 234 625 -37 callgsubr
          endchar
        </CharString>
        <CharString name="ring.case">
          -318 128 631 -53 callsubr
          endchar
        </CharString>
        <CharString name="s">
          -144 226 445 -86 callsubr
          endchar
        </CharString>
        <CharString name="sacute">
          -138 132 -9 callsubr
          114 -137 rmoveto
          25 28 -7 -8 17 hvcurveto
          21 -73 rlineto
          38 hlineto
          15 113 rlineto
          20 -45 -50 11 -46 49 callgsubr
          58 -20 17 -18 -32 vvcurveto
          -56 -38 -25 -65 -36 -26 6 6 -20 vhcurveto
          -21 83 rlineto
          -39 hlineto
          -14 1 callsubr
          -17 45 64 -9 45 hhcurveto
          125 67 60 93 69 -26 37 -82 28 hvcurveto
          -85 29 rlineto
          -47 17 -17 17 39 vvcurveto
          42 35 24 59 vhcurveto
          endchar
        </CharString>
        <CharString name="sacute.loclPLK">
          -144 202 -32 callgsubr
          46 -116 -86 callsubr
          endchar
        </CharString>
        <CharString name="scaron">
          -136 191 549 rmoveto
          68 hlineto
          102 140 -25 19 -111 -86 -110 86 -27 -19 rlineto
          118 -699 rmoveto
          125 67 60 86 80 -32 35 -78 26 hvcurveto
          -87 29 rlineto
          -47 17 -17 17 39 vvcurveto
          42 35 24 60 24 28 -7 -8 17 vhcurveto
          21 -73 rlineto
          38 hlineto
          15 113 rlineto
          20 -45 -50 11 -46 hhcurveto
          -122 -58 -56 -91 -69 32 -38 69 -26 hvcurveto
          77 -27 rlineto
          57 -20 22 -19 -40 vvcurveto
          -43 -39 -28 -64 -37 -26 6 6 -19 vhcurveto
          -21 83 rlineto
          -40 hlineto
          -13 1 callsubr
          -17 45 63 -9 46 hhcurveto
          endchar
        </CharString>
        <CharString name="scedilla">
          -138 177 -219 rmoveto
          72 64 46 56 38 -33 33 -72 hvcurveto
          12 37 rlineto
          111 7 59 57 88 vvcurveto
          69 -26 37 -82 28 vhcurveto
          -85 29 rlineto
          -47 17 -17 17 39 vvcurveto
          42 34 24 60 25 27 -7 -8 18 vhcurveto
          -16 callgsubr
          41 -16 55 -8 44 -2 rlinecurve
          -20 -59 16 callgsubr
        </CharString>
        <CharString name="scircumflex">
          -144 326 554 -83 callsubr
          11 -198 -86 callsubr
          endchar
        </CharString>
        <CharString name="scommaaccent">
          -138 227 445 rmoveto
          25 27 -7 -8 18 hvcurveto
          -16 callgsubr
          rlineto
          -17 45 63 -9 46 hhcurveto
          125 67 60 93 69 -26 37 -82 28 hvcurveto
          -85 29 rlineto
          -47 17 -17 17 39 vvcurveto
          42 34 24 60 vhcurveto
          -25 -671 rmoveto
          68 182 -17 17 -76 -16 -12 -180 rlineto
          endchar
        </CharString>
        <CharString name="section">
          -223 255 578 rmoveto
          19 -80 rlineto
          39 hlineto
          15 116 rlineto
          0 -61 25 -80 -82 -69 -37 -76 -80 57 -18 230 -214 vhcurveto
          5 11 3 10 24 86 -221 109 73 vvcurveto
          54 42 6 40 23 27 -5 -4 13 vhcurveto
          -186 -442 rmoveto
          -35 hlineto
          -13 -124 rlineto
          2 68 -21 80 hhcurveto
          92 65 48 73 65 -58 21 -235 218 hvcurveto
          -6 -11 -2 -14 -16 -90 224 -104 -71 vvcurveto
          -48 -40 -20 -50 -31 -26 7 4 -13 vhcurveto
          endchar
        </CharString>
        <CharString name="semicolon">
          -383 162 398 rmoveto
          36 -31 30 -37 -36 -31 -30 -36 -37 31 -28 36 37 31 28 37 vhcurveto
          -99 -516 rmoveto
          87 216 -19 20 -84 -19 -15 -211 rlineto
          endchar
        </CharString>
        <CharString name="seven">
          -69 48 465 rmoveto
          45 hlineto
          21 79 rlineto
          274 hlineto
          -256 -543 102 -11 232 569 -15 53 rlineto
          -411 hlineto
          endchar
        </CharString>
        <CharString name="seven.dnom">
          45 327 rmoveto
          45 hlineto
          16 52 rlineto
          170 hlineto
          -173 -377 86 -9 163 395 -12 41 rlineto
          -301 hlineto
          endchar
        </CharString>
        <CharString name="seven.numr">
          45 500 10 callsubr
          394 -12 41 rlineto
          -301 hlineto
          endchar
        </CharString>
        <CharString name="seven.osf">
          -69 48 378 rmoveto
          45 hlineto
          21 78 rlineto
          277 hlineto
          -122 -180 -89 -182 -47 -183 101 -11 rcurveline
          39 194 72 187 124 191 -15 53 rcurveline
          -414 hlineto
          endchar
        </CharString>
        <CharString name="seveneighths">
          377 366 -28 callsubr
          -254 522 10 callsubr
          394 -12 41 rlineto
          -301 hlineto
          560 -505 -93 callgsubr
        </CharString>
        <CharString name="six">
          -43 callsubr
        </CharString>
        <CharString name="six.dnom">
          126 237 rmoveto
          103 13 69 56 62 hhcurveto
          9 20 -2 46 callsubr
          -208 -97 30 -81 55 callgsubr
          -18 -29 hvcurveto
          -5 -77 rmoveto
          31 20 17 callsubr
          68 -2 hvcurveto
          endchar
        </CharString>
        <CharString name="six.numr">
          193 162 rmoveto
          146 23 96 54 62 -34 60 -99 -40 -35 -11 -20 -28 hvcurveto
          112 10 72 50 62 hhcurveto
          9 20 -1 46 callsubr
          -207 -98 30 -81 125 hvcurveto
          -1 45 rmoveto
          -52 -17 55 68 -2 hvcurveto
          30 20 38 27 36 hhcurveto
          49 12 -40 -50 -52 -26 -38 -58 hvcurveto
          endchar
        </CharString>
        <CharString name="six.osf">
          -43 callsubr
        </CharString>
        <CharString name="slash">
          -221 347 697 rmoveto
          -70 hlineto
          -271 -835 rlineto
          69 hlineto
          endchar
        </CharString>
        <CharString name="space">
          -380 endchar
        </CharString>
        <CharString name="sterling">
          -60 229 160 rmoveto
          1 103 rlineto
          184 hlineto
          9 49 rlineto
          -193 38 hlineto
          124 7 90 87 20 19 -3 -6 20 vhcurveto
          22 -92 rlineto
          44 hlineto
          10 129 rlineto
          17 -43 -52 11 -56 hhcurveto
          -139 -32 -102 -206 hvcurveto
          -93 hlineto
          -8 -49 rlineto
          101 -103 hlineto
          -75 -98 -42 0 vhcurveto
          13 -43 rlineto
          408 hlineto
          30 98 -21 15 -50 -48 -272 -11 rlineto
          41 21 41 43 42 vvcurveto
          endchar
        </CharString>
        <CharString name="summation">
          -51 424 466 rmoveto
          44 153 -460 -45 hlineto
          230 -313 -232 -315 rlineto
          -30 470 175 -45 vlineto
          -25 -91 rlineto
          -288 hlineto
          210 280 rlineto
          10 vlineto
          -196 271 rlineto
          268 hlineto
          endchar
        </CharString>
        <CharString name="t">
          -11 callgsubr
          endchar
        </CharString>
        <CharString name="tbar">
          -221 340 426 rmoveto
          65 -149 111 -45 vlineto
          -44 -100 -82 -29 rlineto
          -39 73 -125 -62 -49 62 -188 vlineto
          -40 15 -41 66 31 79 9 12 42 vhcurveto
          34 vlineto
          -135 20 rlineto
          194 130 49 -130 125 vlineto
          endchar
        </CharString>
        <CharString name="tcaron">
          -221 256 735 rmoveto
          32 -217 rlineto
          29 hlineto
          31 198 -59 19 rlineto
          38 -723 rmoveto
          12 callgsubr
          -40 15 -41 66 31 79 9 12 41 vhcurveto
          endchar
        </CharString>
        <CharString name="thorn">
          -6 9 -167 rmoveto
          287 36 hlineto
          -103 25 rlineto
          538 vlineto
          8 20 32 6 31 hhcurveto
          135 11 -107 -92 -103 -18 -93 -127 -11 -16 2 1 -9 hvcurveto
          -12 -41 rlineto
          -9 31 25 71 callsubr
          -61 107 -187 -30 -31 -2 -3 -29 hvcurveto
          232 -31 -5 callsubr
          -757 vlineto
          -86 -25 rlineto
          endchar
        </CharString>
        <CharString name="three">
          -69 245 628 rmoveto
          -70 -76 -25 -29 -48 hvcurveto
          23 -47 rlineto
          25 52 49 11 34 hhcurveto
          70 32 -33 -52 -68 -41 -51 -115 -12 hvcurveto
          3 -48 rlineto
          84 96 -11 -115 -86 -65 -36 -84 -36 -41 6 21 -61 hvcurveto
          -14 -55 rlineto
          -20 50 64 -13 67 hhcurveto
          147 78 60 123 87 -60 61 -93 14 71 callgsubr
          vhcurveto
          endchar
        </CharString>
        <CharString name="three.dnom">
          199 439 -69 callgsubr
        </CharString>
        <CharString name="three.numr">
          199 610 -34 callgsubr
          endchar
        </CharString>
        <CharString name="three.osf">
          -69 176 -100 rmoveto
          163 95 77 112 88 -56 54 -88 12 71 callgsubr
          -70 -76 -25 -29 -48 vhcurveto
          23 -47 rlineto
          25 52 49 11 35 hhcurveto
          69 32 -33 -53 -67 -41 -51 -115 -12 hvcurveto
          3 -48 rlineto
          100 -1 73 -15 -100 vvcurveto
          -92 -75 -43 -110 -27 -18 2 5 -47 vhcurveto
          -2 -51 rlineto
          -10 44 34 -2 46 hhcurveto
          endchar
        </CharString>
        <CharString name="threeeighths">
          411 416 -28 callsubr
          -150 632 -34 callgsubr
          434 -513 -93 callgsubr
        </CharString>
        <CharString name="threequarters">
          355 388 76 callgsubr
          -66 hlineto
          -226 -644 rlineto
          -129 633 rmoveto
          -52 -52 59 callgsubr
          42 21 -22 -34 -44 -29 -40 -81 -8 hvcurveto
          4 -38 rlineto
          58 67 -8 -74 -57 -40 -27 -57 -23 -29 5 17 76 callsubr
          -15 37 49 -11 47 hhcurveto
          106 58 43 88 56 -39 42 -63 12 hvcurveto
          45 21 36 38 53 vvcurveto
          64 -56 31 -68 vhcurveto
          535 -611 rmoveto
          80 91 58 50 -58 289 hlineto
          -66 6 -229 -310 13 -35 rlineto
          202 hlineto
          -137 50 rmoveto
          137 185 rlineto
          -185 vlineto
          endchar
        </CharString>
        <CharString name="tilde">
          -318 281 679 rmoveto
          -35 14 rlineto
          0 -19 -34 -23 vhcurveto
          -37 -20 callgsubr
          endchar
        </CharString>
        <CharString name="tilde.case">
          -318 281 763 -91 callsubr
          endchar
        </CharString>
        <CharString name="tildecomb">
          -573 26 763 -91 callsubr
          endchar
        </CharString>
        <CharString name="trademark">
          280 69 278 rmoveto
          187 26 hlineto
          -59 11 rlineto
          288 76 vlineto
          13 -51 rlineto
          33 hlineto
          3 93 rlineto
          -318 hlineto
          3 -93 rlineto
          32 hlineto
          14 51 rlineto
          75 -288 hlineto
          -59 -11 rlineto
          464 -33 rmoveto
          51 8 101 287 11 -251 -52 -11 rlineto
          -25 174 25 vlineto
          -54 11 -12 292 51 12 rlineto
          26 -133 vlineto
          -99 -280 -97 280 rlineto
          -136 -26 hlineto
          48 -11 -12 -293 -47 -11 rlineto
          -25 143 25 vlineto
          -52 11 8 250 rlineto
          endchar
        </CharString>
        <CharString name="two">
          -69 42 hmoveto
          411 hlineto
          14 151 rlineto
          -43 hlineto
          -40 -80 -260 -4 171 155 rlineto
          83 76 59 74 90 vvcurveto
          122 -88 44 -109 -75 -69 -26 -27 -49 vhcurveto
          22 -50 rlineto
          22 49 45 14 54 hhcurveto
          76 39 -44 -61 -72 -34 -56 -64 -63 hvcurveto
          -210 -209 rlineto
          endchar
        </CharString>
        <CharString name="two.dnom">
          182 390 -26 callgsubr
        </CharString>
        <CharString name="two.numr">
          185 563 -24 callgsubr
          endchar
        </CharString>
        <CharString name="two.osf">
          -69 423 151 rmoveto
          -40 -80 -246 -4 146 102 rlineto
          101 70 52 45 90 vvcurveto
          116 -89 46 -105 -79 -67 -26 -27 -50 vhcurveto
          22 -50 rlineto
          24 53 48 12 43 hhcurveto
          83 36 -44 -62 -60 -33 -34 -57 -44 hvcurveto
          -218 -168 18 -57 rlineto
          411 hlineto
          14 151 rlineto
          endchar
        </CharString>
        <CharString name="u">
          31 584 12 rmoveto
          -4 callsubr
          -33 vlineto
          -105 callsubr
          endchar
        </CharString>
        <CharString name="uacute">
          35 207 45 callsubr
          395 -570 -98 callgsubr
        </CharString>
        <CharString name="ubreve">
          31 301 -62 callgsubr
          283 -565 rmoveto
          -4 callsubr
          -33 vlineto
          -105 callsubr
          endchar
        </CharString>
        <CharString name="ucircumflex">
          35 399 30 callsubr
          295 -631 -98 callgsubr
        </CharString>
        <CharString name="udieresis">
          35 251 -1 callgsubr
          125 -627 -98 callgsubr
        </CharString>
        <CharString name="ugrave">
          35 376 19 callsubr
          428 -651 -98 callgsubr
        </CharString>
        <CharString name="uhorn">
          31 652 565 -98 callsubr
          endchar
        </CharString>
        <CharString name="uhungarumlaut">
          35 170 546 rmoveto
          149 82 callsubr
          -81 vlineto
          -90 -159 rlineto
          183 -15 rmoveto
          149 82 callsubr
          -81 vlineto
          -90 -159 rlineto
          274 -549 -98 callgsubr
        </CharString>
        <CharString name="umacron">
          35 184 668 rmoveto
          -60 224 60 vlineto
          175 -656 -98 callgsubr
        </CharString>
        <CharString name="underscore">
          -132 441 -65 rmoveto
          46 -441 -46 vlineto
          endchar
        </CharString>
        <CharString name="uni00A0">
          -377 endchar
        </CharString>
        <CharString name="uni00AD">
          -292 273 209 rmoveto
          53 -264 -53 vlineto
          endchar
        </CharString>
        <CharString name="uni00B2">
          182 670 rmoveto
          44 24 -28 -42 -51 -28 -42 -43 -43 hvcurveto
          -147 -145 12 -41 rlineto
          301 hlineto
          8 104 -41 5 -27 -55 rlineto
          -162 hlineto
          108 101 rlineto
          53 51 52 60 57 vvcurveto
          87 -65 30 -80 -53 -54 -17 -21 -35 vhcurveto
          18 -40 rlineto
          19 42 36 11 37 hhcurveto
          endchar
        </CharString>
        <CharString name="uni00B3">
          199 716 rmoveto
          -51 -53 -18 -22 -36 hvcurveto
          18 -40 rlineto
          20 41 35 11 21 hhcurveto
          43 20 -22 -33 -45 -29 -40 -80 -8 hvcurveto
          3 -39 rlineto
          59 66 -7 -75 -56 -40 -26 -57 -22 -30 4 18 76 callsubr
          -16 38 48 -10 47 hhcurveto
          106 58 43 86 57 -38 41 -64 14 hvcurveto
          46 22 35 36 53 vvcurveto
          64 -56 31 -68 vhcurveto
          endchar
        </CharString>
        <CharString name="uni00B5">
          -44 callsubr
        </CharString>
        <CharString name="uni00B9">
          63 647 rmoveto
          114 -368 82 callgsubr
        </CharString>
        <CharString name="uni0162">
          -52 230 -219 rmoveto
          28 callgsubr
          14 46 rlineto
          135 -38 callsubr
          -37 128 vlineto
          -24 -69 4 -12 rlineto
          52 -29 callsubr
          endchar
        </CharString>
        <CharString name="uni0163">
          -221 155 -219 rmoveto
          72 64 46 56 38 -33 33 -72 hvcurveto
          12 38 37 2 59 8 33 10 rlinecurve
          12 callgsubr
          -37 13 -38 55 -6 vhcurveto
          -21 -60 16 callgsubr
        </CharString>
        <CharString name="uni018F">
          75 318 -9 rmoveto
          207 86 134 184 174 -78 145 -221 -84 -74 -21 -34 -66 hvcurveto
          8 1 callsubr
          42 hlineto
          25 88 rlineto
          25 52 51 9 40 hhcurveto
          144 48 -116 -125 5 hvcurveto
          -465 -23 hlineto
          -213 97 -104 183 vhcurveto
          3 55 rmoveto
          -111 -56 71 162 -8 hvcurveto
          357 hlineto
          -110 -6 -30 -123 -146 hhcurveto
          endchar
        </CharString>
        <CharString name="uni019D">
          127 449 612 rmoveto
          -19 callgsubr
          -575 vlineto
          -37 -17 -50 -53 vhcurveto
          -46 hlineto
          -5 -35 rlineto
          -18 33 33 -7 20 hhcurveto
          51 46 42 132 hvcurveto
          471 vlineto
          339 -7 callgsubr
          83 -6 callgsubr
          vlineto
          endchar
        </CharString>
        <CharString name="uni01C4">
          569 853 648 40 callsubr
          -446 -168 rmoveto
          -25 callgsubr
          -37 283 vlineto
          206 80 144 175 174 -84 119 -219 hvcurveto
          800 -460 -78 callgsubr
          -797 560 10 callgsubr
        </CharString>
        <CharString name="uni01C5">
          534 764 -74 callsubr
          -572 -22 -76 callgsubr
          650 -128 -84 callgsubr
          endchar
        </CharString>
        <CharString name="uni01C6">
          461 376 47 rmoveto
          -80 callsubr
          38 callgsubr
          315 673 rmoveto
          -26 -20 103 -140 rlineto
          68 hlineto
          101 140 -25 20 -110 -86 rlineto
          71 -202 -84 callgsubr
          -430 -377 15 callgsubr
        </CharString>
        <CharString name="uni01C7">
          219 472 hmoveto
          152 -43 vlineto
          -66 callsubr
          -37 vlineto
          508 -149 -79 callsubr
        </CharString>
        <CharString name="uni01C8">
          217 712 2 callsubr
          -240 -640 rmoveto
          152 -43 vlineto
          -66 callsubr
          -37 vlineto
          474 463 -86 callgsubr
        </CharString>
        <CharString name="uni01C9">
          40 14 callsubr
          519 602 -42 callsubr
          -201 -177 -86 callgsubr
        </CharString>
        <CharString name="uni01CA">
          437 449 612 -81 callsubr
          85 -761 -79 callsubr
        </CharString>
        <CharString name="uni01CB">
          435 930 2 callsubr
          -481 -28 -81 callsubr
          51 -149 -86 callgsubr
        </CharString>
        <CharString name="uni01CC">
          361 856 2 callsubr
          -642 -179 rmoveto
          40 78 callgsubr
          -94 callgsubr
          441 2 -86 callgsubr
        </CharString>
        <CharString name="uni01CD">
          21 264 648 40 callsubr
          -26 -723 -101 callsubr
        </CharString>
        <CharString name="uni01CE">
          -62 142 -74 callsubr
          -21 -194 -107 callgsubr
          endchar
        </CharString>
        <CharString name="uni01CF">
          -223 143 648 40 callsubr
          -2 -780 rmoveto
          -92 callsubr
          endchar
        </CharString>
        <CharString name="uni01D0">
          -254 49 -74 callsubr
          139 -596 rmoveto
          -89 callgsubr
          -38 271 vlineto
          endchar
        </CharString>
        <CharString name="uni01D1">
          87 297 648 40 callsubr
          138 -153 rmoveto
          -105 callgsubr
          endchar
        </CharString>
        <CharString name="uni01D2">
          -27 163 -74 callsubr
          -1 -133 rmoveto
          -102 callgsubr
        </CharString>
        <CharString name="uni01D3">
          81 295 648 40 callsubr
          370 -544 -103 callgsubr
          endchar
        </CharString>
        <CharString name="uni01D4">
          31 192 -74 callsubr
          281 -622 rmoveto
          -4 callsubr
          -33 vlineto
          -105 callsubr
          endchar
        </CharString>
        <CharString name="uni01D5">
          81 217 924 18 callsubr
          -155 -203 -96 callsubr
          68 -485 -103 callgsubr
          endchar
        </CharString>
        <CharString name="uni01D6">
          31 191 803 18 callsubr
          -155 -203 -96 callsubr
          117 -588 rmoveto
          -4 callsubr
          -33 vlineto
          -105 callsubr
          endchar
        </CharString>
        <CharString name="uni01D7">
          81 287 817 -80 callgsubr
          20 -120 -96 callsubr
          68 -485 -103 callgsubr
          endchar
        </CharString>
        <CharString name="uni01D8">
          31 261 696 -80 callgsubr
          20 -120 -96 callsubr
          117 -588 rmoveto
          -4 callsubr
          -33 vlineto
          -105 callsubr
          endchar
        </CharString>
        <CharString name="uni01D9">
          81 297 820 40 callsubr
          94 -231 -96 callsubr
          68 -485 -103 callgsubr
          endchar
        </CharString>
        <CharString name="uni01DA">
          31 271 699 40 callsubr
          94 -231 -96 callsubr
          117 -588 rmoveto
          -4 callsubr
          -33 vlineto
          -105 callsubr
          endchar
        </CharString>
        <CharString name="uni01DB">
          81 376 817 -27 callgsubr
          132 -201 -96 callsubr
          68 -485 -103 callgsubr
          endchar
        </CharString>
        <CharString name="uni01DC">
          31 350 696 -27 callgsubr
          132 -201 -96 callsubr
          117 -588 rmoveto
          -4 callsubr
          -33 vlineto
          -105 callsubr
          endchar
        </CharString>
        <CharString name="uni01EA">
          87 502 -145 rmoveto
          -33 -18 20 35 48 25 55 40 33 hvcurveto
          74 58 32 97 108 vvcurveto
          -52 callgsubr
          -211 -82 -144 -174 -174 85 -144 208 38 34 5 9 30 vhcurveto
          -38 -41 -17 -41 -33 vvcurveto
          -42 27 -43 69 64 31 45 9 5 vhcurveto
          -18 18 rlineto
          -16 -18 -18 -6 -18 hhcurveto
          -357 454 rmoveto
          109 28 154 152 158 32 -154 -109 -62 callsubr
          -157 -32 152 111 vhcurveto
          endchar
        </CharString>
        <CharString name="uni01EB">
          -27 419 -149 rmoveto
          -33 -18 20 34 47 30 59 33 29 hvcurveto
          55 47 24 74 82 vvcurveto
          143 -65 115 -172 -170 -67 69 callsubr
          68 -115 169 28 24 3 6 23 vhcurveto
          -37 -41 -16 -41 -31 vvcurveto
          -42 26 -43 71 67 32 54 0 vhcurveto
          -19 18 rlineto
          -16 -17 -18 -6 -18 hhcurveto
          -275 395 rmoveto
          115 26 86 100 105 27 -86 -115 -44 callgsubr
          -105 -27 87 115 vhcurveto
          endchar
        </CharString>
        <CharString name="uni01F1">
          569 303 612 rmoveto
          -25 callgsubr
          -37 283 vlineto
          206 80 144 175 174 -84 119 -219 hvcurveto
          800 -460 -78 callgsubr
          -797 560 10 callgsubr
        </CharString>
        <CharString name="uni01F2">
          534 303 612 -76 callgsubr
          650 -128 -84 callgsubr
          endchar
        </CharString>
        <CharString name="uni01F3">
          461 376 47 rmoveto
          -80 callsubr
          38 callgsubr
          497 385 -84 callgsubr
          -430 -377 15 callgsubr
        </CharString>
        <CharString name="uni01F4">
          33 260 645 -80 callgsubr
          209 -109 -96 callgsubr
        </CharString>
        <CharString name="uni01F5">
          -61 180 -67 callsubr
          55 -759 -99 callgsubr
        </CharString>
        <CharString name="uni0200">
          21 218 -67 callgsubr
          -110 -729 -101 callsubr
        </CharString>
        <CharString name="uni0201">
          -62 191 -68 callsubr
          28 -262 -107 callgsubr
          endchar
        </CharString>
        <CharString name="uni0202">
          21 298 -72 callsubr
          -164 -733 -101 callsubr
        </CharString>
        <CharString name="uni0203">
          -62 253 -72 callgsubr
          -21 -269 -107 callgsubr
          endchar
        </CharString>
        <CharString name="uni0204">
          -29 193 -67 callgsubr
          162 -395 -101 callgsubr
          endchar
        </CharString>
        <CharString name="uni0205">
          -99 177 -68 callsubr
          74 -713 -103 callsubr
        </CharString>
        <CharString name="uni0206">
          -29 273 -72 callsubr
          108 -399 -101 callgsubr
          endchar
        </CharString>
        <CharString name="uni0207">
          -99 239 -72 callgsubr
          25 -720 -103 callsubr
        </CharString>
        <CharString name="uni0208">
          -223 97 -67 callgsubr
          -86 -786 rmoveto
          -92 callsubr
          endchar
        </CharString>
        <CharString name="uni0209">
          -254 98 -68 callsubr
          188 -664 rmoveto
          -89 callgsubr
          -38 271 vlineto
          endchar
        </CharString>
        <CharString name="uni020A">
          -223 177 -72 callsubr
          -140 -790 rmoveto
          -92 callsubr
          endchar
        </CharString>
        <CharString name="uni020B">
          -254 160 -72 callgsubr
          139 -671 rmoveto
          -89 callgsubr
          -38 271 vlineto
          endchar
        </CharString>
        <CharString name="uni020C">
          87 251 -67 callgsubr
          54 -159 rmoveto
          -105 callgsubr
          endchar
        </CharString>
        <CharString name="uni020D">
          -27 212 -68 callsubr
          48 -201 rmoveto
          -102 callgsubr
        </CharString>
        <CharString name="uni020E">
          87 331 -72 callsubr
          -163 vmoveto
          -105 callgsubr
          endchar
        </CharString>
        <CharString name="uni020F">
          -27 274 -72 callgsubr
          -1 -208 rmoveto
          -102 callgsubr
        </CharString>
        <CharString name="uni0210">
          -3 206 -67 callgsubr
          202 -786 rmoveto
          -90 callsubr
          endchar
        </CharString>
        <CharString name="uni0211">
          -166 143 -68 callsubr
          151 -272 -87 callgsubr
          endchar
        </CharString>
        <CharString name="uni0212">
          -3 286 -72 callsubr
          148 -790 rmoveto
          -90 callsubr
          endchar
        </CharString>
        <CharString name="uni0213">
          -166 205 -72 callgsubr
          102 -279 -87 callgsubr
          endchar
        </CharString>
        <CharString name="uni0214">
          81 249 -67 callgsubr
          286 -550 -103 callgsubr
          endchar
        </CharString>
        <CharString name="uni0215">
          31 241 -68 callsubr
          330 -690 rmoveto
          -4 callsubr
          -33 vlineto
          -105 callsubr
          endchar
        </CharString>
        <CharString name="uni0216">
          81 329 -72 callsubr
          232 -554 -103 callgsubr
          endchar
        </CharString>
        <CharString name="uni0217">
          31 303 -72 callgsubr
          281 -697 rmoveto
          -4 callsubr
          -33 vlineto
          -105 callsubr
          endchar
        </CharString>
        <CharString name="uni021A">
          -52 112 hmoveto
          298 -38 callsubr
          97 -260 rmoveto
          36 -3 68 182 -16 17 -77 -16 rlineto
          endchar
        </CharString>
        <CharString name="uni021B">
          -221 176 -9 rmoveto
          31 79 9 12 41 hvcurveto
          12 callgsubr
          -40 15 -41 66 vhcurveto
          -35 -214 rmoveto
          37 -3 69 -14 callgsubr
        </CharString>
        <CharString name="uni0232">
          -4 172 8 callsubr
          -36 -177 rmoveto
          -69 callsubr
          -211 vlineto
          endchar
        </CharString>
        <CharString name="uni0232.loclGUA">
          96 222 8 callsubr
          -252 -834 -50 callsubr
        </CharString>
        <CharString name="uni0233">
          -81 134 36 callsubr
          -146 -177 -58 callsubr
          endchar
        </CharString>
        <CharString name="uni0233.loclGUA">
          4 176 36 callsubr
          -575 vmoveto
          -93 callsubr
        </CharString>
        <CharString name="uni0237">
          -265 29 463 -86 callgsubr
        </CharString>
        <CharString name="uni0259">
          -99 210 502 rmoveto
          -73 -50 -16 -32 -52 hvcurveto
          7 -35 rlineto
          14 50 55 9 41 hhcurveto
          91 53 -59 -119 hvcurveto
          -29 -300 vlineto
          -2 -19 -1 -22 -14 vvcurveto
          -130 60 -60 132 134 85 81 177 156 -68 98 -162 vhcurveto
          120 -308 rmoveto
          -103 -5 -28 -45 -82 hhcurveto
          -60 -22 41 74 hvcurveto
          22 vlineto
          endchar
        </CharString>
        <CharString name="uni0272">
          53 522 58 rmoveto
          335 vlineto
          81 -61 27 -69 -65 -78 -25 -15 -35 vhcurveto
          40 78 callgsubr
          -37 rlineto
          -32 58 callgsubr
          -442 vlineto
          -37 -17 -50 -53 vhcurveto
          -46 hlineto
          -5 -35 rlineto
          -18 35 36 -7 18 hhcurveto
          -3 callgsubr
          362 vlineto
          9 33 43 6 43 hhcurveto
          71 19 -11 -52 hvcurveto
          -313 vlineto
          -75 -25 rlineto
          -33 261 33 vlineto
          endchar
        </CharString>
        <CharString name="uni02B0">
          -102 392 327 rmoveto
          247 vlineto
          59 -45 20 -50 -45 -63 -16 -13 -27 vhcurveto
          200 -27 35 callgsubr
          60 -8 rlineto
          -436 vlineto
          -60 50 callgsubr
          31 4 31 hhcurveto
          50 49 callsubr
          endchar
        </CharString>
        <CharString name="uni02BC">
          -318 113 25 callsubr
          endchar
        </CharString>
        <CharString name="uni02C9">
          -318 15 648 18 callsubr
          endchar
        </CharString>
        <CharString name="uni02E1">
          -333 224 309 rmoveto
          -62 18 rlineto
          497 -27 35 callgsubr
          60 -8 rlineto
          -436 vlineto
          -60 -18 rlineto
          -31 207 vlineto
          endchar
        </CharString>
        <CharString name="uni02E2">
          -224 183 607 rmoveto
          19 18 -4 -6 12 hvcurveto
          15 -55 rlineto
          35 hlineto
          10 89 rlineto
          14 -33 -38 8 -36 hhcurveto
          -95 -40 -43 -65 -57 23 -28 48 -18 hvcurveto
          63 -24 rlineto
          38 -14 14 -13 -27 vvcurveto
          -34 -27 -15 -43 -27 -19 4 6 -14 vhcurveto
          -17 61 rlineto
          -32 hlineto
          -10 -96 rlineto
          -13 34 47 -7 36 hhcurveto
          96 49 50 62 60 -26 25 -55 20 hvcurveto
          -66 25 rlineto
          -31 10 -13 12 26 vvcurveto
          30 23 17 42 vhcurveto
          endchar
        </CharString>
        <CharString name="uni0302">
          -573 -10 648 -92 callgsubr
          endchar
        </CharString>
        <CharString name="uni0304">
          -573 -240 8 callsubr
          endchar
        </CharString>
        <CharString name="uni0306">
          -573 -128 -63 callsubr
          endchar
        </CharString>
        <CharString name="uni0307">
          -573 -61 -36 callsubr
          endchar
        </CharString>
        <CharString name="uni0308">
          -573 -168 -6 callsubr
        </CharString>
        <CharString name="uni030A">
          -573 -127 631 -53 callsubr
          endchar
        </CharString>
        <CharString name="uni030B">
          -573 -263 -45 callsubr
          endchar
        </CharString>
        <CharString name="uni030C">
          -573 -161 648 40 callsubr
          endchar
        </CharString>
        <CharString name="uni030F">
          -573 -146 -68 callsubr
          endchar
        </CharString>
        <CharString name="uni030F.case">
          -573 -153 -67 callgsubr
          endchar
        </CharString>
        <CharString name="uni0311">
          -573 -127 -72 callgsubr
          endchar
        </CharString>
        <CharString name="uni0311.case">
          -573 -127 -72 callsubr
          endchar
        </CharString>
        <CharString name="uni031B">
          -573 -163 529 rmoveto
          -6 -13 rlineto
          3 -13 2 -16 -12 vvcurveto
          -44 -26 -9 -37 vhcurveto
          -38 -45 10 hlineto
          88 90 39 70 15 -4 24 -9 18 hvcurveto
          endchar
        </CharString>
        <CharString name="uni0326">
          -573 -144 -226 rmoveto
          68 182 -16 17 -77 -16 -11 -180 rlineto
          endchar
        </CharString>
        <CharString name="uni0327">
          -573 -138 -46 rmoveto
          16 53 rlineto
          -34 hlineto
          -27 -76 5 -12 rlineto
          51 -29 callsubr
          28 callgsubr
          endchar
        </CharString>
        <CharString name="uni0328">
          -573 -95 1 callgsubr
        </CharString>
        <CharString name="uni0394">
          9 callsubr
        </CharString>
        <CharString name="uni03A9">
          -46 callsubr
        </CharString>
        <CharString name="uni03BC">
          -44 callsubr
        </CharString>
        <CharString name="uni1E0C">
          71 303 612 -76 callgsubr
          93 -669 -100 callsubr
          endchar
        </CharString>
        <CharString name="uni1E0D">
          -5 376 47 rmoveto
          -80 callsubr
          38 callgsubr
          -119 8 -37 callsubr
          95 -164 -100 callsubr
          endchar
        </CharString>
        <CharString name="uni1E24">
          154 38 hmoveto
          -60 callgsubr
          393 -146 -100 callsubr
          endchar
        </CharString>
        <CharString name="uni1E25">
          46 600 hmoveto
          -64 callsubr
          38 -109 -100 callsubr
          endchar
        </CharString>
        <CharString name="uni1E44">
          127 417 -36 callsubr
          32 -110 -81 callsubr
          endchar
        </CharString>
        <CharString name="uni1E45">
          53 380 -20 callsubr
          -166 -179 rmoveto
          40 78 callgsubr
          -94 callgsubr
          endchar
        </CharString>
        <CharString name="uni1E5A">
          -3 434 hmoveto
          -90 callsubr
          69 -429 -100 callsubr
          endchar
        </CharString>
        <CharString name="uni1E5B">
          -166 307 430 -87 callgsubr
          -77 -539 -100 callsubr
          endchar
        </CharString>
        <CharString name="uni1E62">
          -107 44 453 -87 callsubr
          256 -562 -100 callsubr
          endchar
        </CharString>
        <CharString name="uni1E63">
          -144 226 445 -86 callsubr
          56 -554 -100 callsubr
          endchar
        </CharString>
        <CharString name="uni1E6C">
          -10 callsubr
          -185 -721 -100 callsubr
          endchar
        </CharString>
        <CharString name="uni1E6D">
          -11 callgsubr
          -83 -121 -100 callsubr
          endchar
        </CharString>
        <CharString name="uni1E92">
          -61 473 152 -78 callgsubr
          -140 -109 -100 callsubr
          endchar
        </CharString>
        <CharString name="uni1E93">
          -107 305 432 -84 callgsubr
          181 -541 -100 callsubr
          endchar
        </CharString>
        <CharString name="uni1E9E">
          29 8 hmoveto
          237 39 hlineto
          -50 19 rlineto
          350 vlineto
          106 43 56 104 44 37 -11 -15 21 vhcurveto
          -151 -242 18 -33 rlineto
          137 38 -60 -64 -63 -35 -36 -53 -23 -16 6 6 -9 hvcurveto
          -19 88 rlineto
          -43 hlineto
          -14 -125 rlineto
          -21 34 46 -10 44 hhcurveto
          118 64 71 99 86 -49 65 -121 12 hvcurveto
          129 211 -5 32 rlineto
          37 -39 -78 24 -78 hhcurveto
          -160 -83 -89 -154 hvcurveto
          -326 77 callsubr
          endchar
        </CharString>
        <CharString name="uni1EA0">
          21 134 57 -34 callsubr
        </CharString>
        <CharString name="uni1EA1">
          -62 232 440 -107 callgsubr
          98 -325 -100 callsubr
          endchar
        </CharString>
        <CharString name="uni1EA2">
          21 272 740 -106 callgsubr
          281 -683 -50 callgsubr
        </CharString>
        <CharString name="uni1EA3">
          -62 227 619 -106 callgsubr
          217 -553 -76 callsubr
        </CharString>
        <CharString name="uni1EA4">
          21 422 695 rmoveto
          168 177 37 callsubr
          -179 rlineto
          -5 -63 -92 callgsubr
          -138 -671 -101 callsubr
        </CharString>
        <CharString name="uni1EA5">
          -62 400 611 rmoveto
          168 176 37 callsubr
          -178 rlineto
          -12 -73 -83 callsubr
          -20 -203 -107 callgsubr
          endchar
        </CharString>
        <CharString name="uni1EA6">
          21 458 695 -5 callgsubr
          -17 rlineto
          103 -224 -92 callgsubr
          -138 -671 -101 callsubr
        </CharString>
        <CharString name="uni1EA7">
          -62 426 611 -5 callgsubr
          -18 rlineto
          96 -233 -83 callsubr
          -10 -203 -107 callgsubr
          endchar
        </CharString>
        <CharString name="uni1EA8">
          21 379 829 -106 callgsubr
          -51 -101 rmoveto
          120 -80 19 20 -104 -81 callgsubr
          rlineto
          341 -591 -50 callgsubr
        </CharString>
        <CharString name="uni1EA9">
          -62 333 744 -106 callgsubr
          -48 -101 rmoveto
          111 -89 -71 callsubr
          26 -22 rlineto
          269 -488 -76 callsubr
        </CharString>
        <CharString name="uni1EAA">
          21 453 904 -91 callsubr
          -38 -256 -92 callgsubr
          -161 -671 -101 callsubr
        </CharString>
        <CharString name="uni1EAB">
          -62 408 783 -91 callsubr
          -38 -256 -92 callgsubr
          -18 -167 -107 callgsubr
          endchar
        </CharString>
        <CharString name="uni1EAC">
          21 415 648 -92 callgsubr
          -161 -671 -34 callsubr
        </CharString>
        <CharString name="uni1EAD">
          -62 363 554 -83 callsubr
          -20 -203 -107 callgsubr
          98 -325 -100 callsubr
          endchar
        </CharString>
        <CharString name="uni1EAE">
          21 256 779 -80 callgsubr
          61 -142 -83 callgsubr
          endchar
        </CharString>
        <CharString name="uni1EAF">
          -62 211 658 -80 callgsubr
          61 -142 -91 callgsubr
          -20 -100 -107 callgsubr
          endchar
        </CharString>
        <CharString name="uni1EB0">
          21 345 779 -27 callgsubr
          173 -223 -83 callgsubr
          endchar
        </CharString>
        <CharString name="uni1EB1">
          -62 300 658 -27 callgsubr
          173 -223 -91 callgsubr
          -20 -100 -107 callgsubr
          endchar
        </CharString>
        <CharString name="uni1EB2">
          21 274 874 -106 callgsubr
          56 -213 -91 callgsubr
          223 -604 -50 callgsubr
        </CharString>
        <CharString name="uni1EB3">
          -62 229 753 -106 callgsubr
          56 -213 -91 callgsubr
          159 -474 -76 callsubr
        </CharString>
        <CharString name="uni1EB4">
          21 453 897 -91 callsubr
          -156 -236 -83 callgsubr
          endchar
        </CharString>
        <CharString name="uni1EB5">
          -62 408 776 -91 callsubr
          -156 -236 -91 callgsubr
          -20 -100 -107 callgsubr
          endchar
        </CharString>
        <CharString name="uni1EB6">
          21 297 661 -83 callgsubr
          183 -310 -100 callsubr
          endchar
        </CharString>
        <CharString name="uni1EB7">
          -62 251 -62 callgsubr
          -19 -137 -107 callgsubr
          98 -325 -100 callsubr
          endchar
        </CharString>
        <CharString name="uni1EB8">
          -29 381 391 -101 callgsubr
          -84 -500 -100 callsubr
          endchar
        </CharString>
        <CharString name="uni1EB9">
          -99 264 -11 -107 callsubr
          -36 -417 -100 callsubr
          endchar
        </CharString>
        <CharString name="uni1EBA">
          -29 247 740 -106 callgsubr
          246 -588 -22 callsubr
        </CharString>
        <CharString name="uni1EBB">
          -99 213 619 -106 callgsubr
          262 -363 rmoveto
          2 19 1 22 14 vvcurveto
          130 -60 60 -132 -77 callgsubr
          -19 callsubr
          vhcurveto
          -7 35 rlineto
          -14 -50 -55 -9 -41 hhcurveto
          -91 -53 59 119 hvcurveto
          29 vlineto
          117 189 rmoveto
          60 22 -41 -74 hvcurveto
          -22 vlineto
          -197 -11 rlineto
          103 5 28 45 82 hhcurveto
          endchar
        </CharString>
        <CharString name="uni1EBC">
          -29 440 -2 callgsubr
          -59 -393 -101 callgsubr
          endchar
        </CharString>
        <CharString name="uni1EBD">
          -99 323 582 rmoveto
          -48 callgsubr
          34 80 -39 38 hhcurveto
          -59 -593 -103 callsubr
        </CharString>
        <CharString name="uni1EBE">
          -29 397 695 rmoveto
          168 177 37 callsubr
          -179 rlineto
          -5 -63 -92 callgsubr
          134 -337 -101 callgsubr
          endchar
        </CharString>
        <CharString name="uni1EBF">
          -99 386 611 rmoveto
          168 176 37 callsubr
          -178 rlineto
          -12 -73 -83 callsubr
          26 -654 -103 callsubr
        </CharString>
        <CharString name="uni1EC0">
          -29 433 695 -5 callgsubr
          -17 rlineto
          103 -224 -92 callgsubr
          134 -337 -101 callgsubr
          endchar
        </CharString>
        <CharString name="uni1EC1">
          -99 412 611 -5 callgsubr
          -18 rlineto
          96 -233 -83 callsubr
          36 -654 -103 callsubr
        </CharString>
        <CharString name="uni1EC2">
          -29 354 829 -106 callgsubr
          -51 -101 rmoveto
          120 -80 19 20 -104 -81 callgsubr
          rlineto
          306 -496 -22 callsubr
        </CharString>
        <CharString name="uni1EC3">
          -99 319 744 -106 callgsubr
          -48 -101 rmoveto
          111 -89 -71 callsubr
          26 -22 rlineto
          125 -53 rmoveto
          -77 callgsubr
          -19 callsubr
          hvcurveto
          -7 35 rlineto
          -14 -50 -55 -9 -41 hhcurveto
          -91 -53 59 119 hvcurveto
          29 300 vlineto
          2 19 1 22 14 vvcurveto
          130 -60 60 -132 vhcurveto
          88 -193 rmoveto
          -197 -11 rlineto
          103 5 28 45 82 hhcurveto
          60 22 -41 -74 hvcurveto
          endchar
        </CharString>
        <CharString name="uni1EC4">
          -29 428 904 -91 callsubr
          -38 -256 -92 callgsubr
          111 -337 -101 callgsubr
          endchar
        </CharString>
        <CharString name="uni1EC5">
          -99 394 783 -91 callsubr
          -38 -256 -92 callgsubr
          28 -618 -103 callsubr
        </CharString>
        <CharString name="uni1EC6">
          -29 390 648 -92 callgsubr
          111 -337 -101 callgsubr
          -84 -500 -100 callsubr
          endchar
        </CharString>
        <CharString name="uni1EC7">
          -99 349 554 -83 callsubr
          26 -654 -107 callsubr
          -36 -417 -100 callsubr
          endchar
        </CharString>
        <CharString name="uni1EC8">
          -223 151 740 -106 callgsubr
          195 -165 rmoveto
          -78 callsubr
          -37 276 37 vlineto
          -88 29 callgsubr
          vlineto
          endchar
        </CharString>
        <CharString name="uni1EC9">
          -254 134 619 -106 callgsubr
          112 -561 rmoveto
          -84 callsubr
          -86 -20 rlineto
          -38 271 38 vlineto
          endchar
        </CharString>
        <CharString name="uni1ECA">
          -223 37 hmoveto
          -92 callsubr
          206 -146 -100 callsubr
          endchar
        </CharString>
        <CharString name="uni1ECB">
          -256 -29 callgsubr
          -135 -576 rmoveto
          271 38 hlineto
          -89 callgsubr
          198 -147 -100 callsubr
          endchar
        </CharString>
        <CharString name="uni1ECC">
          87 331 627 rmoveto
          -105 callgsubr
          -118 -418 -100 callsubr
          endchar
        </CharString>
        <CharString name="uni1ECD">
          -27 273 501 rmoveto
          -104 callsubr
          -62 -355 -100 callsubr
          endchar
        </CharString>
        <CharString name="uni1ECE">
          87 305 740 -106 callgsubr
          59 -113 -30 callsubr
        </CharString>
        <CharString name="uni1ECF">
          -27 248 619 -106 callgsubr
          58 -118 -22 callgsubr
        </CharString>
        <CharString name="uni1ED0">
          87 455 695 rmoveto
          168 177 37 callsubr
          -179 rlineto
          -5 -63 -92 callgsubr
          26 -101 rmoveto
          -105 callgsubr
          endchar
        </CharString>
        <CharString name="uni1ED1">
          -27 421 611 rmoveto
          168 176 37 callsubr
          -178 rlineto
          -12 -73 -83 callsubr
          -142 vmoveto
          -102 callgsubr
        </CharString>
        <CharString name="uni1ED2">
          87 491 695 -5 callgsubr
          -17 rlineto
          103 -224 -92 callgsubr
          26 -101 rmoveto
          -105 callgsubr
          endchar
        </CharString>
        <CharString name="uni1ED3">
          -27 447 611 -5 callgsubr
          -18 rlineto
          96 -233 -83 callsubr
          10 -142 rmoveto
          -102 callgsubr
        </CharString>
        <CharString name="uni1ED4">
          87 412 829 -106 callgsubr
          -51 -101 rmoveto
          120 -80 19 20 -104 -81 callgsubr
          rlineto
          119 -21 -30 callsubr
        </CharString>
        <CharString name="uni1ED5">
          -27 354 744 -106 callgsubr
          -48 -101 rmoveto
          111 -89 -71 callsubr
          26 -22 rlineto
          110 -53 -22 callgsubr
        </CharString>
        <CharString name="uni1ED6">
          87 486 904 -91 callsubr
          -38 -256 -92 callgsubr
          3 -101 rmoveto
          -105 callgsubr
          endchar
        </CharString>
        <CharString name="uni1ED7">
          -27 429 783 -91 callsubr
          -38 -256 -92 callgsubr
          2 -106 rmoveto
          -102 callgsubr
        </CharString>
        <CharString name="uni1ED8">
          87 448 648 -92 callgsubr
          3 -101 rmoveto
          -105 callgsubr
          -118 -418 -100 callsubr
          endchar
        </CharString>
        <CharString name="uni1ED9">
          -27 384 554 -83 callsubr
          -142 vmoveto
          -104 callsubr
          -62 -355 -100 callsubr
          endchar
        </CharString>
        <CharString name="uni1EDA">
          87 505 20 callgsubr
          385 2 -97 callsubr
          endchar
        </CharString>
        <CharString name="uni1EDB">
          -27 415 663 rmoveto
          19 vlineto
          -83 32 -155 -132 20 -24 rlineto
          362 -22 -95 callgsubr
          endchar
        </CharString>
        <CharString name="uni1EDC">
          87 393 17 callgsubr
          296 2 -97 callsubr
          endchar
        </CharString>
        <CharString name="uni1EDD">
          -27 352 48 callsubr
          224 -22 -95 callgsubr
          endchar
        </CharString>
        <CharString name="uni1EDE">
          87 305 740 -106 callgsubr
          400 -93 -97 callsubr
          endchar
        </CharString>
        <CharString name="uni1EDF">
          -27 248 619 -106 callgsubr
          344 -83 -95 callgsubr
          endchar
        </CharString>
        <CharString name="uni1EE0">
          87 255 706 rmoveto
          -54 callgsubr
          -35 14 -30 callgsubr
          -23 vhcurveto
          -37 -77 39 -39 -66 callgsubr
          35 23 vhcurveto
          417 -59 -97 callsubr
          endchar
        </CharString>
        <CharString name="uni1EE1">
          -27 198 621 rmoveto
          34 80 -39 38 hhcurveto
          -48 callgsubr
          361 -85 -95 callgsubr
          endchar
        </CharString>
        <CharString name="uni1EE2">
          87 672 647 -97 callsubr
          -3 -88 -17 callgsubr
        </CharString>
        <CharString name="uni1EE3">
          -27 559 536 -95 callgsubr
          -2 -86 -17 callgsubr
        </CharString>
        <CharString name="uni1EE4">
          81 561 236 -103 callgsubr
          -166 -345 -100 callsubr
          endchar
        </CharString>
        <CharString name="uni1EE5">
          31 584 12 rmoveto
          -4 callsubr
          -33 vlineto
          -105 callsubr
          -215 -121 -100 callsubr
          endchar
        </CharString>
        <CharString name="uni1EE6">
          81 303 740 -106 callgsubr
          143 -128 rmoveto
          -37 vlineto
          -85 callsubr
          319 vlineto
          81 -6 callgsubr
          vlineto
          endchar
        </CharString>
        <CharString name="uni1EE7">
          31 277 619 -106 callgsubr
          253 -553 rmoveto
          435 -33 vlineto
          -88 callgsubr
          endchar
        </CharString>
        <CharString name="uni1EE8">
          81 503 20 callgsubr
          408 31 -95 callsubr
          endchar
        </CharString>
        <CharString name="uni1EE9">
          31 444 663 rmoveto
          19 vlineto
          -83 32 -155 -132 20 -24 rlineto
          426 7 -98 callsubr
          endchar
        </CharString>
        <CharString name="uni1EEA">
          81 391 17 callgsubr
          319 31 -95 callsubr
          endchar
        </CharString>
        <CharString name="uni1EEB">
          31 381 48 callsubr
          288 7 -98 callsubr
          endchar
        </CharString>
        <CharString name="uni1EEC">
          81 303 740 -106 callgsubr
          423 -64 -95 callsubr
          endchar
        </CharString>
        <CharString name="uni1EED">
          31 277 619 -106 callgsubr
          408 -54 -98 callsubr
          endchar
        </CharString>
        <CharString name="uni1EEE">
          81 253 706 rmoveto
          -54 callgsubr
          -35 14 -30 callgsubr
          -23 vhcurveto
          -37 -77 39 -39 -66 callgsubr
          35 23 vhcurveto
          440 -30 -95 callsubr
          endchar
        </CharString>
        <CharString name="uni1EEF">
          31 227 621 rmoveto
          34 80 -39 38 hhcurveto
          -48 callgsubr
          425 -56 -98 callsubr
          endchar
        </CharString>
        <CharString name="uni1EF0">
          81 693 676 -95 callsubr
          -364 -718 -17 callgsubr
        </CharString>
        <CharString name="uni1EF1">
          31 652 565 -98 callsubr
          -349 -607 -17 callgsubr
        </CharString>
        <CharString name="uni1EF4">
          -4 361 575 rmoveto
          -69 callsubr
          -211 vlineto
          -9 -721 -100 callsubr
          endchar
        </CharString>
        <CharString name="uni1EF5">
          -81 213 491 -58 callsubr
          227 -568 -100 callsubr
          endchar
        </CharString>
        <CharString name="uni1EF6">
          -4 260 740 -106 callgsubr
          134 -128 rmoveto
          -37 vlineto
          -69 callsubr
          vlineto
          endchar
        </CharString>
        <CharString name="uni1EF7">
          -81 222 619 -106 callgsubr
          110 -128 rmoveto
          -37 vlineto
          71 -19 -99 79 callsubr
          -216 -32 vlineto
          56 -35 callgsubr
          -7 -36 rlineto
          -18 34 31 -7 26 hhcurveto
          86 84 callgsubr
          46 hvcurveto
          143 401 64 20 rlineto
          36 vlineto
          endchar
        </CharString>
        <CharString name="uni1EF8">
          -4 459 784 -36 callgsubr
          23 vhcurveto
          34 79 -39 39 hhcurveto
          37 callgsubr
          -103 -209 -54 callsubr
        </CharString>
        <CharString name="uni1EF8.loclGUA">
          96 419 690 rmoveto
          33 22 43 53 22 hvcurveto
          -35 15 -30 callgsubr
          -23 vhcurveto
          -37 -77 39 -39 -66 callgsubr
          34 23 vhcurveto
          34 80 -39 38 hhcurveto
          -97 -857 rmoveto
          -89 callsubr
          -40 callsubr
          endchar
        </CharString>
        <CharString name="uni1EF9">
          -60 427 679 rmoveto
          -35 14 rlineto
          0 -19 -34 -23 vhcurveto
          -37 -20 callgsubr
          -199 -188 -58 callgsubr
        </CharString>
        <CharString name="uni1EF9.loclGUA">
          4 446 679 -45 callgsubr
          -20 callgsubr
          -45 -586 rmoveto
          -93 callsubr
        </CharString>
        <CharString name="uni2070">
          364 493 rmoveto
          170 -73 57 -91 -91 -75 -59 -168 -167 75 -57 91 91 73 56 168 vhcurveto
          -163 -151 rmoveto
          -51 -61 27 124 127 61 26 51 48 61 -25 -124 -125 -61 -30 -48 hvcurveto
          endchar
        </CharString>
        <CharString name="uni2074">
          230 278 rmoveto
          78 90 59 52 -59 288 hlineto
          -63 7 -230 -311 60 callsubr
          52 74 callgsubr
        </CharString>
        <CharString name="uni2075">
          321 707 rmoveto
          -235 hlineto
          -18 -190 18 -17 rlineto
          112 59 -22 -72 -55 -42 -34 -57 -23 -30 5 18 -50 hvcurveto
          -10 -44 rlineto
          -16 38 49 -10 47 hhcurveto
          108 57 55 81 57 -23 77 -189 5 hvcurveto
          9 111 rlineto
          180 hlineto
          endchar
        </CharString>
        <CharString name="uni2076">
          125 510 rmoveto
          114 15 68 48 62 hhcurveto
          9 20 -2 -3 25 hvcurveto
          5 40 rlineto
          6 -23 -25 3 -21 hhcurveto
          -85 -136 -61 -208 -97 29 -81 126 145 24 96 54 62 -34 60 -100 -40 -36 -10 -21 -28 hvcurveto
          -3 -72 rmoveto
          30 19 17 callsubr
          69 -1 hvcurveto
          endchar
        </CharString>
        <CharString name="uni2077">
          45 605 10 callsubr
          395 -12 40 rlineto
          -301 hlineto
          endchar
        </CharString>
        <CharString name="uni2078">
          45 374 32 callsubr
          46 33 vvcurveto
          51 -45 43 -92 -101 -43 -49 -59 -55 7 callsubr
          -50 vvcurveto
          88 241 rmoveto
          42 30 17 36 38 20 -26 -36 -33 -19 -26 -37 -20 vhcurveto
          -42 21 -26 29 32 vvcurveto
          36 -143 rmoveto
          21 -9 rlineto
          35 -16 35 -28 -40 vvcurveto
          -44 -33 -22 -41 -37 -29 16 55 39 23 31 26 18 vhcurveto
          endchar
        </CharString>
        <CharString name="uni2079">
          60 335 rmoveto
          -11 -44 rlineto
          -14 36 37 -8 51 callgsubr
          98 -31 104 -127 -137 -23 -90 -53 13 callgsubr
          -14 -27 hhcurveto
          -36 -30 26 66 51 29 39 69 callgsubr
        </CharString>
        <CharString name="uni207D">
          -294 152 496 rmoveto
          128 0 126 99 45 vhcurveto
          -11 29 rlineto
          -143 -40 59 callsubr
          11 68 callgsubr
        </CharString>
        <CharString name="uni207E">
          -294 128 496 64 callsubr
          144 41 16 76 212 vvcurveto
          210 -16 78 -144 40 vhcurveto
          -10 -29 rlineto
          100 -45 0 -126 -128 vvcurveto
          endchar
        </CharString>
        <CharString name="uni207F">
          -87 179 624 rmoveto
          29 -26 vlineto
          -119 -28 rlineto
          -25 vlineto
          61 -8 rlineto
          -265 vlineto
          -61 50 callgsubr
          32 4 31 hhcurveto
          49 49 callsubr
          -62 19 rlineto
          247 vlineto
          59 -45 20 -50 -44 -64 -16 -13 -27 vhcurveto
          endchar
        </CharString>
        <CharString name="uni2080">
          -180 362 107 20 callsubr
          -152 rmoveto
          -51 -61 28 122 128 61 25 51 48 61 -25 -123 -125 -61 -30 -48 hvcurveto
          endchar
        </CharString>
        <CharString name="uni2081">
          -202 61 258 rmoveto
          114 -369 82 431 hlineto
          -196 -30 rlineto
          endchar
        </CharString>
        <CharString name="uni2082">
          182 279 -26 callgsubr
        </CharString>
        <CharString name="uni2083">
          199 329 rmoveto
          -51 -53 59 callgsubr
          43 20 -22 -34 -44 -29 -40 -80 -9 hvcurveto
          3 -37 rlineto
          59 66 -8 -74 -57 77 callgsubr
          5 17 75 callgsubr
          48 -11 47 hhcurveto
          106 58 43 88 56 -38 42 -64 12 hvcurveto
          46 21 35 38 53 vvcurveto
          63 -56 32 -68 vhcurveto
          endchar
        </CharString>
        <CharString name="uni2084">
          230 -111 rmoveto
          78 90 59 51 -59 289 hlineto
          -63 6 -230 -310 60 callsubr
          51 36 callgsubr
        </CharString>
        <CharString name="uni2085">
          321 328 41 callsubr
          -35 -57 -23 -30 5 17 -50 hvcurveto
          -10 -43 15 callsubr
        </CharString>
        <CharString name="uni2086">
          126 126 rmoveto
          103 13 69 55 62 hhcurveto
          9 20 -2 -4 25 hvcurveto
          5 40 rlineto
          6 -24 -24 4 -22 hhcurveto
          -85 -136 -61 -208 -97 30 -82 55 callgsubr
          -17 -29 hvcurveto
          -5 -77 rmoveto
          30 20 17 callsubr
          69 -2 hvcurveto
          endchar
        </CharString>
        <CharString name="uni2087">
          45 216 rmoveto
          45 hlineto
          16 53 rlineto
          170 hlineto
          -173 -377 86 -9 163 395 -12 41 rlineto
          -301 hlineto
          endchar
        </CharString>
        <CharString name="uni2088">
          45 -15 rmoveto
          -51 81 callgsubr
          25 -53 25 vhcurveto
          77 35 14 45 33 vvcurveto
          52 -45 43 -92 -101 -43 -50 -59 -55 29 -32 45 -26 vhcurveto
          -62 -31 -22 -40 -50 vvcurveto
          88 241 rmoveto
          41 30 17 36 38 20 -26 -36 -32 -19 -27 -37 -20 vhcurveto
          -42 21 -26 30 32 vvcurveto
          36 -143 rmoveto
          21 -10 rlineto
          35 -16 35 -27 -41 vvcurveto
          -44 -33 -22 -41 -37 -29 17 54 40 23 30 26 19 vhcurveto
          endchar
        </CharString>
        <CharString name="uni2089">
          60 -54 rmoveto
          -11 -44 rlineto
          -13 36 37 -9 51 callgsubr
          98 -31 105 -127 -137 -23 -90 -54 13 callgsubr
          -13 -27 hhcurveto
          -36 -30 25 66 52 29 38 69 callgsubr
        </CharString>
        <CharString name="uni208D">
          -283 152 114 rmoveto
          128 0 127 99 44 vhcurveto
          -10 30 rlineto
          -143 -41 59 callsubr
          10 68 callgsubr
        </CharString>
        <CharString name="uni208E">
          -283 138 114 64 callsubr
          143 41 17 76 212 vvcurveto
          210 -17 78 -143 41 vhcurveto
          -10 -30 rlineto
          100 -44 0 -127 -128 vvcurveto
          endchar
        </CharString>
        <CharString name="uni20B2">
          -14 283 304 rmoveto
          -38 -3 callsubr
          -169 vlineto
          -12 -30 -35 -4 -22 hhcurveto
          -117 -23 139 111 113 24 127 131 25 43 -4 -7 25 hvcurveto
          24 -98 rlineto
          44 hlineto
          13 135 -40 17 -65 10 -51 2 rlinecurve
          90 -53 -90 vlineto
          -169 -12 -57 -129 -158 vvcurveto
          -150 51 -134 165 -16 vhcurveto
          -95 54 95 vlineto
          56 3 64 13 42 25 rrcurveto
          199 vlineto
          67 20 rlineto
          38 vlineto
          endchar
        </CharString>
        <CharString name="uni20BA">
          -74 41 hmoveto
          145 hlineto
          219 74 146 160 4 hvcurveto
          -59 hlineto
          -125 -74 -117 -124 vhcurveto
          219 vlineto
          124 45 rlineto
          49 vlineto
          -124 -45 rlineto
          56 vlineto
          124 45 rlineto
          50 vlineto
          -124 -46 rlineto
          117 vlineto
          89 -4 callgsubr
          -152 vlineto
          -95 -35 rlineto
          -49 vlineto
          95 34 rlineto
          -55 vlineto
          -95 -34 rlineto
          -51 vlineto
          95 35 rlineto
          -189 77 callsubr
          endchar
        </CharString>
        <CharString name="uni20BD">
          -57 38 hmoveto
          293 38 hlineto
          -105 20 rlineto
          99 173 41 -173 57 63 vlineto
          110 99 53 132 115 -86 57 -128 hvcurveto
          -246 -38 hlineto
          89 -22 rlineto
          -255 -88 -42 88 -57 -88 -41 88 -99 vlineto
          -89 -21 rlineto
          188 260 rmoveto
          258 vlineto
          7 19 17 1 20 hhcurveto
          76 36 -42 -89 -108 -61 -27 -82 hvcurveto
          endchar
        </CharString>
        <CharString name="uni2113">
          -157 241 54 rmoveto
          -57 -14 37 89 hvcurveto
          28 vlineto
          81 52 109 97 132 vvcurveto
          78 -27 59 -94 -140 -21 -128 -141 vhcurveto
          -141 vlineto
          -71 -56 28 -40 14 9 15 11 14 9 rlinecurve
          -39 vlineto
          -79 31 -42 91 80 71 40 8 9 vhcurveto
          -7 35 rlineto
          -1 -1 -69 -17 -42 hhcurveto
          -71 345 rmoveto
          117 8 52 52 38 12 -28 -51 -85 -40 -73 -70 -51 vhcurveto
          endchar
        </CharString>
        <CharString name="uni2126">
          -46 callsubr
        </CharString>
        <CharString name="uni2153">
          328 351 -22 rmoveto
          227 644 rlineto
          -66 hlineto
          -227 -644 rlineto
          -237 564 rmoveto
          114 -370 82 26 callsubr
          656 -135 -69 callgsubr
        </CharString>
        <CharString name="uni2154">
          427 431 53 callsubr
          -180 585 -24 callgsubr
          617 -124 -69 callgsubr
        </CharString>
        <CharString name="uni2196">
          -16 460 370 rmoveto
          -357 56 -9 -11 66 -347 44 -1 -19 217 209 -228 68 69 -228 211 226 -11 rlineto
          endchar
        </CharString>
        <CharString name="uni2197">
          -16 402 69 rmoveto
          60 353 -10 11 -350 -63 -2 -44 222 15 -228 -209 68 -69 210 228 -14 -223 rlineto
          endchar
        </CharString>
        <CharString name="uni2198">
          -16 322 158 rmoveto
          -222 14 2 -43 350 -63 10 11 -60 352 -44 1 14 -222 -210 228 -68 -69 rlineto
          endchar
        </CharString>
        <CharString name="uni2199">
          -16 185 200 rmoveto
          19 217 rlineto
          -44 hlineto
          -66 -347 9 -11 357 58 rlineto
          43 vlineto
          -226 -11 228 211 -68 69 rlineto
          endchar
        </CharString>
        <CharString name="uni2206">
          9 callsubr
        </CharString>
        <CharString name="uni2215">
          -363 -53 -69 rmoveto
          67 hlineto
          237 731 rlineto
          -68 hlineto
          endchar
        </CharString>
        <CharString name="uni2219">
          -287 207 268 rmoveto
          38 -28 27 -38 -35 -30 -27 -38 -36 30 -29 35 38 28 29 36 vhcurveto
          endchar
        </CharString>
        <CharString name="uniA78B">
          -453 53 275 rmoveto
          75 317 -19 20 rlineto
          -80 hlineto
          -14 -330 rlineto
          endchar
        </CharString>
        <CharString name="uniA78C">
          -411 84 351 rmoveto
          80 336 -19 20 -85 -20 -14 -329 rlineto
          endchar
        </CharString>
        <CharString name="uniF6E9">
          -170 183 604 rmoveto
          42 15 -21 -39 hvcurveto
          -56 vlineto
          -107 -19 rlineto
          -83 -15 -13 -53 -38 vvcurveto
          -46 30 -48 50 51 36 21 27 38 vhcurveto
          -28 5 23 -15 35 hhcurveto
          23 26 4 9 32 hvcurveto
          27 vlineto
          -61 18 rlineto
          234 vlineto
          69 -49 18 -71 -53 -53 -11 -17 -43 vhcurveto
          11 -93 rlineto
          34 hlineto
          18 63 rlineto
          6 19 23 3 22 46 callgsubr
          -28 -19 13 37 31 13 24 45 8 hvcurveto
          endchar
        </CharString>
        <CharString name="uniF6EA">
          -134 155 634 rmoveto
          190 -28 35 callgsubr
          60 -8 rlineto
          -472 vlineto
          -11 36 71 -10 40 hhcurveto
          151 36 100 95 132 -64 56 -106 -25 -31 -9 -10 -22 hvcurveto
          -309 vmoveto
          268 vlineto
          10 18 19 5 25 hhcurveto
          75 19 -51 -93 -99 -21 -52 -74 -27 -24 6 6 -10 hvcurveto
          endchar
        </CharString>
        <CharString name="uniF6EB">
          -127 286 315 rmoveto
          -26 5 29 -15 27 hhcurveto
          23 26 4 9 32 hvcurveto
          27 vlineto
          -62 18 rlineto
          492 -27 vlineto
          -117 -28 rlineto
          -25 vlineto
          62 -8 rlineto
          -129 vlineto
          3 -45 16 -39 -105 -59 -72 -120 -100 42 -91 86 50 37 19 26 35 vhcurveto
          -81 10 rmoveto
          -56 -22 56 82 90 28 57 61 20 29 -7 -13 19 hvcurveto
          -239 vlineto
          -11 -16 -32 -15 -31 hhcurveto
          endchar
        </CharString>
        <CharString name="uniF6EC">
          -197 209 269 rmoveto
          59 34 13 25 41 hvcurveto
          -6 29 rlineto
          -11 -37 -37 -6 -31 hhcurveto
          -65 -42 39 88 hvcurveto
          21 221 vlineto
          14 1 18 12 vvcurveto
          98 -1 -44 44 -100 hhcurveto
          -98 -70 -55 -137 -110 46 -82 129 hvcurveto
          -82 233 rmoveto
          71 2 18 36 60 hhcurveto
          41 12 -33 -51 hvcurveto
          -16 vlineto
          endchar
        </CharString>
        <CharString name="uniF6ED">
          -313 191 760 rmoveto
          29 -26 26 -29 -30 -26 -26 -29 -31 26 -23 30 29 26 23 31 vhcurveto
          48 -451 rmoveto
          -62 18 rlineto
          326 -27 35 callgsubr
          61 -8 rlineto
          -265 vlineto
          -61 -18 rlineto
          -31 207 vlineto
          endchar
        </CharString>
        <CharString name="uniF6EF">
          126 29 278 rmoveto
          195 30 hlineto
          -50 19 rlineto
          262 vlineto
          5 15 31 6 25 hhcurveto
          53 14 -10 -36 hvcurveto
          -227 vlineto
          -47 -19 rlineto
          -30 179 30 vlineto
          -48 19 rlineto
          240 vlineto
          8 0 8 -2 6 vhcurveto
          5 15 29 6 28 hhcurveto
          55 12 -10 -36 hvcurveto
          -227 vlineto
          -46 -19 rlineto
          -30 192 30 vlineto
          -61 19 rlineto
          247 vlineto
          62 -40 18 -58 vhcurveto
          -55 -2 -55 -20 -27 -11 rrcurveto
          24 -15 -34 9 -36 hhcurveto
          -47 -1 -52 -19 -25 -10 rrcurveto
          29 -27 35 callgsubr
          61 -8 rlineto
          -265 vlineto
          -61 -19 rlineto
          endchar
        </CharString>
        <CharString name="uniF6F0">
          -15 callsubr
        </CharString>
        <CharString name="uniF6F1">
          -251 237 597 rmoveto
          16 -65 rlineto
          36 hlineto
          15 122 rlineto
          1 -6 -8 0 -7 hhcurveto
          -36 -41 -13 -22 -34 hvcurveto
          33 -29 vlineto
          -115 -28 rlineto
          -25 vlineto
          60 -8 rlineto
          -264 vlineto
          -60 -20 rlineto
          -30 230 30 vlineto
          -85 19 rlineto
          256 vlineto
          19 8 22 5 23 1 rrcurveto
          endchar
        </CharString>
        <CharString name="uniF6F3">
          -299 250 289 rmoveto
          26 vlineto
          -91 15 rlineto
          270 vlineto
          101 -5 rlineto
          53 -101 82 -38 vlineto
          -39 -76 -61 -23 rlineto
          -32 54 -267 vlineto
          -30 13 -31 47 20 65 9 9 30 vhcurveto
          endchar
        </CharString>
</ttFont>
